<svg xmlns="http://www.w3.org/2000/svg" width="199.45" height="12.228" viewBox="0 0 199.45 12.228"><path d="M3.801 8.572l-1.057 2.456c.713 0 1.057-.029 1.343-.029.2 0 .428.2.425.518.003.314-.225.487-.425.487-.286 0-.43-.143-1.861-.143-1.371 0-1.54.143-1.799.143C.199 12.003 0 11.83 0 11.516c0-.318.201-.518.427-.518.286 0 .515.029 1.286.029L6.345.4c.084-.258.171-.4.454-.4.288 0 .345.115.458.4l4.484 10.627c.917 0 1.003-.029 1.289-.029.202 0 .428.2.428.518 0 .314-.226.487-.428.487-.286 0-.372-.143-2.313-.143h-.031c-1.829 0-2 .143-2.287.143-.2 0-.429-.173-.429-.487 0-.318.229-.518.429-.518.287 0 .374.029 1.204.029l-1.03-2.455H3.801zm4.342-1L6.231 2.97 4.229 7.572h3.914zM20.118 11.027c1.17 0 1.314-.029 1.597-.029.23 0 .431.2.431.518 0 .314-.201.487-.431.487-.283 0-.398-.143-2.055-.143h-.056c-1.661 0-1.803.143-2.087.143-.2 0-.43-.173-.427-.487-.002-.318.227-.518.427-.518.284 0 .426.032 1.598.029V1.114c-1.172 0-1.313.029-1.598.029-.2 0-.427-.171-.427-.487-.002-.315.227-.514.427-.514.284 0 .426.142 2.087.142h.256c.286 0 .599-.025.799-.025.344 0 .516.142.915.714l5.202 7.458V1.114c-1.201 0-1.316.029-1.602.029-.229 0-.431-.171-.43-.487-.001-.315.201-.514.43-.514.286 0 .43.142 2.055.142h.06c1.657 0 1.801-.142 2.087-.142.199 0 .425.199.425.514 0 .316-.226.487-.425.487-.286 0-.43-.029-1.602-.029v10.428c-.001.515-.259.659-.485.659-.286 0-.4-.114-.627-.4l-6.545-9.4v8.626zM43.718 4.085c-.312 0-.483-.226-.483-.43 0-2.056-.458-2.573-2.086-2.573h-1.2l.001 9.945c1.37 0 1.541-.029 1.828-.029.229 0 .429.2.429.518 0 .314-.2.487-.429.487-.287 0-.46-.143-2.77-.143h-.117c-2.34 0-2.513.143-2.798.143-.201 0-.431-.173-.431-.487 0-.318.229-.518.431-.518.285 0 .458.029 1.829.029l-.003-9.945h-1.168c-1.658 0-2.115.517-2.115 2.573 0 .204-.172.43-.458.43-.312 0-.456-.226-.456-.43 0-.284.115-1.083.115-2.256V.627c0-.314.197-.512.428-.512.257 0 1.145.143 1.6.143h6.173c.429 0 1.313-.143 1.571-.143.228 0 .427.198.427.512v.772c0 1.173.143 1.972.143 2.256-.003.204-.146.43-.461.43zM53.092 6.314l.002 4.713c.914 0 1.055-.029 1.34-.029.227 0 .43.2.43.518 0 .314-.203.487-.43.487-.286 0-.599-.143-2.286-.143h-.142c-2.315 0-2.485.143-2.771.143-.229 0-.431-.173-.431-.487 0-.318.202-.518.431-.518.287 0 .456.029 1.828.029V1.114c-1.372 0-1.542.029-1.828.029-.229 0-.431-.171-.431-.487 0-.315.202-.514.431-.514.287 0 .456.142 2.771.142h.142c1.859 0 2-.142 2.286-.142.227 0 .43.199.43.514 0 .316-.203.487-.43.487-.286 0-.572-.029-1.342-.029v4.201h5.056V1.114c-.884 0-1.054.029-1.34.029-.227 0-.429-.171-.429-.487-.001-.315.202-.514.429-.514.286 0 .427.142 2.313.142h.114c2.341 0 2.485-.142 2.773-.142.228 0 .427.199.427.514 0 .316-.199.487-.427.487-.288 0-.432-.029-1.828-.029v9.914c1.396.003 1.54-.029 1.828-.029.228 0 .427.2.427.518 0 .314-.199.487-.427.487-.288 0-.431-.143-2.773-.143h-.114c-1.857 0-2.027.143-2.313.143-.227 0-.429-.173-.429-.487-.001-.318.199-.518.429-.518.286 0 .484.029 1.34.029V6.314h-5.056zM77.751 8.859c0 1.2-.086 1.341-.086 1.943 0 .455.173.739.516.739.371 0 .428-.255.428-.596 0-.26.2-.459.428-.459.259 0 .458.2.458.43 0 .884-.826 1.312-1.431 1.312-1.424 0-2.342-.657-2.342-3.369 0-1.889-.313-2.631-2.399-2.631H72.21v4.799c1.37 0 1.542-.029 1.828-.029.228 0 .427.2.427.518 0 .314-.199.487-.427.487-.286 0-.458-.143-2.773-.143h-.142c-2.314 0-2.485.143-2.772.143-.228 0-.428-.173-.426-.487-.002-.318.198-.518.426-.518.287 0 .458.032 1.829.029V1.114c-1.371 0-1.542.029-1.829.029-.228 0-.428-.171-.428-.487 0-.315.201-.514.428-.514.287 0 .458.142 2.63.142.569 0 1.629-.055 2.342-.055 3.058 0 4.429 1.287 4.429 2.77 0 1.317-1.341 2.402-2.713 2.688 1.798.456 2.712 1.828 2.712 3.172zm-4.743-7.777h-.799V5.4l.627.003c1.828-.003 2.802-.576 2.802-2.317.001-1.371-.659-2.004-2.63-2.004zM88.953 12.146c-2.971 0-5.484-2.432-5.484-6.06C83.469 2.455 85.982 0 88.953 0c3.001 0 5.488 2.455 5.488 6.087 0 3.627-2.487 6.059-5.488 6.059zm0-11.204c-2.085 0-3.2 1.257-3.2 5.145 0 3.885 1.115 5.141 3.2 5.141 2.084.002 3.2-1.255 3.2-5.141S91.038.942 88.953.942zM104.039 11.027c1.374.003 1.542-.029 1.826-.029.234 0 .432.2.432.518 0 .314-.197.487-.43.487-.286 0-.454-.143-2.771-.143h-.14c-2.317 0-2.486.143-2.772.143-.23 0-.431-.173-.431-.487 0-.318.201-.518.431-.518.286 0 .455.029 1.826.029V1.114c-1.371 0-1.54.029-1.826.029-.23 0-.431-.171-.431-.486 0-.316.201-.515.431-.515.314 0 .428.142 2.486.142.97 0 1.429-.025 2.457-.025 3.141 0 4.828 1.456 4.828 3.484 0 2.029-1.688 3.517-4.828 3.517h-1.088v3.767zm0-4.571h1.088c2.058 0 2.8-.743 2.8-2.714 0-1.914-.742-2.66-2.8-2.66h-1.088v5.374zM119.755 12.146c-2.972 0-5.483-2.432-5.483-6.06 0-3.632 2.512-6.087 5.486-6.087 2.998 0 5.485 2.455 5.485 6.087 0 3.628-2.487 6.06-5.488 6.06zm.003-11.204c-2.085 0-3.201 1.257-3.201 5.145 0 3.885 1.116 5.141 3.201 5.141 2.082 0 3.198-1.255 3.198-5.141S121.84.942 119.758.942zM137.76 11.086c1.627 0 2.087-.543 2.085-2.573.002-.229.173-.427.485-.427.287 0 .43.198.43.427 0 .286-.115 1.058-.115 2.227v.801c0 .288-.202.486-.428.486-.257 0-1.143-.109-1.602-.109l-4.859-.059c-2.315 0-2.484.143-2.769.143-.229 0-.429-.173-.429-.487 0-.318.199-.518.429-.518.284 0 .453.029 1.826.032V1.114c-1.373 0-1.542.029-1.826.029-.229 0-.429-.171-.429-.486 0-.316.199-.515.429-.515.284 0 .453.142 2.769.142h.146c2.314 0 2.483-.142 2.776-.142.226 0 .425.199.425.514 0 .316-.199.487-.43.487-.288 0-.457-.029-1.827-.029v9.973h2.914zM150.391 12.146c-2.975 0-5.488-2.432-5.488-6.06 0-3.632 2.517-6.087 5.488-6.087 3 0 5.482 2.455 5.482 6.087 0 3.628-2.484 6.06-5.482 6.06zm0-11.204c-2.09 0-3.203 1.257-3.203 5.145 0 3.885 1.113 5.141 3.203 5.141 2.082 0 3.197-1.255 3.197-5.141 0-3.888-1.112-5.145-3.197-5.145zM161.247 6.087c0-3.632 2.513-6.087 5.485-6.087 1.63 0 2.401.543 3.088 1.114.146-.111.257-.23.257-.458 0-.256.027-.541.457-.541.4 0 .458.198.458.512v3.546c0 .228-.031.54-.458.54-.43 0-.457-.312-.457-.54 0-1.773-1.373-3.231-3.172-3.231-2.173 0-3.373 1.372-3.373 5.145 0 3.744 1.2 5.143 3.373 5.141 1.228 0 2.458-.482 2.458-3.226-.945 0-1.087.027-1.371.027-.2 0-.43-.199-.43-.486 0-.314.229-.515.43-.515.286 0 .397.143 2.312.143h.114c1.972 0 2.029-.143 2.316-.143.228 0 .427.198.427.515 0 .287-.199.486-.427.486-.287 0-.43-.027-1.344-.027 0 .857-.283 4.145-4.658 4.145-2.97-.001-5.485-2.433-5.485-6.06zM183.537 10.999c.226 0 .425.2.425.518 0 .314-.199.487-.425.487-.286 0-.462-.143-2.776-.143h-.14c-2.314 0-2.487.143-2.771.143-.228 0-.425-.173-.425-.487 0-.318.197-.518.425-.518.284 0 .457.029 1.828.029V1.114c-1.371 0-1.544.029-1.828.029-.228 0-.425-.171-.425-.486 0-.316.197-.515.425-.515.286 0 .457.142 2.771.142h.14c2.314.003 2.49-.142 2.776-.142.226 0 .427.199.425.514 0 .316-.199.487-.425.487-.286 0-.462-.029-1.832-.029v9.917c1.37-.004 1.546-.032 1.832-.032zM194.708 5.4c.685 0 1.258-.541 1.258-1.372 0-.258.054-.485.372-.485.312 0 .312.227.312.485 0 .287-.057.657-.057 1.658v.285c0 .999.057 1.37.057 1.657 0 .257 0 .485-.312.485-.318 0-.372-.229-.372-.485 0-.83-.573-1.372-1.258-1.372h-.971v4.83h2.685c1.659 0 2.085-.543 2.085-2.573 0-.229.173-.424.486-.427.313 0 .457.198.457.427 0 .286-.113 1.058-.113 2.227v.801c0 .288-.228.486-.428.486-.259 0-1.146-.109-1.601-.109l-4.658-.059c-2.313 0-2.486.143-2.775.143-.228 0-.425-.173-.425-.487 0-.318.202-.518.425-.518.289 0 .462.029 1.833.029V1.114c-1.371 0-1.544.029-1.833.029-.228 0-.425-.171-.425-.487 0-.315.197-.514.425-.514.289 0 .462.142 2.775.142l4.145-.025c.457 0 1.342-.143 1.599-.143.229 0 .43.198.43.512V1.4c0 1.173.115 1.972.115 2.256 0 .204-.146.43-.432.43-.314 0-.481-.226-.481-.43 0-2.056-.458-2.573-2.09-2.573h-2.198V5.4h.97z"/></svg>