<?xml version="1.0" encoding="utf-8"?>
<!-- Generator: Adobe Illustrator 16.0.4, SVG Export Plug-In . SVG Version: 6.00 Build 0)  -->
<!DOCTYPE svg PUBLIC "-//W3C//DTD SVG 1.1//EN" "http://www.w3.org/Graphics/SVG/1.1/DTD/svg11.dtd">
<svg version="1.1" id="Layer_1" xmlns:sketch="http://www.bohemiancoding.com/sketch/ns"
	 xmlns="http://www.w3.org/2000/svg" xmlns:xlink="http://www.w3.org/1999/xlink" x="0px" y="0px" width="30px" height="30px"
	 viewBox="0 0 30 30" enable-background="new 0 0 30 30" xml:space="preserve">
<title>Slice 1</title>
<description>Created with Sketch (http://www.bohemiancoding.com/sketch)</description>
<g id="Page-1" sketch:type="MSPage">
	<g id="Vector-Smart-Object" transform="translate(0.000000, 1.000000)" sketch:type="MSLayerGroup">
		<path id="Fill-3" sketch:type="MSShapeGroup" fill="#CA1F12" d="M10.836,15.911H3.908l-3.463,6.149l3.463,6.149h6.928l3.464-6.149
			L10.836,15.911"/>
		<path id="Fill-5" sketch:type="MSShapeGroup" fill="#CA1F12" d="M7.372-1L0,6.372l7.372,7.372l7.372-7.372L7.372-1"/>
		<path id="Fill-1" sketch:type="MSShapeGroup" fill="#CA1F12" d="M23.453,12.919c3.615,0,6.547-2.932,6.547-6.547
			c0-3.616-2.932-6.547-6.547-6.547c-3.616,0-6.549,2.931-6.549,6.547C16.904,9.988,19.836,12.919,23.453,12.919"/>
		<path id="Fill-2" sketch:type="MSShapeGroup" fill="#CA1F12" d="M23.191,15.953l-6.808,12.209H30L23.191,15.953"/>
	</g>
</g>
</svg>
