<?xml version="1.0" encoding="utf-8"?>
<!-- Generator: Adobe Illustrator 16.0.4, SVG Export Plug-In . SVG Version: 6.00 Build 0)  -->
<!DOCTYPE svg PUBLIC "-//W3C//DTD SVG 1.1//EN" "http://www.w3.org/Graphics/SVG/1.1/DTD/svg11.dtd">
<svg version="1.1" id="Layer_1" xmlns="http://www.w3.org/2000/svg" xmlns:xlink="http://www.w3.org/1999/xlink" x="0px" y="0px"
	 width="39.02px" height="41.032px" viewBox="0 0 39.02 41.032" enable-background="new 0 0 39.02 41.032" xml:space="preserve">
<g>
	<rect y="1.007" fill="#22314E" width="39.02" height="39.019"/>
	<path fill="#FFFFFF" d="M16.586,33.323h0.485l-1.843,4.41l-0.23-0.562l0.008-0.019L16.586,33.323z M12.451,33.323l2.015,5.07h0.484
		l-1.992-5.07H12.451z M20.224,36.074v-0.408h-1.555l0.163,0.408H20.224z M20.733,33.323h-2.737v5.07h2.633l0.103-0.408h-2.29
		v-4.252h2.178L20.733,33.323z M11.138,38.394h0.439v-5.07h-0.439V38.394z M5.934,38.394h0.439v-3.859l-0.439-0.559V38.394z
		 M9.707,37.674l-3.224-4.328l-0.016-0.022H5.934l3.785,5.07h0.426v-5.07H9.707V37.674z M4.554,36.593
		c0,1.001-0.44,1.467-1.384,1.467c-0.945,0-1.385-0.466-1.385-1.467v-3.27H1.339v3.262c0,0.86,0.318,1.884,1.832,1.884
		c1.513,0,1.83-1.023,1.83-1.884v-3.262H4.554V36.593z M30.416,33.733h1.75v4.66h0.447v-5.07h-2.197V33.733z M29.005,38.394h0.438
		v-5.07h-0.438V38.394z M34.494,33.323H34.17h-1.176v0.41h1.396l1.42,2.632v2.028h0.446v-2.103l-1.573-2.968H34.494z M37.383,33.323
		L36.24,35.48l0.268,0.438l1.389-2.595H37.383z M24.508,34.714c0-0.894-0.623-1.405-1.707-1.405h-1.134v5.085h0.445v-4.678h0.688
		c0.766,0,1.223,0.376,1.223,1.006c0,0.637-0.484,1.058-1.295,1.125l-0.09,0.008l1.682,2.539h0.55l-1.51-2.28
		C24.102,35.898,24.508,35.403,24.508,34.714z M26.959,35.65c-0.516-0.301-1.004-0.586-1.004-1.113c0-0.781,0.76-0.843,0.992-0.843
		c0.305,0,0.678,0.094,1.001,0.251l0.077,0.038V33.51l-0.03-0.015c-0.286-0.139-0.645-0.208-1.062-0.208
		c-0.856,0-1.454,0.511-1.454,1.242c0,0.794,0.592,1.137,1.166,1.469l0.027,0.016c0.591,0.337,1.043,0.636,1.043,1.182
		c0,0.594-0.539,0.864-1.039,0.864c-0.605,0-1.03-0.224-1.146-0.294l-0.081-0.047V38.2l0.03,0.015
		c0.357,0.168,0.752,0.254,1.176,0.254c0.919,0,1.537-0.539,1.537-1.342C28.191,36.377,27.537,35.99,26.959,35.65z M20.684,20.561
		h1.294v-4.21h0.001v-0.545h-0.001v-4.223h-1.286h-0.008h-2.281v0.544h2.281V20.561z M2.635,20.561v-0.544v-7.89h1.403
		c1.117,0,1.635,0.668,1.635,1.73c0,1.172-0.763,1.854-1.934,1.854l0.136,0.518h0.245c1.172,0,1.921,0.845,1.921,1.866
		c0,1.131-0.64,1.922-1.989,1.922h-0.54v0.544h0.525c2.521,0,3.366-1.308,3.366-2.492c0-1.05-0.695-1.895-2.234-2.14v-0.04
		c1.281-0.409,1.853-1.336,1.853-2.249c0-0.968-0.803-2.057-2.589-2.057H2.635H2.526H1.341v8.978H2.58H2.635z M26.064,16.441v4.119
		h0.666h0.602l0,0v-8.978h-1.268v4.324h-3.266l0.231,0.534H26.064z M19.673,24.598c0,2.587,3.773,2.56,3.773,4.507
		c0,1.214-0.8,1.761-1.68,1.761c-0.747,0-1.587-0.307-2.08-0.693v0.747c0.506,0.253,1.213,0.479,2.214,0.479
		c1.732,0,2.854-1.066,2.854-2.414c0-2.653-3.8-2.56-3.8-4.547c0-1.08,0.72-1.494,1.56-1.494c0.693,0,1.479,0.28,1.973,0.654v-0.746
		c-0.426-0.214-1.119-0.44-2.16-0.44C20.54,22.411,19.673,23.425,19.673,24.598z M31.826,25.131c0-1.693-1.254-2.653-3.228-2.653
		h-1.267h-0.049h-1.219v8.787h1.268v-8.254h1.146c1.347,0,2.027,0.881,2.027,2.133c0,1.335-0.602,2.241-1.947,2.241h-0.4l0.227,0.52
		C30.785,27.904,31.826,26.491,31.826,25.131z M13.702,12.127h2.521v8.434h1.294v-8.978h-4.033L13.702,12.127z M11.03,11.583
		l-0.422,1.13l1.499,3.938h-2.97l-1.581,3.91h0.708l1.308-3.365h2.739l1.335,3.365h1.321l-3.487-8.978H11.03z M36.604,31.265h1.293
		l-3.414-8.787h-0.439l-0.414,1.106l1.467,3.854h-2.906l-1.547,3.827h0.693l1.28-3.293h2.68L36.604,31.265z"/>
</g>
</svg>
