<?xml version="1.0" encoding="utf-8"?>
<!-- Generator: Adobe Illustrator 16.0.4, SVG Export Plug-In . SVG Version: 6.00 Build 0)  -->
<!DOCTYPE svg PUBLIC "-//W3C//DTD SVG 1.1//EN" "http://www.w3.org/Graphics/SVG/1.1/DTD/svg11.dtd">
<svg version="1.1" id="Layer_1" xmlns="http://www.w3.org/2000/svg" xmlns:xlink="http://www.w3.org/1999/xlink" x="0px" y="0px"
	 width="28.976px" height="20.773px" viewBox="0 0 28.976 20.773" enable-background="new 0 0 28.976 20.773" xml:space="preserve">
<g>
	<polygon fill="#F8B744" points="0.827,3.333 3.5,0.813 25,0.813 27.85,2.284 27.85,18.818 26.12,19.873 2.97,19.873 1.496,18.52 	
		"/>
	<polygon fill="#FFFFFF" points="1.938,2.25 11.875,11.375 13.438,12 15,12 26.812,2 27.85,2.284 28.35,18.062 26.438,19.75 
		22,20.125 3.5,19.75 1.938,19.188 0.827,18.25 0.827,2.562 	"/>
	<path fill="#10293F" d="M25.976,2c0.542,0,1,0.458,1,1v14.773c0,0.542-0.458,1-1,1H3c-0.542,0-1-0.458-1-1V3c0-0.542,0.458-1,1-1
		H25.976 M25.976,0H3C1.35,0,0,1.35,0,3v14.773c0,1.65,1.35,3,3,3h22.976c1.65,0,3-1.35,3-3V3C28.976,1.35,27.626,0,25.976,0
		L25.976,0z"/>
	<g>
		<path fill="#10293F" d="M14.46,13.187c-1.036,0-2.071-0.36-2.863-1.083L0.827,2.292l1.347-1.479l10.77,9.812
			c0.833,0.758,2.232,0.75,3.055-0.018l10.486-9.786l1.365,1.462L17.363,12.07C16.566,12.814,15.513,13.187,14.46,13.187z"/>
	</g>
	<g>
		
			<rect x="5.045" y="7.755" transform="matrix(0.7597 0.6503 -0.6503 0.7597 11.0406 -0.3876)" fill="#10293F" width="2" height="13.977"/>
	</g>
	<g>
		
			<rect x="16.056" y="13.744" transform="matrix(0.6503 0.7597 -0.7597 0.6503 19.2585 -12.3508)" fill="#10293F" width="13.978" height="2"/>
	</g>
</g>
</svg>
