<?xml version="1.0" encoding="UTF-8" standalone="no"?>
<svg width="30px" height="30px" viewBox="0 0 30 30" version="1.1" xmlns="http://www.w3.org/2000/svg" xmlns:xlink="http://www.w3.org/1999/xlink">
    <!-- Generator: Sketch 3.8.3 (29802) - http://www.bohemiancoding.com/sketch -->
    <title>instagram-01</title>
    <desc>Created with Sketch.</desc>
    <defs></defs>
    <g id="project-page-template" stroke="none" stroke-width="1" fill="none" fill-rule="evenodd">
        <g id="Desktop-HD" transform="translate(-704.000000, -6859.000000)" fill="#FFFFFF">
            <g id="Group-2" transform="translate(642.000000, 6859.000000)">
                <g id="instagram-01" transform="translate(62.000000, 0.000000)">
                    <g id="Layer_1">
                        <path d="M24.20235,0 L5.79765,0 C2.6007,0 0,2.6001 0,5.7972 L0,11.92125 L0,24.2022 C0,27.3993 2.6007,29.9994 5.79765,29.9994 L24.2028,29.9994 C27.39975,29.9994 29.99985,27.3993 29.99985,24.2022 L29.99985,11.92065 L29.99985,5.7966 C29.9994,2.59965 27.39915,0 24.20235,0 L24.20235,0 Z M25.86525,3.45705 L26.52825,3.45465 L26.52825,4.11465 L26.52825,8.53965 L21.46035,8.55615 L21.44325,3.47175 L25.86525,3.45705 L25.86525,3.45705 Z M10.71795,11.92065 C11.67885,10.5909 13.2378,9.71925 15,9.71925 C16.7622,9.71925 18.32115,10.5909 19.28085,11.9205 C19.90605,12.78795 20.28075,13.84935 20.28075,14.99925 C20.28075,17.91075 17.9097,20.2788 14.9994,20.2788 C12.08775,20.2788 9.71925,17.91075 9.71925,14.99925 C9.71985,13.8495 10.09335,12.7881 10.71795,11.92065 L10.71795,11.92065 Z M27.07665,24.2016 C27.07665,25.7877 25.7871,27.0759 24.20235,27.0759 L5.79765,27.0759 C4.2123,27.0759 2.92275,25.7877 2.92275,24.2016 L2.92275,11.92065 L7.401,11.92065 C7.014,12.8721 6.7971,13.911 6.7971,14.9994 C6.7971,19.5213 10.4763,23.20275 15.00015,23.20275 C19.524,23.20275 23.2032,19.5213 23.2032,14.9994 C23.2032,13.91085 22.9845,12.87195 22.5981,11.92065 L27.0768,11.92065 L27.0768,24.2016 L27.07665,24.2016 Z" id="Shape"></path>
                    </g>
                </g>
            </g>
        </g>
    </g>
</svg>