<?xml version="1.0" encoding="utf-8"?>
<!-- Generator: Adobe Illustrator 16.0.4, SVG Export Plug-In . SVG Version: 6.00 Build 0)  -->
<!DOCTYPE svg PUBLIC "-//W3C//DTD SVG 1.1//EN" "http://www.w3.org/Graphics/SVG/1.1/DTD/svg11.dtd">
<svg version="1.1" id="Layer_1" xmlns="http://www.w3.org/2000/svg" xmlns:xlink="http://www.w3.org/1999/xlink" x="0px" y="0px"
	 width="30px" height="30px" viewBox="0 0 30 30" enable-background="new 0 0 30 30" xml:space="preserve">
<title>linkedin-01</title>
<desc>Created with Sketch.</desc>
<g id="project-page-template">
	<g id="Desktop-HD" transform="translate(-769.000000, -6859.000000)">
		<g id="Group-2" transform="translate(642.000000, 6859.000000)">
			<g id="linkedin-01" transform="translate(127.000000, 0.000000)">
				<g id="Layer_1_1_">
					<path id="Shape" fill="#0077B5" d="M27.777,0H2.213C0.992,0,0,0.969,0,2.162v25.673C0,29.029,0.992,30,2.213,30h25.564
						C29,30,30,29.029,30,27.835V2.162C30,0.969,29,0,27.777,0L27.777,0z M8.899,25.562H4.446V11.248h4.454V25.562L8.899,25.562z
						 M6.674,9.29c-1.43,0-2.582-1.156-2.582-2.58c0-1.422,1.152-2.579,2.582-2.579c1.423,0,2.579,1.157,2.579,2.579
						C9.253,8.134,8.097,9.29,6.674,9.29L6.674,9.29z M25.562,25.562h-4.446v-6.961c0-1.66-0.031-3.796-2.311-3.796
						c-2.316,0-2.67,1.808-2.67,3.676v7.081h-4.444V11.248h4.264v1.956h0.062c0.593-1.125,2.046-2.312,4.21-2.312
						c4.502,0,5.335,2.964,5.335,6.82V25.562L25.562,25.562z"/>
				</g>
			</g>
		</g>
	</g>
</g>
</svg>
