<?xml version="1.0" encoding="UTF-8" standalone="no"?>
<svg width="30px" height="30px" viewBox="0 0 30 30" version="1.1" xmlns="http://www.w3.org/2000/svg" xmlns:xlink="http://www.w3.org/1999/xlink">
    <!-- Generator: Sketch 3.8.3 (29802) - http://www.bohemiancoding.com/sketch -->
    <title>linkedin-01</title>
    <desc>Created with Sketch.</desc>
    <defs></defs>
    <g id="project-page-template" stroke="none" stroke-width="1" fill="none" fill-rule="evenodd">
        <g id="Desktop-HD" transform="translate(-769.000000, -6859.000000)" fill="#FFFFFF">
            <g id="Group-2" transform="translate(642.000000, 6859.000000)">
                <g id="linkedin-01" transform="translate(127.000000, 0.000000)">
                    <g id="Layer_1">
                        <path d="M27.7776,0.000599999999 L2.21265,0.000599999999 C0.99195,0.000599999999 0,0.96885 0,2.16195 L0,27.83505 C0,29.02965 0.99195,29.9997 2.21265,29.9997 L27.7776,29.9997 C29.0007,29.9997 30,29.02965 30,27.83505 L30,2.16195 C30,0.96885 29.0007,0.000599999999 27.7776,0.000599999999 L27.7776,0.000599999999 Z M8.8995,25.563 L4.4457,25.563 L4.4457,11.2473 L8.8995,11.2473 L8.8995,25.563 L8.8995,25.563 Z M6.6738,9.2898 C5.244,9.2898 4.09245,8.1339 4.09245,6.70935 C4.09245,5.2869 5.244,4.13055 6.6738,4.13055 C8.097,4.13055 9.2526,5.2869 9.2526,6.70935 C9.25275,8.1339 8.097,9.2898 6.6738,9.2898 L6.6738,9.2898 Z M25.56165,25.563 L21.11595,25.563 L21.11595,18.60195 C21.11595,16.9419 21.08415,14.8056 18.804,14.8056 C16.488,14.8056 16.13475,16.61385 16.13475,18.4815 L16.13475,25.563 L11.6907,25.563 L11.6907,11.2473 L15.9558,11.2473 L15.9558,13.2033 L16.0167,13.2033 C16.60995,12.07755 18.0627,10.8909 20.2272,10.8909 C24.72915,10.8909 25.5615,13.85505 25.5615,17.7108 L25.5615,25.563 L25.56165,25.563 Z" id="Shape"></path>
                    </g>
                </g>
            </g>
        </g>
    </g>
</svg>