<?xml version="1.0" encoding="UTF-8" standalone="no"?>
<svg width="200px" height="49px" viewBox="0 0 200 49" version="1.1" xmlns="http://www.w3.org/2000/svg" xmlns:xlink="http://www.w3.org/1999/xlink">
    <!-- Generator: Sketch 3.8.3 (29802) - http://www.bohemiancoding.com/sketch -->
    <title>logo</title>
    <desc>Created with Sketch.</desc>
    <defs></defs>
    <g id="Page-1" stroke="none" stroke-width="1" fill="none" fill-rule="evenodd">
        <g id="logo">
            <g id="Layer_1">
                <g id="Group">
                    <g id="Shape" fill="#10293F">
                        <g>
                            <path d="M1.07064677,12.7995931 C1.07064677,12.2219995 1.23946932,11.6778122 1.57678275,11.1676992 C1.91409619,10.6575862 2.386733,10.2132835 2.99436153,9.83345481 C3.60165837,9.45396016 4.32470978,9.1566448 5.1628524,8.94117468 C6.00066335,8.72570457 6.91509121,8.61813654 7.90547264,8.61813654 C9.84046434,8.61813654 11.2666667,9.13359451 12.1834163,10.1648445 C13.1001658,11.1960945 13.5532338,12.8336674 13.5422886,15.0772291 L13.5084577,22.8966229 C13.5084577,23.2594145 13.5001658,23.6248785 13.4832504,23.992681 C13.466335,24.3614857 13.4298507,24.7830722 13.3737977,25.2591108 L15.8208955,25.1231475 L15.8208955,26.5850036 L10.8756219,26.5850036 C10.8082919,26.1884718 10.7575456,25.8430515 10.7237148,25.5480746 C10.6898839,25.2534317 10.6616915,24.9420858 10.6394693,24.6130345 C9.86301824,25.3950741 9.01625207,26.0127551 8.09950249,26.4660775 C7.18242123,26.9187318 6.21227197,27.1458941 5.18839138,27.1458941 C4.32205638,27.1458941 3.56517413,27.0409985 2.91840796,26.8315415 C2.27131012,26.6217505 1.73432836,26.3301142 1.30679934,25.9559645 C0.879270315,25.5821489 0.55854063,25.1428571 0.344941957,24.6387573 C0.131011609,24.1346574 0.024212272,23.5934767 0.024212272,23.0155491 C0.024212272,22.3019922 0.178772803,21.6502369 0.488225539,21.0609512 C0.797678275,20.4716655 1.21393035,19.9475219 1.73731343,19.4885204 C2.26036484,19.029853 2.87064677,18.6329871 3.56849088,18.2985909 C4.26600332,17.9641946 5.00563847,17.6895955 5.78772803,17.4741254 C6.5694859,17.2586552 7.36849088,17.1029823 8.18441128,17.0067724 C9,16.9105624 9.79568823,16.8681365 10.5721393,16.8791606 L10.5721393,14.7034135 C10.5721393,14.1027697 10.5383085,13.5194971 10.4709784,12.9525935 C10.4033167,12.3863581 10.254063,11.8709001 10.0235489,11.4055515 C9.79303483,10.940871 9.43283582,10.5730685 8.94328358,10.3008078 C8.45373134,10.0285471 7.88855721,9.89291788 7.24742952,9.89291788 C6.87595357,9.89291788 6.52172471,9.92431973 6.1840796,9.98612123 C5.84643449,10.0489249 5.51442786,10.1534864 5.18839138,10.3004738 C4.86202322,10.4477952 4.56650083,10.6405491 4.30248756,10.8784014 C4.03781095,11.1162536 3.82155887,11.3998724 3.65273632,11.7279215 C3.82155887,11.9210095 3.93631841,12.133473 3.9986733,12.3653122 C4.06036484,12.5978195 4.09121061,12.8216412 4.09121061,13.0367772 C4.09121061,13.1730746 4.06301824,13.3290816 4.00696517,13.5044643 C3.95058043,13.6798469 3.86334992,13.8445396 3.74527363,13.997206 C3.62719735,14.1505406 3.47562189,14.2751458 3.28955224,14.3713557 C3.10381426,14.4675656 2.85373134,14.5160046 2.53864013,14.5160046 C2.08855721,14.5160046 1.73101161,14.3489735 1.46699834,14.0142432 C1.2026534,13.6808491 1.07064677,13.2756317 1.07064677,12.7995931 L1.07064677,12.7995931 Z M10.5548922,18.0694242 C10.0258706,18.0921404 9.47761194,18.1402454 8.90945274,18.2137391 C8.34129353,18.2875668 7.7840796,18.401148 7.23880597,18.5538144 C6.69286899,18.7071489 6.17810945,18.9022413 5.69452736,19.1404276 C5.2106136,19.3786139 4.78905473,19.6618987 4.42885572,19.9902818 C4.06865672,20.318999 3.78739635,20.6984937 3.58507463,21.1290999 C3.3827529,21.559706 3.29253731,22.0471028 3.31542289,22.590956 C3.32636816,23.0215622 3.4079602,23.3983844 3.55986733,23.7214225 C3.71177446,24.0444606 3.90845771,24.3107082 4.15058043,24.5204993 C4.39237148,24.7302903 4.67064677,24.8889699 4.98606965,24.9965379 C5.30082919,25.1041059 5.6384743,25.1578899 5.9986733,25.1578899 C6.46003317,25.1578899 6.89320066,25.1124575 7.29817579,25.0219266 C7.70348259,24.9313958 8.08855721,24.798105 8.45406302,24.6223882 C8.8199005,24.4470056 9.17412935,24.234542 9.51741294,23.9849976 C9.86036484,23.7361212 10.2063018,23.4471574 10.5552239,23.1181062 L10.5552239,18.0694242 L10.5548922,18.0694242 Z"></path>
                            <path d="M21.1064677,13.3604835 C21.1064677,12.9983601 21.1121061,12.6295554 21.1233831,12.2557398 C21.1343284,11.8819242 21.1737977,11.4967505 21.2414594,11.0998846 L18.7943615,11.2358479 L18.7943615,9.77365768 C19.5475954,9.77365768 20.161194,9.74826895 20.6338308,9.69715743 C21.1064677,9.64604592 21.4859038,9.57589286 21.7731343,9.48469388 C22.0600332,9.39416302 22.2819237,9.29528061 22.439801,9.18704446 C22.5973466,9.0798105 22.7436153,8.96355685 22.878607,8.83861759 L23.8742952,8.83861759 C23.8965174,9.06544582 23.9190713,9.32601433 23.9416252,9.62065719 C23.9641791,9.91563411 23.986733,10.2724125 24.0092869,10.6913265 C24.3578773,10.3970177 24.7349917,10.1220845 25.1399668,9.86686103 C25.544942,9.61197157 25.9638474,9.3908224 26.3973466,9.20408163 C26.8301824,9.0170068 27.2749585,8.87269193 27.7306799,8.7704689 C28.1864013,8.66857993 28.638806,8.61780248 29.0892206,8.61780248 C30.2590381,8.61780248 31.2325041,8.83026603 32.0089552,9.25519315 C32.7854063,9.6797862 33.3930348,10.2496963 33.8315091,10.9632532 C34.2139303,10.63487 34.6358209,10.328869 35.0971808,10.0452502 C35.5585406,9.7619655 36.0364842,9.5127551 36.531675,9.29761905 C37.026534,9.08214893 37.5330017,8.91511783 38.0504146,8.79585763 C38.5681592,8.67726555 39.0742952,8.61780248 39.5694859,8.61780248 C40.5708126,8.61780248 41.439801,8.76512391 42.1767828,9.0594327 C42.9134328,9.35440962 43.5210614,9.81608358 43.9993367,10.4447886 C44.4772803,11.0734937 44.8262023,11.8812561 45.0454395,12.8670736 C45.2650083,13.8528912 45.3631841,15.0314626 45.3409619,16.4024538 L45.307131,22.8959548 C45.307131,23.3606353 45.3011609,23.7711978 45.2902156,24.1279762 C45.2789386,24.4847546 45.239801,24.8619108 45.1721393,25.2584427 L47.3492537,25.1565537 L47.3492537,26.5840015 L40.2945274,26.5840015 L40.2945274,25.5470724 C40.8232172,25.5470724 41.225539,25.4425109 41.5014925,25.2327199 C41.7767828,25.0232629 41.9767828,24.7312925 42.1004975,24.3574769 C42.2242123,23.9833273 42.2945274,23.536018 42.3117745,23.0142128 C42.3286899,22.4930758 42.3369818,21.9211613 42.3369818,21.2974672 L42.3369818,16.4375304 C42.3369818,14.4314869 42.0218905,12.9332179 41.3917081,11.9413873 C40.7615257,10.9498907 39.760199,10.4541424 38.3873964,10.4541424 C37.66733,10.4541424 36.9502488,10.618501 36.2358209,10.9472182 C35.521393,11.2759354 34.8998342,11.6838253 34.3711443,12.1712221 C34.6072968,12.9529276 34.7253731,13.7971028 34.7253731,14.7037476 L34.6577114,22.8966229 C34.6577114,23.3613034 34.652073,23.7718659 34.640796,24.1286443 C34.6295191,24.4854227 34.5903814,24.862579 34.5230514,25.2591108 L36.6998342,25.1572218 L36.6998342,26.5846696 L29.6461028,26.5846696 L29.6461028,25.5477405 C30.1747927,25.5477405 30.5767828,25.4431791 30.8527363,25.233388 C31.1283582,25.023931 31.3253731,24.7319606 31.4434494,24.358145 C31.561194,23.9839954 31.6291874,23.5366861 31.6457711,23.014881 C31.6626866,22.4937439 31.6766169,21.9218294 31.6878939,21.2981353 L31.7217247,16.4368622 C31.7330017,14.4421769 31.4434494,12.9352223 30.8527363,11.9153304 C30.2620232,10.8954385 29.2855721,10.3853256 27.9247098,10.3853256 C27.2159204,10.3853256 26.5154229,10.5413326 25.8235489,10.8530126 C25.131675,11.1646927 24.5436153,11.569576 24.0600332,12.0679968 C24.0600332,12.3399235 24.0626866,12.6318938 24.068325,12.9435739 C24.0739635,13.2555879 24.0766169,13.5869776 24.0766169,13.938077 L24.0766169,22.8966229 C24.0766169,23.3613034 24.0706468,23.7718659 24.0597015,24.1286443 C24.0484245,24.4854227 24.0092869,24.862579 23.9416252,25.2591108 L26.1187396,25.1572218 L26.1187396,26.5846696 L19.0640133,26.5846696 L19.0640133,25.5477405 C19.5930348,25.5477405 19.9950249,25.4431791 20.2709784,25.233388 C20.5466003,25.023931 20.7462687,24.7319606 20.8699834,24.358145 C20.9936982,23.9839954 21.0643449,23.5366861 21.0812604,23.014881 C21.0981758,22.4937439 21.1064677,21.9218294 21.1064677,21.2981353 L21.1064677,13.3604835 L21.1064677,13.3604835 Z"></path>
                            <path d="M51.9260365,4.8275328 C51.9260365,4.46507532 51.9286899,4.11364189 51.9343284,3.77390063 C51.9399668,3.43382532 51.9708126,3.03194849 52.0271973,2.56693392 L49.5800995,2.70323129 L49.5800995,1.24104106 C50.3333333,1.24104106 50.9608624,1.21565233 51.4616915,1.16454082 C51.9621891,1.11376336 52.3701493,1.04294218 52.6852405,0.951743197 C53,0.861212342 53.2474295,0.762663994 53.427529,0.654427843 C53.6076285,0.546859815 53.7651741,0.430940233 53.9001658,0.30566691 L54.8958541,0.30566691 L54.8958541,10.6916606 C55.5373134,10.0455843 56.2991708,9.53881195 57.1830846,9.17034135 C58.0660033,8.80187075 59.0533997,8.61813654 60.144942,8.61813654 C61.2474295,8.61813654 62.2739635,8.82492104 63.2248756,9.23849004 C64.1754561,9.65205904 65.0023217,10.2413448 65.7054726,11.0060131 C66.4082919,11.7710155 66.9598673,12.7003766 67.359204,13.7940962 C67.7585406,14.8878158 67.9585406,16.1141582 67.9585406,17.4741254 C67.9585406,18.9583637 67.7077944,20.2956147 67.2072968,21.4855442 C66.7064677,22.6754738 66.0427861,23.6896866 65.2159204,24.5281827 C64.3890547,25.3666788 63.4325041,26.0127551 62.346932,26.4660775 C61.2613599,26.9187318 60.1389718,27.1458941 58.9804312,27.1458941 C58.5864013,27.1458941 58.1704809,27.1144922 57.7313433,27.0523567 C57.2922056,26.9902211 56.8480929,26.8766399 56.39801,26.7122813 C55.947927,26.5482568 55.5087894,26.3297801 55.081592,26.0578535 C54.6537313,25.7859269 54.2600332,25.4401725 53.9001658,25.0209244 L53.0733002,26.5846696 L51.8583748,26.5846696 L51.9260365,4.8275328 L51.9260365,4.8275328 Z M59.081592,10.3352162 C58.3164179,10.3352162 57.5628524,10.5136054 56.8202322,10.871052 C56.0779436,11.2278304 55.4364842,11.7068756 54.8961857,12.3071854 L54.8961857,21.1120627 C54.8961857,22.0410897 55.0086235,22.8030855 55.2338308,23.3983844 C55.4590381,23.9930151 55.7628524,24.4633746 56.1452736,24.809129 C56.5276949,25.1548834 56.9638474,25.3930697 57.453068,25.523354 C57.9422886,25.6536382 58.4514096,25.7187804 58.9804312,25.7187804 C59.8129353,25.7187804 60.5635158,25.5403912 61.2331675,25.1832787 C61.9028192,24.8261662 62.4706468,24.3220663 62.9379768,23.670311 C63.4046434,23.0188897 63.7648425,22.2401907 64.0182421,21.3335459 C64.2713101,20.4269011 64.39801,19.4237123 64.39801,18.3246477 C64.39801,17.1577685 64.2882255,16.0837585 64.0689884,15.10362 C63.8497512,14.1231475 63.5207297,13.2819789 63.081592,12.579112 C62.6424544,11.8762451 62.0915423,11.3270469 61.4278607,10.930181 C60.7635158,10.5333151 59.9817579,10.3352162 59.081592,10.3352162 L59.081592,10.3352162 Z"></path>
                            <path d="M87.4716418,16.3182702 L75.3034826,16.5223822 C75.2922056,17.8623056 75.3933665,19.0769558 75.6072968,20.1670007 C75.8208955,21.2573797 76.158209,22.188077 76.6199005,22.9597607 C77.0812604,23.7321125 77.6746269,24.3280794 78.4003317,24.7483297 C79.1260365,25.1685799 79.9953566,25.378371 81.0076285,25.378371 C81.5475954,25.378371 82.0988391,25.3042092 82.6613599,25.1558856 C83.2238806,25.007896 83.7668325,24.8057884 84.2898839,24.5492286 C84.8129353,24.2926689 85.293864,23.9853316 85.7330017,23.6258807 C86.1718076,23.2670979 86.5373134,22.8822583 86.8301824,22.4716958 L87.6739635,23.1685496 C87.2013267,23.8941327 86.653068,24.5088071 86.028524,25.0129069 C85.4039801,25.5170068 84.7568823,25.9279033 84.0875622,26.2449283 C83.4179104,26.5622874 82.745937,26.7917881 82.0709784,26.9334305 C81.3956882,27.0750729 80.7655058,27.1462281 80.1807629,27.1462281 C78.9880597,27.1462281 77.8772803,26.930424 76.8474295,26.5001518 C75.8179104,26.0695457 74.9263682,25.4518647 74.1728027,24.6471088 C73.4189055,23.8426871 72.825539,22.8735726 72.3923715,21.7407677 C71.9588723,20.6076288 71.7426202,19.3328474 71.7426202,17.9160897 C71.7426202,16.6924198 71.9505804,15.522534 72.3671642,14.4060982 C72.7830846,13.2899964 73.3737977,12.3011723 74.1393035,11.4399599 C74.9041459,10.5790816 75.8208955,9.89325194 76.8902156,9.38313897 C77.9588723,8.87336006 79.145937,8.6184706 80.4510779,8.6184706 C81.4072968,8.6184706 82.3097844,8.77715015 83.1595357,9.09417517 C84.0092869,9.41186832 84.7545605,9.88757289 85.3956882,10.521957 C86.0371476,11.1566752 86.5432836,11.9584244 86.9144279,12.9272048 C87.2859038,13.8963192 87.4716418,15.0264517 87.4716418,16.3182702 L87.4716418,16.3182702 Z M80.4845771,9.99514091 C79.1343284,9.99514091 78.0205638,10.393009 77.1429519,11.1894133 C76.26534,11.9858175 75.6855721,13.2762998 75.4049751,15.060526 L84.2145937,15.060526 C84.2145937,14.4508625 84.146932,13.8438715 84.012272,13.2392189 C83.8772803,12.6349004 83.6600332,12.0930515 83.3625207,11.6133382 C83.0643449,11.1329568 82.678607,10.7434402 82.2063018,10.4441205 C81.7333333,10.1448008 81.1595357,9.99514091 80.4845771,9.99514091 L80.4845771,9.99514091 Z"></path>
                            <path d="M101.33068,10.521957 C100.892206,10.5109329 100.447098,10.5927782 99.9973466,10.7681608 C99.5472637,10.9442116 99.1054726,11.2021076 98.6723051,11.5418489 C98.2391376,11.8815901 97.8311774,12.2894801 97.4490879,12.7655187 C97.066335,13.2415573 96.7233831,13.7683734 96.4195688,14.345967 L96.4533997,22.8962889 C96.4533997,23.3609694 96.4477612,23.7715318 96.4364842,24.1283103 C96.4252073,24.4850887 96.3860697,24.8622449 96.3187396,25.2587767 L98.4955224,25.1568878 L98.4955224,26.5843355 L91.4072968,26.5843355 L91.4072968,25.5474065 C91.9363184,25.5474065 92.3383085,25.442845 92.614262,25.2330539 C92.8898839,25.0235969 93.0895522,24.7316266 93.213267,24.357811 C93.3369818,23.9836613 93.4076285,23.536352 93.4245439,23.0145469 C93.4414594,22.4934099 93.4497512,21.9214954 93.4497512,21.2978013 L93.4497512,13.3434463 C93.4497512,12.9809888 93.4553897,12.6155248 93.4666667,12.2473882 C93.4776119,11.8792517 93.5170813,11.4967505 93.584743,11.0998846 L91.1376451,11.2021076 L91.1376451,9.77399174 L92.2006633,9.77399174 C92.6955224,9.77399174 93.106136,9.74860301 93.4328358,9.6974915 C93.7588723,9.64671404 94.0321725,9.57622692 94.2514096,9.48502794 C94.4706468,9.39449708 94.6533997,9.29561467 94.7996683,9.18737852 C94.9456053,9.08014456 95.0865672,8.96389091 95.2215589,8.83895165 L96.2172471,8.83895165 C96.2510779,9.2017432 96.281592,9.6523931 96.3101161,10.1902332 C96.3379768,10.7287415 96.3631841,11.4222546 96.3860697,12.2724429 C96.6447761,11.8418367 96.9767828,11.4085581 97.3817579,10.9719388 C97.7870647,10.5356535 98.2424544,10.1448008 98.7489221,9.7990464 C99.2553897,9.45362609 99.800995,9.17000729 100.38607,8.94919218 C100.971144,8.728043 101.572803,8.61780248 102.19204,8.61780248 C102.506799,8.61780248 102.813267,8.66022838 103.111111,8.74508017 C103.408955,8.83026603 103.668325,8.96355685 103.887894,9.14461856 C104.107463,9.32601433 104.284245,9.55284257 104.4199,9.82443513 C104.554561,10.0960277 104.621891,10.425079 104.621891,10.8102527 C104.621891,10.9692663 104.590713,11.1446489 104.529353,11.3370688 C104.466998,11.5301567 104.366169,11.7108844 104.225539,11.8812561 C104.084909,12.0509597 103.907463,12.1932702 103.693532,12.3058491 C103.479602,12.4194303 103.215589,12.4758868 102.900498,12.4758868 C102.641459,12.4758868 102.408292,12.4194303 102.200332,12.3058491 C101.991708,12.1929361 101.817579,12.0482872 101.676949,11.8725705 C101.536318,11.6968537 101.434826,11.4927417 101.373134,11.2605685 C101.310448,11.0293975 101.296849,10.7825255 101.33068,10.521957 L101.33068,10.521957 Z"></path>
                        </g>
                        <g transform="translate(119.402985, 1.002187)">
                            <path d="M2.50812604,12.3582969 C2.50812604,11.9961735 2.51343284,11.6273688 2.52504146,11.2535532 C2.53598673,10.8797376 2.57545605,10.4945639 2.64278607,10.097698 L0.1960199,10.2336613 L0.1960199,8.77147109 C0.949253731,8.77147109 1.5628524,8.74608236 2.03515755,8.69497085 C2.50812604,8.64419339 2.88756219,8.57370627 3.1747927,8.48250729 C3.46169154,8.39197643 3.68391376,8.29309402 3.84145937,8.18485787 C3.99900498,8.07762391 4.13930348,7.96137026 4.26301824,7.836431 L5.27562189,7.836431 C5.29817579,8.06325923 5.32106136,8.3295068 5.34361526,8.63550777 C5.3655058,8.94150875 5.38839138,9.29828717 5.41094527,9.70617711 C5.75953566,9.40017614 6.14494196,9.1168914 6.56650083,8.85632289 C6.98872305,8.59575437 7.4331675,8.37493926 7.90016584,8.19354349 C8.36650083,8.01248178 8.84212272,7.87050534 9.32603648,7.76861638 C9.8092869,7.66672741 10.2932007,7.61594995 10.7771144,7.61594995 C11.7787728,7.61594995 12.7379768,7.8143829 13.6547264,8.21058066 C14.5721393,8.60744655 15.3791045,9.17702259 16.0769486,9.91897473 C16.7741294,10.6612609 17.3310116,11.5679057 17.7475954,12.6385751 C18.1635158,13.7095785 18.3721393,14.9192177 18.3721393,16.2674927 C18.3721393,17.2533103 18.2620232,18.1826713 18.0431177,19.0555758 C17.8235489,19.9281463 17.5170813,20.7298955 17.1233831,21.4604896 C16.7293532,22.1914176 16.2597015,22.8458455 15.7144279,23.4237731 C15.1684909,24.0017007 14.5691542,24.4917699 13.9167496,24.8939808 C13.2643449,25.2961917 12.5694859,25.6048652 11.8328358,25.8203353 C11.0955224,26.0354713 10.3389718,26.1433734 9.5628524,26.1433734 C7.96484245,26.1433734 6.586733,25.7632106 5.4278607,25.0045554 L5.41094527,30.7671283 C5.41094527,31.2318088 5.40497512,31.6420372 5.39402985,31.9991497 C5.38242123,32.3559281 5.34361526,32.7330843 5.27562189,33.1299502 L7.45273632,33.0280612 L7.45273632,34.455509 L0.39800995,34.455509 L0.39800995,33.4185799 C0.927363184,33.4185799 1.32902156,33.3136844 1.60497512,33.1042274 C1.88092869,32.8941023 2.07794362,32.602466 2.19568823,32.2286504 C2.31343284,31.8548348 2.38175788,31.4071914 2.39834163,30.8857204 C2.41492537,30.3642493 2.42885572,29.7923348 2.44046434,29.1689747 L2.50812604,12.3582969 L2.50812604,12.3582969 Z M9.54593698,9.31599247 C9.14029851,9.31599247 8.74660033,9.37011054 8.36451078,9.47767857 C7.98175788,9.5852466 7.61625207,9.72722303 7.26766169,9.90293975 C6.91840796,10.0786565 6.5893864,10.285775 6.28026534,10.5239614 C5.97048093,10.7621477 5.69784411,11.0116922 5.46135987,11.2722607 C5.46135987,11.3631256 5.46401327,11.4686893 5.46965174,11.5872813 C5.47529022,11.7058734 5.47794362,11.907647 5.47794362,12.1915999 L5.47794362,13.3908831 C5.47794362,13.9076774 5.47529022,14.5991861 5.46965174,15.4670797 C5.46368159,16.3356414 5.45870647,17.4156645 5.45273632,18.7088192 C5.44676617,20.0023081 5.44444444,21.5677235 5.44444444,23.4053997 C6.01824212,23.836674 6.64809287,24.1714043 7.33466003,24.4095906 C8.02056385,24.648111 8.74096186,24.7667031 9.49452736,24.7667031 C10.3160862,24.7667031 11.053068,24.5682702 11.7054726,24.1714043 C12.3578773,23.7745384 12.9147595,23.2213314 13.3761194,22.5121173 C13.8374793,21.8029033 14.1917081,20.963405 14.439801,19.9936224 C14.6872305,19.0238399 14.8109453,17.9601859 14.8109453,16.8029944 C14.8109453,15.8616071 14.7124378,14.942602 14.5154229,14.0463132 C14.318408,13.1500243 14.0089552,12.3502794 13.5870647,11.6467444 C13.1651741,10.9432094 12.6225539,10.3789784 11.9585406,9.9537172 C11.2945274,9.52845603 10.4912106,9.31599247 9.54593698,9.31599247 L9.54593698,9.31599247 Z"></path>
                            <path d="M22.9323383,11.7974065 C22.9323383,11.2198129 23.1014925,10.6756256 23.438806,10.1655126 C23.7761194,9.65539966 24.2484245,9.21109694 24.8560531,8.83126822 C25.4636816,8.45177357 26.186733,8.15445821 27.0248756,7.9389881 C27.8623549,7.72351798 28.7771144,7.61594995 29.7671642,7.61594995 C31.7021559,7.61594995 33.1286899,8.13140792 34.0451078,9.16265792 C34.9625207,10.1939079 35.415257,11.8314808 35.4043118,14.0750425 L35.3698176,21.8941023 C35.3698176,22.2568938 35.3615257,22.6223579 35.3446103,22.9901603 C35.3276949,23.358965 35.2915423,23.7805515 35.2351575,24.2565901 L37.6825871,24.1206268 L37.6825871,25.582483 L32.7373134,25.582483 C32.6699834,25.1859512 32.6195688,24.8405309 32.585738,24.5455539 C32.5519071,24.2509111 32.5233831,23.9395651 32.5014925,23.6105138 C31.7247098,24.3925534 30.8779436,25.0102345 29.9615257,25.4635569 C29.0441128,25.9162111 28.0739635,26.1433734 27.0504146,26.1433734 C26.1837479,26.1433734 25.4268657,26.0384779 24.7804312,25.8290209 C24.1333333,25.6192298 23.5963516,25.3275935 23.1688226,24.9534439 C22.7412935,24.5796283 22.4205638,24.1403365 22.2069652,23.6362366 C21.9930348,23.1321368 21.8862355,22.590956 21.8862355,22.0130284 C21.8862355,21.2994716 22.0404643,20.6477162 22.3499171,20.0584305 C22.6593698,19.4691448 23.0759536,18.9450012 23.599005,18.4859998 C24.1223881,18.0273324 24.73267,17.6304665 25.4301824,17.2960702 C26.1273632,16.961674 26.8669983,16.6870748 27.6494196,16.4716047 C28.4311774,16.2561346 29.2301824,16.1004616 30.0457711,16.0042517 C30.8613599,15.9080418 31.6573798,15.8656159 32.4334992,15.8766399 L32.4334992,13.7008929 C32.4334992,13.100249 32.3996683,12.5169764 32.3323383,11.9500729 C32.2650083,11.3838375 32.1154229,10.8683795 31.8852405,10.4030309 C31.6547264,9.93835034 31.2945274,9.57054786 30.8046434,9.29828717 C30.3154229,9.02636054 29.7499171,8.89039723 29.1087894,8.89039723 C28.7376451,8.89039723 28.3830846,8.92179908 28.0457711,8.98360058 C27.708126,9.04640428 27.3757877,9.15096574 27.0500829,9.29795311 C26.7237148,9.44527454 26.4281924,9.63802843 26.1638474,9.87588071 C25.8995025,10.113733 25.6832504,10.3973518 25.5140962,10.7254009 C25.6832504,10.9184888 25.7976783,11.1309524 25.8600332,11.3627915 C25.9217247,11.5952988 25.9525705,11.8191205 25.9525705,12.0342566 C25.9525705,12.1705539 25.9247098,12.326561 25.868325,12.5019436 C25.8119403,12.6773263 25.7250415,12.842019 25.6066335,12.9946854 C25.4888889,13.1480199 25.3373134,13.2726251 25.1512438,13.368835 C24.9651741,13.4650449 24.7154229,13.513484 24.4003317,13.513484 C23.9502488,13.513484 23.5923715,13.3464529 23.3283582,13.0117225 C23.0643449,12.6786625 22.9323383,12.2734451 22.9323383,11.7974065 L22.9323383,11.7974065 Z M32.4165837,17.0672376 C31.8878939,17.0899538 31.3393035,17.1380588 30.7711443,17.2115525 C30.2029851,17.2853802 29.6457711,17.3989614 29.1004975,17.5516278 C28.5545605,17.7049623 28.0401327,17.9000547 27.5562189,18.138241 C27.0723051,18.3764274 26.6507463,18.6597121 26.2905473,18.9880952 C25.9303483,19.3168124 25.6490879,19.6963071 25.4470978,20.1269133 C25.2444444,20.5575194 25.1542289,21.0449162 25.1771144,21.5887694 C25.1880597,22.0193756 25.2696517,22.3961978 25.4218905,22.7192359 C25.573466,23.0422741 25.7704809,23.3085216 26.0126036,23.5183127 C26.2543947,23.7281037 26.53267,23.8867833 26.8477612,23.9943513 C27.1628524,24.1019193 27.5001658,24.1557034 27.8603648,24.1557034 C28.3217247,24.1557034 28.7548922,24.1102709 29.1598673,24.01974 C29.5655058,23.9292092 29.9502488,23.7959184 30.3160862,23.6202017 C30.681592,23.444819 31.0358209,23.2323554 31.3791045,22.982811 C31.7223881,22.7339346 32.068325,22.4449708 32.4169154,22.1159196 L32.4169154,17.0672376 L32.4165837,17.0672376 Z"></path>
                            <path d="M50.8494196,9.51977041 C50.4109453,9.50874636 49.9658375,9.59059159 49.5160862,9.76597425 C49.0660033,9.94202502 48.6242123,10.199921 48.1913765,10.5396623 C47.7578773,10.8797376 47.3499171,11.2872935 46.9678275,11.7633321 C46.5850746,12.2393707 46.2421227,12.7661868 45.9383085,13.3437804 L45.9721393,21.8941023 C45.9721393,22.3587828 45.9661692,22.7693452 45.9552239,23.1261237 C45.9436153,23.4829021 45.9048093,23.8600583 45.8374793,24.2565901 L48.0139303,24.1547012 L48.0139303,25.5821489 L40.9257048,25.5821489 L40.9257048,24.5452199 C41.455058,24.5452199 41.8567164,24.4406584 42.13267,24.2308673 C42.4086235,24.0214103 42.6082919,23.72944 42.7320066,23.3556244 C42.8557214,22.9814747 42.9263682,22.5341655 42.9432836,22.0123603 C42.960199,21.4912233 42.9684909,20.9193088 42.9684909,20.2956147 L42.9684909,12.3412597 C42.9684909,11.9788022 42.9737977,11.6133382 42.9854063,11.2452017 C42.9963516,10.8770651 43.0358209,10.4945639 43.1031509,10.097698 L40.6563847,10.199921 L40.6563847,8.77180515 L41.719403,8.77180515 C42.214262,8.77180515 42.6248756,8.74641642 42.9515755,8.69530491 C43.2772803,8.64452745 43.5509121,8.57404033 43.7698176,8.48284135 C43.9893864,8.3923105 44.1721393,8.29342809 44.318408,8.18519193 C44.4640133,8.07795797 44.6053068,7.96170432 44.7399668,7.83676506 L45.7356551,7.83676506 C45.7694859,8.19955661 45.8003317,8.65020651 45.8288557,9.18804665 C45.8567164,9.72655491 45.8819237,10.420068 45.9048093,11.2702563 C46.1631841,10.8396501 46.4955224,10.4063715 46.9004975,9.96975219 C47.3054726,9.53346696 47.7608624,9.14261419 48.26733,8.79685982 C48.7737977,8.4514395 49.319403,8.1678207 49.9044776,7.94700559 C50.4895522,7.72585641 51.0912106,7.61561589 51.7104478,7.61561589 C52.0252073,7.61561589 52.331675,7.65804179 52.6295191,7.74289359 C52.9273632,7.82807945 53.186733,7.96137026 53.4063018,8.14243197 C53.6258706,8.32382775 53.8026534,8.55065598 53.9383085,8.82224854 C54.0729685,9.09384111 54.1402985,9.42289237 54.1402985,9.80806608 C54.1402985,9.96707969 54.1091211,10.1424623 54.0477612,10.3348822 C53.9854063,10.5279701 53.8845771,10.7086978 53.7439469,10.8790695 C53.6033167,11.0487731 53.4258706,11.1910836 53.2119403,11.3036625 C52.99801,11.4172437 52.7339967,11.4737002 52.4189055,11.4737002 C52.1598673,11.4737002 51.9266998,11.4172437 51.7187396,11.3036625 C51.5101161,11.1907495 51.3359867,11.0461006 51.1953566,10.8703839 C51.0547264,10.6946672 50.9532338,10.4905552 50.8915423,10.2583819 C50.8291874,10.0272109 50.8155887,9.78033892 50.8494196,9.51977041 L50.8494196,9.51977041 Z"></path>
                            <path d="M58.8016584,12.3582969 C58.8016584,11.9961735 58.8099502,11.644406 58.8268657,11.3046647 C58.8437811,10.9649235 58.8799337,10.5627126 58.9363184,10.0980321 L56.4895522,10.2339954 L56.4895522,8.77180515 C57.2427861,8.77180515 57.86733,8.74641642 58.3621891,8.69530491 C58.8570481,8.64419339 59.2626866,8.57404033 59.5774461,8.48284135 C59.8922056,8.3923105 60.1373134,8.29342809 60.3114428,8.18519193 C60.4855721,8.07795797 60.6404643,7.96170432 60.7757877,7.83676506 L61.771476,7.83676506 L61.771476,21.8941023 C61.771476,22.3587828 61.7655058,22.7693452 61.7545605,23.1261237 C61.7429519,23.4829021 61.7041459,23.8600583 61.6361526,24.2565901 L63.813267,24.1547012 L63.813267,25.5821489 L56.7585406,25.5821489 L56.7585406,24.5452199 C57.2878939,24.5452199 57.6895522,24.4406584 57.9655058,24.2308673 C58.2414594,24.0214103 58.4411277,23.72944 58.5648425,23.3556244 C58.6885572,22.9814747 58.759204,22.5341655 58.7761194,22.0123603 C58.7930348,21.4912233 58.8013267,20.9193088 58.8013267,20.2956147 L58.8013267,12.3582969 L58.8016584,12.3582969 Z M62.0925373,2.33008382 C62.0925373,2.61336856 62.038806,2.87961613 61.9320066,3.12882653 C61.8252073,3.37803693 61.6878939,3.59617954 61.5187396,3.78325437 C61.3502488,3.97066327 61.1525705,4.11464407 60.9280265,4.2168671 C60.7034826,4.31909014 60.4666667,4.36986759 60.2192371,4.36986759 C59.9718076,4.36986759 59.7353234,4.31909014 59.5104478,4.2168671 C59.2849088,4.11464407 59.0855721,3.97066327 58.9111111,3.78325437 C58.7369818,3.59617954 58.6013267,3.37803693 58.506136,3.12882653 C58.4102819,2.87961613 58.3621891,2.61336856 58.3621891,2.33008382 C58.3621891,2.0351069 58.413267,1.76050777 58.5144279,1.50528426 C58.6155887,1.25006074 58.7535655,1.02657313 58.9276949,0.833819242 C59.1018242,0.641399417 59.3014925,0.491405491 59.5270315,0.383503401 C59.7519071,0.275935374 59.9933665,0.221817298 60.2527363,0.221817298 C60.5121061,0.221817298 60.7509121,0.275935374 60.9698176,0.383503401 C61.1893864,0.491071429 61.3837479,0.641065355 61.5522388,0.833819242 C61.721393,1.02657313 61.8533997,1.25006074 61.9485904,1.50528426 C62.0444444,1.76050777 62.0925373,2.0351069 62.0925373,2.33008382 L62.0925373,2.33008382 Z"></path>
                            <path d="M73.8079602,24.7670372 C74.2470978,24.7670372 74.6882255,24.7135872 75.13267,24.6063533 C75.5771144,24.4991193 75.9824212,24.3324223 76.347927,24.1062621 C76.7134328,23.880102 77.0119403,23.5948129 77.2424544,23.2500607 C77.4729685,22.9053086 77.5883914,22.4957483 77.5883914,22.0210459 C77.5883914,21.4675049 77.4451078,20.995475 77.158209,20.6056244 C76.8713101,20.2157738 76.4941957,19.8713557 76.0271973,19.5717019 C75.560199,19.2720481 75.025539,19.0037962 74.4238806,18.766612 C73.8222222,18.5290938 73.2092869,18.2858965 72.584743,18.036352 C71.960199,17.7868076 71.3492537,17.5122085 70.7535655,17.2115525 C70.1568823,16.9115646 69.6258706,16.5571246 69.1585406,16.1492347 C68.6912106,15.7413448 68.3144279,15.253948 68.0281924,14.6873785 C67.7412935,14.120809 67.5973466,13.4466715 67.5973466,12.6642979 C67.5973466,12.1775692 67.6872305,11.6417335 67.86733,11.0577928 C68.0474295,10.4745202 68.3621891,9.92766035 68.8126036,9.41754738 C69.2620232,8.90810253 69.86733,8.47983479 70.6271973,8.13441448 C71.3864013,7.78899417 72.3452736,7.61594995 73.5041459,7.61594995 C73.8189055,7.61594995 74.1538972,7.63866618 74.5087894,7.68376458 C74.8630182,7.72919704 75.2258706,7.81137634 75.5970149,7.93030248 C75.9681592,8.04889456 76.3393035,8.2049016 76.7104478,8.39732143 C77.081592,8.59040938 77.4477612,8.82826166 77.8079602,9.11121234 L77.7230514,7.78531948 L79.1747927,7.78531948 L79.1747927,13.8879677 L78.094859,13.8879677 C78.0494196,13.2873239 77.9343284,12.6926931 77.7489221,12.1030734 C77.5628524,11.5141217 77.292869,10.983965 76.9386401,10.5139395 C76.5844113,10.0435799 76.1373134,9.66107872 75.5970149,9.3661018 C75.0567164,9.071793 74.4155887,8.92447157 73.6729685,8.92447157 C73.13267,8.92447157 72.6547264,8.99529276 72.238806,9.13693513 C71.8222222,9.27891156 71.4706468,9.47133139 71.1834163,9.71452867 C70.8965174,9.95839407 70.6799337,10.2390063 70.533665,10.5563654 C70.3873964,10.8737245 70.3150912,11.2087889 70.3150912,11.5598882 C70.3150912,12.1264577 70.4583748,12.6135204 70.7452736,13.0214103 C71.0321725,13.4296344 71.4119403,13.7924259 71.8842454,14.109785 C72.3572139,14.42681 72.8975124,14.7131013 73.5044776,14.9676567 C74.1121061,15.2228802 74.7306799,15.4837828 75.361194,15.7500304 C75.9917081,16.0162779 76.6102819,16.2995627 77.2179104,16.5995505 C77.825539,16.9002065 78.3651741,17.2539784 78.8381426,17.6622024 C79.3104478,18.0704264 79.6905473,18.546131 79.9771144,19.0899842 C80.2640133,19.6338375 80.4079602,20.2799138 80.4079602,21.027879 C80.4079602,21.9004495 80.2331675,22.6594388 79.8845771,23.305181 C79.5359867,23.9509232 79.0772803,24.4837524 78.5094527,24.9030005 C77.9412935,25.3225826 77.3001658,25.6339286 76.5854063,25.8380406 C75.8706468,26.0421526 75.147927,26.1440415 74.4165837,26.1440415 C73.2467662,26.1440415 72.2172471,25.9880345 71.3283582,25.6766885 C70.4394693,25.3653426 69.708126,25.0112366 69.1343284,24.6140367 L69.252073,25.8210034 L67.800995,25.8210034 L67.5983416,19.8376154 L68.6620232,19.8376154 C68.7067993,20.560526 68.8726368,21.2239735 69.1595357,21.827958 C69.4464345,22.4322765 69.8235489,22.9517432 70.2905473,23.3863581 C70.7568823,23.8213071 71.2915423,24.1600462 71.8932007,24.4029094 C72.494859,24.6457726 73.1330017,24.7670372 73.8079602,24.7670372 L73.8079602,24.7670372 Z"></path>
                        </g>
                    </g>
                    <g transform="translate(7.960199, 40.421526)" id="Shape">
                        <g transform="translate(69.983416, 0.000000)" stroke="#F8B744" stroke-width="0.2" fill="#F8B744">
                            <path d="M0.32039801,2.98952259 C0.502819237,2.98584791 0.667993367,2.93607264 0.816583748,2.83919461 C0.964842454,2.74231657 1.09585406,2.62172012 1.20895522,2.47707119 C1.32205638,2.33242225 1.41757877,2.17541302 1.49519071,2.00537536 C1.57247098,1.83533771 1.63349917,1.67565598 1.67728027,1.52599611 L2.03150912,1.52599611 C2.03150912,1.80460398 2.03084577,2.06450437 2.0291874,2.30603134 C2.02719735,2.54755831 2.026534,2.77505466 2.026534,2.98952259 L3.773466,2.98952259 L3.773466,3.39741254 L2.026534,3.41812439 C2.02288557,3.87044461 2.0212272,4.25628644 2.0212272,4.5756499 C2.0212272,4.89534742 2.02056385,5.16226312 2.0185738,5.37606293 C2.01691542,5.59053086 2.01625207,5.75923226 2.01625207,5.8835034 C2.01625207,6.00777454 2.01525705,6.10198008 2.01359867,6.16678814 C2.01160862,6.23126215 2.01094527,6.27301992 2.01094527,6.29172741 L2.01094527,6.32479956 C2.01094527,6.56298591 2.02354892,6.77311103 2.04875622,6.95484086 C2.07396352,7.13690476 2.11708126,7.28957119 2.17810945,7.41384232 C2.23880597,7.5377794 2.31907131,7.63131681 2.4185738,7.69412051 C2.51840796,7.7569242 2.64411277,7.78866011 2.7960199,7.78866011 C2.9747927,7.78866011 3.15190713,7.73420797 3.32769486,7.62530369 C3.50315091,7.51673348 3.65837479,7.36206268 3.7933665,7.1612913 L4.07197347,7.39079203 C3.92006633,7.62196307 3.76882255,7.80302478 3.61890547,7.93397716 C3.46865672,8.06492954 3.32603648,8.16381195 3.19104478,8.22995627 C3.05605307,8.29610058 2.93034826,8.3375243 2.81393035,8.35489553 C2.69718076,8.3719327 2.59535655,8.38028426 2.50746269,8.38028426 C2.40298507,8.38028426 2.29552239,8.3719327 2.18573798,8.35489553 C2.07595357,8.3375243 1.9681592,8.3047862 1.86169154,8.255345 C1.75522388,8.20590379 1.65572139,8.13641885 1.56318408,8.04622206 C1.47031509,7.95602527 1.38839138,7.83977162 1.31741294,7.696793 C1.24676617,7.55414845 1.19104478,7.38077017 1.15058043,7.17665816 C1.11011609,6.97254616 1.09121061,6.73135326 1.09485904,6.45241132 L1.11509121,3.43382532 L0.32039801,3.43883625 L0.32039801,2.98952259 L0.32039801,2.98952259 Z"></path>
                            <path d="M10.1532338,5.13119534 L6.50248756,5.19232872 C6.49917081,5.5945396 6.52968491,5.95900146 6.59369818,6.28571429 C6.65771144,6.61242711 6.75887231,6.89170311 6.89751244,7.12354227 C7.0358209,7.35504738 7.21393035,7.53410471 7.43150912,7.66004616 C7.64908789,7.78598761 7.90978441,7.8487913 8.21359867,7.8487913 C8.37545605,7.8487913 8.54063018,7.8267432 8.70978441,7.78231293 C8.87860697,7.73754859 9.04145937,7.6774174 9.19834163,7.60024903 C9.35555556,7.52341472 9.49950249,7.43087949 9.63150912,7.32331147 C9.7628524,7.21540938 9.87263682,7.10015792 9.96053068,6.97688897 L10.2135987,7.1860119 C10.0716418,7.40348639 9.90713101,7.58822279 9.72006633,7.7392189 C9.53300166,7.89054908 9.33864013,8.01381803 9.13797678,8.10869169 C8.93698176,8.20389942 8.73532338,8.27271623 8.53300166,8.31514213 C8.33034826,8.35790209 8.14129353,8.37894801 7.96583748,8.37894801 C7.6079602,8.37894801 7.27462687,8.314474 6.96583748,8.18519193 C6.65671642,8.05590986 6.3893864,7.87083941 6.16318408,7.62931244 C5.93698176,7.38778547 5.75887231,7.09715136 5.6291874,6.75741011 C5.49950249,6.41766885 5.43416252,6.03516764 5.43416252,5.60990646 C5.43416252,5.24277211 5.49651741,4.8920068 5.62155887,4.55694242 C5.74626866,4.2222121 5.92338308,3.92556487 6.15323383,3.66733479 C6.38242123,3.40910471 6.65771144,3.20298834 6.97844113,3.04998785 C7.29917081,2.89698737 7.65505804,2.82048712 8.04676617,2.82048712 C8.33366501,2.82048712 8.60464345,2.86825802 8.85936982,2.96346574 C9.11409619,3.05833941 9.33764511,3.20131803 9.53001658,3.39173348 C9.72238806,3.58181487 9.87429519,3.82233965 9.98573798,4.11297376 C10.0971808,4.40360787 10.1532338,4.74368319 10.1532338,5.13119534 L10.1532338,5.13119534 Z M8.05704809,3.23439018 C7.65207297,3.23439018 7.31774461,3.35365039 7.05472637,3.59250486 C6.79137645,3.83169339 6.61791045,4.21853741 6.53333333,4.75403912 L9.17645108,4.75403912 C9.17645108,4.57097303 9.15588723,4.38890914 9.11542289,4.20751336 C9.07495854,4.02645165 9.00995025,3.86376336 8.92039801,3.71978256 C8.83084577,3.57580175 8.71542289,3.45887998 8.57379768,3.36901725 C8.4318408,3.27915452 8.25936982,3.23439018 8.05704809,3.23439018 L8.05704809,3.23439018 Z"></path>
                            <path d="M11.6776119,2.98952259 L13.814262,2.98952259 L13.814262,3.3005345 C13.6587065,3.30754981 13.5363184,3.3279276 13.4474295,3.36200194 C13.3575456,3.39607629 13.3044776,3.44952624 13.2878939,3.5223518 C13.2713101,3.59517736 13.2895522,3.69172133 13.3436153,3.81031341 C13.3976783,3.92923955 13.4888889,4.07722911 13.6169154,4.25394801 L14.2192371,5.08008382 C15.0832504,4.01609572 15.5525705,3.44818999 15.6268657,3.37703474 L14.9131012,3.41779033 L14.9131012,2.98952259 L16.614262,2.98952259 L16.614262,3.3005345 C16.4723051,3.34129009 16.3482587,3.39139942 16.2421227,3.45086249 C16.1359867,3.51065962 16.0344942,3.58348518 15.9383085,3.67000729 C15.8421227,3.75686346 15.3552239,4.32710763 14.4776119,5.38107386 L15.9054726,7.17064504 C15.986733,7.27286808 16.0633499,7.37275267 16.1359867,7.47130102 C16.2086235,7.57018343 16.2832504,7.68409864 16.361194,7.81304665 L16.8321725,7.78231293 L16.8321725,8.21058066 L14.8271973,8.21058066 L14.8271973,7.89923469 C14.9114428,7.89923469 14.9860697,7.89021501 15.0500829,7.87150753 C15.1140962,7.85246599 15.1605307,7.82240039 15.1893864,7.77964043 C15.2179104,7.73721453 15.2245439,7.68376458 15.2096186,7.61929057 C15.1946932,7.55481657 15.1512438,7.47631195 15.080597,7.38477891 L13.986733,6.02815233 C13.2812604,7.00027332 12.9127695,7.50704568 12.880597,7.54780126 C12.8484245,7.58855685 12.8139303,7.62931244 12.7767828,7.67006803 C12.7399668,7.71082362 12.6958541,7.75859451 12.6454395,7.81304665 L13.4401327,7.78231293 L13.4401327,8.21058066 L11.6985075,8.21058066 L11.6985075,7.89923469 C11.8029851,7.87217566 11.8961857,7.836431 11.9771144,7.79233479 C12.0580431,7.74823858 12.1349917,7.69211613 12.2072968,7.62396744 C12.2799337,7.55615282 12.7834163,6.91174684 13.7187396,5.69141764 C12.868325,4.54925899 12.4056385,3.90485301 12.3313433,3.75886783 C12.2567164,3.61254859 12.2013267,3.49028183 12.1641791,3.39173348 L11.6779436,3.41712221 L11.6779436,2.98952259 L11.6776119,2.98952259 Z"></path>
                            <path d="M18.0421227,2.98952259 C18.2245439,2.98584791 18.3897181,2.93607264 18.5383085,2.83919461 C18.6865672,2.74231657 18.8175788,2.62172012 18.9306799,2.47707119 C19.0437811,2.33242225 19.1393035,2.17541302 19.2169154,2.00537536 C19.2941957,1.83533771 19.3552239,1.67565598 19.399005,1.52599611 L19.7532338,1.52599611 C19.7532338,1.80460398 19.7525705,2.06450437 19.7509121,2.30603134 C19.7489221,2.54755831 19.7482587,2.77505466 19.7482587,2.98952259 L21.4951907,2.98952259 L21.4951907,3.39741254 L19.7482587,3.41812439 C19.7446103,3.87044461 19.7429519,4.25628644 19.7429519,4.5756499 C19.7429519,4.89534742 19.7422886,5.16226312 19.7402985,5.37606293 C19.7386401,5.59053086 19.7379768,5.75923226 19.7379768,5.8835034 C19.7379768,6.00777454 19.7369818,6.10198008 19.7353234,6.16678814 C19.7333333,6.23126215 19.73267,6.27301992 19.73267,6.29172741 L19.73267,6.32479956 C19.73267,6.56298591 19.7452736,6.77311103 19.7704809,6.95484086 C19.7956882,7.13690476 19.838806,7.28957119 19.8998342,7.41384232 C19.9605307,7.5377794 20.040796,7.63131681 20.1402985,7.69412051 C20.2401327,7.7569242 20.3658375,7.78866011 20.5177446,7.78866011 C20.6965174,7.78866011 20.8736318,7.73420797 21.0494196,7.62530369 C21.2248756,7.51673348 21.3800995,7.36206268 21.5150912,7.1612913 L21.7936982,7.39079203 C21.641791,7.62196307 21.4905473,7.80302478 21.3406302,7.93397716 C21.1903814,8.06492954 21.0477612,8.16381195 20.9127695,8.22995627 C20.7777778,8.29610058 20.652073,8.3375243 20.5356551,8.35489553 C20.4189055,8.3719327 20.3170813,8.38028426 20.2291874,8.38028426 C20.1247098,8.38028426 20.0172471,8.3719327 19.9074627,8.35489553 C19.7976783,8.3375243 19.6898839,8.3047862 19.5834163,8.255345 C19.4769486,8.20590379 19.3774461,8.13641885 19.2849088,8.04622206 C19.1920398,7.95602527 19.1101161,7.83977162 19.0391376,7.696793 C18.9684909,7.55414845 18.9127695,7.38077017 18.8723051,7.17665816 C18.8318408,6.97254616 18.8129353,6.73135326 18.8165837,6.45241132 L18.8368159,3.43382532 L18.0421227,3.43883625 L18.0421227,2.98952259 L18.0421227,2.98952259 Z"></path>
                            <path d="M23.7893864,4.24392614 C23.7893864,4.13535593 23.7920398,4.02945821 23.7970149,3.9279033 C23.80199,3.82568027 23.8129353,3.70508382 23.8298507,3.56577988 L23.0958541,3.60653547 L23.0958541,3.16824587 C23.3220564,3.16824587 23.5091211,3.16056244 23.6577114,3.14519558 C23.8059701,3.13016278 23.9273632,3.10911686 24.0222222,3.08172376 C24.1167496,3.05466472 24.1900498,3.02493319 24.2424544,2.99219509 C24.294859,2.96012512 24.3412935,2.92538265 24.3817579,2.88796769 L24.6802653,2.88796769 L24.6802653,7.10516885 C24.6802653,7.24447279 24.678607,7.36774174 24.6752902,7.47464164 C24.6716418,7.58187561 24.6600332,7.69478863 24.639801,7.81404883 L25.2932007,7.78331511 L25.2932007,8.21158285 L23.1767828,8.21158285 L23.1767828,7.90023688 C23.3356551,7.90023688 23.4560531,7.86883503 23.5386401,7.80603134 C23.6215589,7.74322765 23.681592,7.65570335 23.718408,7.54345845 C23.7555556,7.43121356 23.7767828,7.29725462 23.7817579,7.14057945 C23.786733,6.98423834 23.7890547,6.81286443 23.7890547,6.6257896 L23.7890547,4.24392614 L23.7893864,4.24392614 Z M24.7764511,1.235362 C24.7764511,1.3202138 24.7605307,1.40005466 24.7283582,1.4748846 C24.6961857,1.55004859 24.6547264,1.61519072 24.6043118,1.67131317 C24.5535655,1.72743562 24.4945274,1.7708637 24.4271973,1.80159742 C24.3595357,1.83199708 24.2885572,1.84736395 24.214262,1.84736395 C24.1399668,1.84736395 24.0689884,1.83199708 24.0016584,1.80159742 C23.9339967,1.7708637 23.8739635,1.72743562 23.8218905,1.67131317 C23.7694859,1.61519072 23.7290216,1.55004859 23.7004975,1.4748846 C23.6716418,1.40005466 23.6573798,1.3202138 23.6573798,1.235362 C23.6573798,1.14683552 23.6726368,1.06432216 23.7028192,0.987821914 C23.7333333,0.911321672 23.7747927,0.84417517 23.8268657,0.78638241 C23.8792703,0.72858965 23.9393035,0.683491254 24.0066335,0.651421283 C24.0742952,0.61901725 24.146932,0.602648202 24.2242123,0.602648202 C24.3018242,0.602648202 24.3737977,0.61901725 24.4394693,0.651421283 C24.505141,0.683825316 24.5635158,0.72858965 24.6139303,0.78638241 C24.6643449,0.84417517 24.7041459,0.911321672 24.73267,0.987821914 C24.7621891,1.06465622 24.7764511,1.14716958 24.7764511,1.235362 L24.7764511,1.235362 Z"></path>
                            <path d="M27.4756219,1.68400753 C27.4756219,1.57543732 27.4762852,1.46987366 27.4782753,1.36798469 C27.4799337,1.26576166 27.4888889,1.14549927 27.506136,1.00586127 L26.7718076,1.04661686 L26.7718076,0.608327259 C26.99801,0.608327259 27.1860697,0.600643829 27.3363184,0.58561103 C27.4865672,0.570244169 27.6086235,0.549198251 27.7031509,0.521805151 C27.7976783,0.494746113 27.8719735,0.465014577 27.9260365,0.432610544 C27.9800995,0.400206511 28.027529,0.365464043 28.0679934,0.328049077 L28.3665008,0.328049077 L28.3764511,7.10516885 C28.3764511,7.24447279 28.3731343,7.36774174 28.3665008,7.47464164 C28.3595357,7.58187561 28.345937,7.69478863 28.3260365,7.81404883 L28.9791045,7.78331511 L28.9791045,8.21158285 L26.8630182,8.21158285 L26.8630182,7.90023688 C27.0215589,7.90023688 27.1422886,7.86883503 27.2248756,7.80603134 C27.3074627,7.74322765 27.3674959,7.65570335 27.4046434,7.54345845 C27.441791,7.43121356 27.4630182,7.29725462 27.4676617,7.14057945 C27.4729685,6.98423834 27.4752902,6.81286443 27.4752902,6.6257896 L27.4752902,1.68400753 L27.4756219,1.68400753 Z"></path>
                            <path d="M35.3694859,5.13119534 L31.7187396,5.19232872 C31.7154229,5.5945396 31.745937,5.95900146 31.8099502,6.28571429 C31.8739635,6.61242711 31.9751244,6.89170311 32.1137645,7.12354227 C32.252073,7.35504738 32.4301824,7.53410471 32.6477612,7.66004616 C32.86534,7.78598761 33.1260365,7.8487913 33.4298507,7.8487913 C33.5917081,7.8487913 33.7568823,7.8267432 33.9260365,7.78231293 C34.094859,7.73754859 34.2577114,7.6774174 34.4145937,7.60024903 C34.5718076,7.52341472 34.7157546,7.43087949 34.8477612,7.32331147 C34.9791045,7.21540938 35.0888889,7.10015792 35.1767828,6.97688897 L35.4298507,7.1860119 C35.2878939,7.40348639 35.1233831,7.58822279 34.9363184,7.7392189 C34.7492537,7.89054908 34.5548922,8.01381803 34.3542289,8.10869169 C34.1532338,8.20389942 33.9515755,8.27271623 33.7492537,8.31514213 C33.5466003,8.35790209 33.3575456,8.37894801 33.1820896,8.37894801 C32.8242123,8.37894801 32.4908789,8.314474 32.1820896,8.18519193 C31.8729685,8.05590986 31.6056385,7.87083941 31.3794362,7.62931244 C31.1532338,7.38778547 30.9751244,7.09715136 30.8454395,6.75741011 C30.7157546,6.41766885 30.6504146,6.03516764 30.6504146,5.60990646 C30.6504146,5.24277211 30.7127695,4.8920068 30.8378109,4.55694242 C30.9625207,4.2222121 31.1396352,3.92556487 31.3694859,3.66733479 C31.5986733,3.40910471 31.8739635,3.20298834 32.1946932,3.04998785 C32.5154229,2.89698737 32.8713101,2.82048712 33.2630182,2.82048712 C33.5499171,2.82048712 33.8208955,2.86825802 34.0756219,2.96346574 C34.3303483,3.05833941 34.5538972,3.20131803 34.7462687,3.39173348 C34.9386401,3.58181487 35.0905473,3.82233965 35.20199,4.11297376 C35.3134328,4.40360787 35.3694859,4.74368319 35.3694859,5.13119534 L35.3694859,5.13119534 Z M33.2729685,3.23439018 C32.8679934,3.23439018 32.533665,3.35365039 32.2706468,3.59250486 C32.0072968,3.83169339 31.8338308,4.21853741 31.7492537,4.75403912 L34.3923715,4.75403912 C34.3923715,4.57097303 34.3718076,4.38890914 34.3313433,4.20751336 C34.2908789,4.02645165 34.2258706,3.86376336 34.1363184,3.71978256 C34.0467662,3.57580175 33.9313433,3.45887998 33.7897181,3.36901725 C33.6477612,3.27915452 33.4756219,3.23439018 33.2729685,3.23439018 L33.2729685,3.23439018 Z"></path>
                            <path d="M39.1167496,7.96671526 C39.2484245,7.96671526 39.3807629,7.95034621 39.5140962,7.91827624 C39.6474295,7.88587221 39.7691542,7.83609694 39.8789386,7.76828231 C39.9883914,7.70046769 40.0779436,7.6146137 40.1472637,7.51105442 C40.2165837,7.40749514 40.2510779,7.28489431 40.2510779,7.14224976 C40.2510779,6.97622085 40.2079602,6.83457847 40.1217247,6.71765671 C40.0354892,6.60040087 39.9223881,6.49717566 39.7827529,6.40731293 C39.6424544,6.31711613 39.4822554,6.23694121 39.3018242,6.1654519 C39.1210614,6.09429665 38.9369818,6.02113703 38.7499171,5.94664116 C38.5628524,5.87214529 38.3794362,5.78929786 38.2006633,5.69943513 C38.0215589,5.60923834 37.8620232,5.50300656 37.7223881,5.3807398 C37.5820896,5.25847303 37.4689884,5.11215379 37.3834163,4.94211613 C37.2971808,4.77207847 37.254063,4.56997085 37.254063,4.33545918 C37.254063,4.18913994 37.2809287,4.02879009 37.3349917,3.8537415 C37.3890547,3.67902697 37.4832504,3.51466837 37.6182421,3.36166788 C37.7532338,3.2086674 37.93466,3.08038751 38.1628524,2.97682823 C38.3907131,2.87293489 38.6782753,2.82115525 39.0262023,2.82115525 C39.120398,2.82115525 39.2212272,2.82817055 39.3273632,2.84153304 C39.4334992,2.85522959 39.5422886,2.87995019 39.6537313,2.91569485 C39.7651741,2.9514395 39.8766169,2.99820821 39.9880597,3.05600097 C40.0995025,3.11379373 40.2089552,3.18528304 40.3170813,3.27013484 L40.291874,2.87260083 L40.7270315,2.87260083 L40.7270315,4.70326166 L40.4029851,4.70326166 C40.3893864,4.52320214 40.3545605,4.34447886 40.2991708,4.1674259 C40.2434494,3.99104106 40.1625207,3.83169339 40.0563847,3.69071914 C39.9502488,3.5497449 39.8155887,3.4348275 39.6537313,3.34663508 C39.491874,3.25844266 39.2995025,3.21401239 39.0766169,3.21401239 C38.9147595,3.21401239 38.7711443,3.23539237 38.6461028,3.27781827 C38.521393,3.32024417 38.4159204,3.37803693 38.3300166,3.45119655 C38.2437811,3.52435617 38.1787728,3.60853984 38.1349917,3.70374757 C38.0908789,3.7989553 38.0693201,3.89917396 38.0693201,4.00440355 C38.0693201,4.17444121 38.1121061,4.32042638 38.1983416,4.44302721 C38.2845771,4.56529397 38.3986733,4.67386419 38.5399668,4.76940598 C38.6819237,4.8646137 38.8437811,4.95046769 39.0262023,5.02696793 C39.2086235,5.10346817 39.3940299,5.18197279 39.5830846,5.26147959 C39.7721393,5.34132046 39.9578773,5.42650632 40.1402985,5.51670311 C40.3223881,5.6068999 40.4845771,5.71313168 40.6262023,5.83539845 C40.7681592,5.95766521 40.8819237,6.10064383 40.9678275,6.26366618 C41.054063,6.42668853 41.0971808,6.62044461 41.0971808,6.8449344 C41.0971808,7.1065051 41.0447761,7.33433552 40.9399668,7.52809159 C40.8351575,7.72184767 40.6981758,7.88186346 40.5273632,8.00780491 C40.3568823,8.13341229 40.1645108,8.22694971 39.9505804,8.28808309 C39.7363184,8.34955053 39.5190713,8.37995019 39.2998342,8.37995019 C38.9485904,8.37995019 38.639801,8.33284742 38.3731343,8.23964407 C38.1064677,8.14610666 37.8872305,8.03987488 37.7150912,7.92094874 L37.7505804,8.28307216 L37.3150912,8.28307216 L37.2543947,6.48815598 L37.573466,6.48815598 C37.586733,6.70462828 37.6364842,6.90406341 37.7227197,7.08512512 C37.8089552,7.26652089 37.9220564,7.42219388 38.0616915,7.55247813 C38.2013267,7.68276239 38.3618574,7.78465136 38.5426202,7.85747692 C38.7223881,7.92996842 38.9140962,7.96671526 39.1167496,7.96671526 L39.1167496,7.96671526 Z"></path>
                        </g>
                        <path d="M59.5800995,5 L1.03515755,5" stroke="#F8B744" stroke-width="0.75"></path>
                        <path d="M182.223881,5 L123.680597,5" stroke="#F8B744" stroke-width="0.75"></path>
                        <path d="M0.0573797678,5.569819 C0.0573797678,6.29607021 0.643781095,6.88535593 1.36351575,6.88535593 C2.08490879,6.88535593 2.66965174,6.29573615 2.66965174,5.569819 C2.66965174,4.84323372 2.08457711,4.25428207 1.36351575,4.25428207 C0.64344942,4.25394801 0.0573797678,4.84323372 0.0573797678,5.569819 L0.0573797678,5.569819 Z" fill="#F8B744"></path>
                        <path d="M181.244113,5.569819 C181.244113,6.29607021 181.830514,6.88535593 182.550249,6.88535593 C183.271973,6.88535593 183.856385,6.29573615 183.856385,5.569819 C183.856385,4.84323372 183.271642,4.25428207 182.550249,4.25428207 C181.830514,4.25394801 181.244113,4.84323372 181.244113,5.569819 L181.244113,5.569819 Z" fill="#F8B744"></path>
                    </g>
                </g>
            </g>
        </g>
    </g>
</svg>