<?xml version="1.0" encoding="utf-8"?>
<!-- Generator: Adobe Illustrator 16.0.4, SVG Export Plug-In . SVG Version: 6.00 Build 0)  -->
<!DOCTYPE svg PUBLIC "-//W3C//DTD SVG 1.1//EN" "http://www.w3.org/Graphics/SVG/1.1/DTD/svg11.dtd">
<svg version="1.1" id="Layer_1" xmlns="http://www.w3.org/2000/svg" xmlns:xlink="http://www.w3.org/1999/xlink" x="0px" y="0px"
	 width="200px" height="49px" viewBox="0 0 200 49" enable-background="new 0 0 200 49" xml:space="preserve">
<title>logo</title>
<desc>Created with Sketch.</desc>
<g id="Page-1">
	<g id="logo">
		<g id="Layer_1_1_">
			<g id="Group">
				<g id="Shape">
					<g>
						<path fill="#10293F" d="M1.071,12.8c0-0.578,0.168-1.122,0.506-1.632c0.337-0.51,0.81-0.954,1.417-1.334
							c0.607-0.379,1.331-0.677,2.169-0.893C6,8.726,6.915,8.618,7.905,8.618c1.935,0,3.361,0.516,4.278,1.547
							c0.917,1.031,1.37,2.668,1.359,4.912l-0.034,7.819c0,0.363-0.008,0.729-0.025,1.096c-0.017,0.369-0.054,0.791-0.109,1.267
							l2.447-0.137v1.462h-4.945c-0.067-0.396-0.118-0.741-0.152-1.036s-0.062-0.607-0.084-0.936c-0.777,0.782-1.624,1.4-2.54,1.854
							c-0.917,0.451-1.887,0.68-2.911,0.68c-0.866,0-1.624-0.105-2.27-0.314c-0.647-0.211-1.184-0.502-1.612-0.876
							c-0.427-0.374-0.748-0.813-0.962-1.317s-0.32-1.045-0.32-1.623c0-0.713,0.154-1.365,0.464-1.955s0.726-1.113,1.249-1.572
							c0.523-0.459,1.133-0.856,1.831-1.19c0.698-0.334,1.438-0.609,2.219-0.824s1.581-0.371,2.397-0.467
							c0.815-0.096,1.611-0.139,2.388-0.127v-2.176c0-0.601-0.034-1.184-0.101-1.751c-0.068-0.566-0.217-1.082-0.448-1.547
							c-0.23-0.465-0.591-0.833-1.08-1.105c-0.49-0.272-1.055-0.408-1.696-0.408c-0.372,0-0.726,0.031-1.063,0.093
							c-0.338,0.062-0.669,0.167-0.996,0.314c-0.327,0.147-0.622,0.34-0.886,0.578c-0.265,0.238-0.48,0.521-0.649,0.85
							c0.169,0.193,0.284,0.405,0.346,0.637c0.062,0.232,0.093,0.457,0.093,0.671c0,0.137-0.028,0.292-0.084,0.468
							s-0.144,0.34-0.262,0.493c-0.118,0.153-0.27,0.278-0.456,0.375c-0.186,0.096-0.436,0.145-0.751,0.145
							c-0.45,0-0.808-0.167-1.072-0.502C1.203,13.681,1.071,13.276,1.071,12.8L1.071,12.8z M10.555,18.069
							c-0.529,0.023-1.077,0.071-1.645,0.145c-0.568,0.074-1.125,0.187-1.671,0.34c-0.546,0.153-1.061,0.349-1.544,0.587
							c-0.484,0.238-0.905,0.521-1.266,0.85c-0.36,0.329-0.641,0.708-0.844,1.139c-0.202,0.431-0.292,0.918-0.27,1.462
							c0.011,0.431,0.093,0.808,0.245,1.13c0.152,0.323,0.349,0.589,0.59,0.799c0.242,0.21,0.52,0.369,0.835,0.476
							c0.315,0.107,0.653,0.162,1.013,0.162c0.461,0,0.895-0.046,1.3-0.137c0.405-0.09,0.79-0.223,1.156-0.399
							s0.72-0.388,1.063-0.638c0.343-0.249,0.689-0.538,1.038-0.867L10.555,18.069L10.555,18.069z"/>
						<path fill="#10293F" d="M21.106,13.36c0-0.362,0.006-0.731,0.017-1.104c0.011-0.374,0.05-0.759,0.118-1.156l-2.447,0.136
							V9.774c0.753,0,1.367-0.025,1.839-0.077s0.852-0.122,1.139-0.212s0.509-0.189,0.667-0.298
							c0.157-0.107,0.304-0.224,0.438-0.349h0.996c0.022,0.227,0.044,0.488,0.067,0.782c0.023,0.295,0.045,0.652,0.068,1.071
							c0.349-0.294,0.726-0.569,1.131-0.825c0.405-0.255,0.824-0.476,1.257-0.663c0.433-0.187,0.877-0.332,1.333-0.434
							c0.456-0.102,0.908-0.153,1.359-0.153c1.17,0,2.143,0.212,2.919,0.638c0.777,0.424,1.384,0.994,1.823,1.708
							c0.382-0.329,0.804-0.635,1.266-0.918s0.939-0.533,1.435-0.748c0.495-0.215,1.001-0.382,1.519-0.501
							c0.518-0.119,1.024-0.178,1.519-0.178c1.001,0,1.871,0.147,2.607,0.442c0.737,0.295,1.344,0.756,1.823,1.385
							c0.478,0.629,0.827,1.437,1.046,2.422c0.22,0.986,0.318,2.164,0.295,3.535l-0.034,6.494c0,0.465-0.006,0.875-0.017,1.232
							s-0.05,0.734-0.118,1.13l2.177-0.102v1.428h-7.055v-1.037c0.529,0,0.931-0.104,1.207-0.314
							c0.275-0.209,0.475-0.501,0.599-0.875c0.124-0.374,0.194-0.821,0.211-1.343c0.017-0.521,0.025-1.093,0.025-1.717v-4.86
							c0-2.006-0.315-3.504-0.945-4.496c-0.63-0.992-1.631-1.487-3.004-1.487c-0.72,0-1.437,0.165-2.151,0.493
							s-1.336,0.737-1.865,1.224c0.236,0.782,0.354,1.626,0.354,2.532l-0.068,8.193c0,0.465-0.006,0.875-0.017,1.232
							c-0.011,0.357-0.05,0.734-0.118,1.131l2.177-0.103v1.427h-7.054v-1.036c0.529,0,0.931-0.104,1.207-0.314
							s0.473-0.501,0.591-0.875c0.118-0.374,0.186-0.821,0.203-1.343s0.031-1.093,0.042-1.717l0.034-4.861
							c0.011-1.995-0.278-3.502-0.869-4.521c-0.59-1.02-1.567-1.53-2.928-1.53c-0.709,0-1.409,0.156-2.101,0.468
							s-1.28,0.717-1.764,1.215c0,0.272,0.002,0.564,0.008,0.876c0.005,0.312,0.008,0.643,0.008,0.994v8.958
							c0,0.465-0.006,0.875-0.017,1.232c-0.011,0.357-0.05,0.734-0.118,1.131l2.177-0.103v1.427h-7.055v-1.036
							c0.529,0,0.931-0.104,1.207-0.314c0.275-0.21,0.475-0.501,0.599-0.875c0.124-0.374,0.194-0.821,0.211-1.343
							c0.017-0.521,0.025-1.093,0.025-1.717V13.36L21.106,13.36z"/>
						<path fill="#10293F" d="M51.926,4.828c0-0.362,0.002-0.714,0.008-1.054c0.006-0.34,0.037-0.742,0.093-1.207L49.58,2.703V1.241
							c0.753,0,1.381-0.025,1.882-0.077c0.5-0.051,0.908-0.122,1.223-0.213c0.315-0.09,0.562-0.189,0.743-0.297
							c0.18-0.107,0.337-0.223,0.473-0.349h0.996v10.386c0.641-0.646,1.403-1.153,2.287-1.521c0.883-0.369,1.87-0.552,2.962-0.552
							c1.103,0,2.129,0.207,3.08,0.62c0.95,0.414,1.777,1.003,2.48,1.768c0.703,0.765,1.254,1.694,1.654,2.788
							c0.399,1.094,0.599,2.32,0.599,3.68c0,1.484-0.25,2.821-0.751,4.011c-0.501,1.19-1.165,2.205-1.992,3.043
							c-0.827,0.839-1.783,1.484-2.869,1.938c-1.086,0.451-2.208,0.68-3.367,0.68c-0.394,0-0.81-0.031-1.249-0.094
							c-0.439-0.062-0.883-0.176-1.333-0.34s-0.889-0.383-1.316-0.654c-0.428-0.272-0.821-0.619-1.181-1.037l-0.827,1.562h-1.215
							L51.926,4.828L51.926,4.828z M59.082,10.335c-0.765,0-1.519,0.178-2.261,0.536c-0.742,0.357-1.384,0.836-1.924,1.436v8.805
							c0,0.929,0.113,1.691,0.338,2.287c0.225,0.595,0.529,1.065,0.912,1.411c0.382,0.345,0.818,0.583,1.308,0.714
							s0.998,0.195,1.527,0.195c0.833,0,1.583-0.178,2.253-0.535c0.669-0.357,1.237-0.861,1.705-1.513
							c0.467-0.651,0.827-1.43,1.08-2.337s0.38-1.91,0.38-3.009c0-1.167-0.11-2.241-0.329-3.221
							c-0.219-0.98-0.548-1.822-0.987-2.524s-0.99-1.252-1.654-1.649C60.764,10.533,59.982,10.335,59.082,10.335L59.082,10.335z"/>
						<path fill="#10293F" d="M87.472,16.318l-12.168,0.204c-0.012,1.34,0.09,2.555,0.304,3.645c0.213,1.09,0.551,2.021,1.013,2.793
							c0.461,0.772,1.055,1.368,1.78,1.789c0.726,0.419,1.595,0.63,2.607,0.63c0.54,0,1.091-0.074,1.653-0.223
							c0.563-0.148,1.105-0.351,1.629-0.607c0.523-0.257,1.004-0.564,1.443-0.923c0.439-0.359,0.804-0.744,1.097-1.154l0.844,0.697
							c-0.473,0.726-1.021,1.34-1.646,1.844c-0.625,0.505-1.271,0.915-1.941,1.232s-1.341,0.547-2.017,0.688
							s-1.305,0.213-1.89,0.213c-1.192,0-2.303-0.217-3.333-0.646c-1.03-0.431-1.921-1.049-2.675-1.853
							c-0.754-0.804-1.347-1.773-1.78-2.906c-0.434-1.133-0.65-2.408-0.65-3.825c0-1.224,0.208-2.394,0.625-3.51
							c0.416-1.116,1.007-2.105,1.772-2.966c0.765-0.861,1.682-1.547,2.751-2.057c1.069-0.51,2.256-0.765,3.561-0.765
							c0.956,0,1.858,0.159,2.708,0.476c0.85,0.317,1.595,0.793,2.236,1.428c0.642,0.635,1.148,1.437,1.519,2.405
							C87.286,13.896,87.472,15.026,87.472,16.318L87.472,16.318z M80.484,9.995c-1.35,0-2.464,0.398-3.341,1.194
							c-0.878,0.796-1.458,2.087-1.738,3.871h8.81c0-0.61-0.067-1.217-0.202-1.821s-0.352-1.146-0.65-1.626
							c-0.298-0.48-0.684-0.87-1.156-1.169C81.733,10.145,81.16,9.995,80.484,9.995L80.484,9.995z"/>
						<path fill="#10293F" d="M101.33,10.522c-0.438-0.011-0.883,0.071-1.333,0.246c-0.45,0.176-0.892,0.434-1.325,0.774
							c-0.433,0.339-0.841,0.748-1.223,1.224c-0.383,0.476-0.726,1.003-1.03,1.581l0.034,8.55c0,0.464-0.006,0.875-0.017,1.232
							c-0.011,0.356-0.05,0.734-0.118,1.13l2.177-0.103v1.428h-7.088v-1.037c0.529,0,0.931-0.104,1.207-0.314
							c0.275-0.209,0.475-0.501,0.599-0.875c0.124-0.374,0.194-0.821,0.211-1.343c0.017-0.521,0.025-1.093,0.025-1.717v-7.955
							c0-0.362,0.006-0.728,0.017-1.096c0.011-0.368,0.05-0.751,0.118-1.147l-2.447,0.102V9.774h1.063
							c0.495,0,0.905-0.025,1.232-0.076c0.326-0.051,0.6-0.122,0.819-0.213c0.219-0.09,0.402-0.189,0.548-0.297
							c0.146-0.107,0.287-0.224,0.422-0.349h0.996c0.034,0.363,0.064,0.813,0.093,1.352c0.028,0.539,0.053,1.232,0.076,2.082
							c0.259-0.431,0.59-0.864,0.996-1.3s0.861-0.827,1.367-1.173s1.052-0.629,1.637-0.85c0.584-0.221,1.186-0.332,1.805-0.332
							c0.315,0,0.622,0.042,0.92,0.127s0.557,0.218,0.776,0.399c0.22,0.182,0.396,0.408,0.532,0.68
							c0.135,0.271,0.202,0.601,0.202,0.985c0,0.159-0.031,0.334-0.093,0.527c-0.062,0.193-0.163,0.374-0.304,0.544
							c-0.141,0.169-0.317,0.312-0.532,0.424c-0.214,0.114-0.478,0.17-0.793,0.17c-0.259,0-0.492-0.057-0.7-0.17
							c-0.208-0.113-0.383-0.257-0.523-0.433s-0.241-0.38-0.304-0.612C101.311,11.029,101.297,10.783,101.33,10.522L101.33,10.522z"
							/>
					</g>
					<g transform="translate(119.402985, 1.002187)">
						<path fill="#10293F" d="M2.508,12.358c0-0.362,0.005-0.731,0.017-1.104c0.012-0.374,0.051-0.759,0.118-1.156l-2.446,0.136
							V8.772c0.752,0,1.366-0.025,1.838-0.077c0.474-0.051,0.854-0.122,1.141-0.212s0.509-0.189,0.666-0.298
							C3.999,8.077,4.14,7.961,4.263,7.836h1.013c0.022,0.227,0.046,0.493,0.067,0.799c0.022,0.306,0.045,0.663,0.068,1.071
							C5.759,9.4,6.145,9.117,6.566,8.856C6.989,8.596,7.433,8.375,7.9,8.194S8.842,7.87,9.326,7.769
							c0.484-0.102,0.968-0.153,1.451-0.153c1.002,0,1.961,0.198,2.878,0.595c0.917,0.397,1.725,0.966,2.423,1.708
							c0.697,0.742,1.254,1.649,1.67,2.719c0.416,1.071,0.625,2.281,0.625,3.629c0,0.986-0.11,1.916-0.329,2.788
							c-0.22,0.873-0.526,1.674-0.92,2.405s-0.864,1.385-1.409,1.963c-0.546,0.578-1.145,1.068-1.797,1.471
							s-1.348,0.711-2.084,0.926c-0.738,0.215-1.494,0.323-2.271,0.323c-1.599,0-2.976-0.38-4.135-1.139l-0.017,5.763
							c0,0.465-0.006,0.875-0.018,1.232c-0.012,0.355-0.051,0.733-0.118,1.131l2.177-0.103v1.427H0.398v-1.036
							c0.529,0,0.932-0.104,1.207-0.314s0.473-0.502,0.591-0.876c0.118-0.373,0.187-0.821,0.202-1.342
							c0.018-0.521,0.031-1.094,0.043-1.717L2.508,12.358L2.508,12.358z M9.546,9.316c-0.406,0-0.8,0.054-1.182,0.162
							c-0.383,0.107-0.748,0.25-1.098,0.425c-0.349,0.176-0.678,0.383-0.986,0.621c-0.311,0.238-0.582,0.488-0.819,0.748
							c0,0.091,0.003,0.196,0.009,0.315s0.008,0.32,0.008,0.604v1.199c0,0.517-0.002,1.208-0.008,2.076
							c-0.006,0.869-0.012,1.949-0.018,3.242c-0.006,1.293-0.008,2.859-0.008,4.697c0.574,0.431,1.203,0.766,1.891,1.004
							c0.686,0.238,1.406,0.357,2.159,0.357c0.821,0,1.559-0.199,2.211-0.596c0.652-0.397,1.21-0.95,1.671-1.66
							c0.461-0.709,0.815-1.549,1.063-2.519c0.247-0.97,0.371-2.033,0.371-3.19c0-0.941-0.099-1.86-0.296-2.757
							c-0.197-0.896-0.506-1.696-0.928-2.399s-0.965-1.268-1.629-1.693S10.492,9.316,9.546,9.316L9.546,9.316z"/>
						<path fill="#10293F" d="M22.933,11.798c0-0.578,0.168-1.122,0.506-1.632c0.338-0.51,0.81-0.954,1.418-1.334
							c0.607-0.379,1.33-0.677,2.168-0.893c0.838-0.215,1.752-0.323,2.742-0.323c1.936,0,3.361,0.516,4.278,1.547
							s1.37,2.668,1.358,4.912l-0.033,7.819c0,0.363-0.009,0.728-0.025,1.096c-0.018,0.369-0.054,0.791-0.109,1.267l2.447-0.136
							v1.461h-4.945c-0.068-0.396-0.118-0.741-0.152-1.036c-0.033-0.295-0.062-0.606-0.084-0.935
							c-0.776,0.782-1.623,1.399-2.539,1.853c-0.918,0.452-1.889,0.68-2.912,0.68c-0.866,0-1.623-0.104-2.27-0.314
							c-0.647-0.21-1.184-0.501-1.611-0.876c-0.428-0.373-0.748-0.812-0.963-1.317c-0.213-0.504-0.32-1.045-0.32-1.623
							c0-0.713,0.154-1.365,0.464-1.955s0.726-1.113,1.249-1.572c0.523-0.458,1.134-0.855,1.831-1.19s1.437-0.609,2.22-0.825
							c0.781-0.215,1.58-0.371,2.396-0.467c0.814-0.096,1.611-0.139,2.387-0.127v-2.176c0-0.601-0.033-1.184-0.101-1.751
							c-0.067-0.566-0.217-1.082-0.447-1.547c-0.23-0.465-0.591-0.833-1.081-1.105c-0.488-0.271-1.055-0.408-1.695-0.408
							c-0.371,0-0.726,0.031-1.062,0.093c-0.338,0.062-0.67,0.167-0.996,0.314s-0.622,0.34-0.887,0.578
							c-0.264,0.238-0.48,0.521-0.649,0.85c0.169,0.193,0.284,0.406,0.347,0.637c0.061,0.233,0.092,0.457,0.092,0.672
							c0,0.136-0.027,0.292-0.084,0.468c-0.057,0.175-0.144,0.34-0.262,0.493c-0.117,0.153-0.27,0.278-0.455,0.374
							c-0.187,0.096-0.436,0.145-0.752,0.145c-0.449,0-0.807-0.167-1.071-0.501C23.064,12.678,22.933,12.274,22.933,11.798
							L22.933,11.798z M32.416,17.067c-0.528,0.023-1.077,0.071-1.646,0.145s-1.125,0.188-1.67,0.34
							c-0.547,0.153-1.061,0.349-1.545,0.587c-0.484,0.238-0.905,0.521-1.266,0.85c-0.359,0.329-0.641,0.708-0.844,1.139
							c-0.202,0.431-0.293,0.918-0.27,1.462c0.011,0.431,0.093,0.808,0.244,1.13c0.152,0.323,0.35,0.589,0.592,0.799
							c0.241,0.21,0.52,0.369,0.835,0.476c0.315,0.107,0.652,0.162,1.013,0.162c0.461,0,0.895-0.046,1.299-0.137
							c0.406-0.09,0.791-0.223,1.156-0.399s0.721-0.388,1.063-0.638c0.343-0.249,0.688-0.538,1.038-0.867L32.416,17.067
							L32.416,17.067z"/>
						<path fill="#10293F" d="M50.849,9.52c-0.438-0.011-0.883,0.071-1.333,0.246c-0.45,0.176-0.892,0.434-1.325,0.774
							s-0.841,0.748-1.223,1.224c-0.383,0.476-0.727,1.003-1.029,1.581l0.033,8.55c0,0.464-0.006,0.875-0.017,1.232
							c-0.012,0.356-0.051,0.734-0.118,1.13l2.177-0.103v1.428h-7.089v-1.037c0.529,0,0.932-0.104,1.207-0.314
							c0.276-0.209,0.477-0.501,0.6-0.875c0.124-0.374,0.195-0.821,0.211-1.343c0.018-0.521,0.025-1.093,0.025-1.717v-7.955
							c0-0.362,0.006-0.728,0.018-1.096c0.011-0.368,0.051-0.751,0.117-1.147L40.657,10.2V8.772h1.063
							c0.494,0,0.904-0.025,1.231-0.076c0.325-0.051,0.6-0.122,0.818-0.213c0.22-0.09,0.402-0.189,0.548-0.297
							c0.146-0.107,0.287-0.224,0.422-0.349h0.996c0.033,0.363,0.064,0.813,0.094,1.352c0.027,0.539,0.053,1.232,0.075,2.082
							c0.259-0.431,0.591-0.864,0.996-1.3s0.86-0.827,1.366-1.173c0.507-0.346,1.053-0.629,1.638-0.85
							c0.585-0.221,1.187-0.332,1.806-0.332c0.314,0,0.621,0.042,0.92,0.127c0.297,0.085,0.557,0.218,0.775,0.399
							c0.221,0.182,0.396,0.408,0.533,0.68c0.135,0.271,0.201,0.601,0.201,0.985c0,0.159-0.031,0.334-0.092,0.527
							c-0.062,0.193-0.164,0.374-0.305,0.544c-0.141,0.169-0.318,0.312-0.531,0.424c-0.215,0.114-0.479,0.17-0.793,0.17
							c-0.26,0-0.492-0.057-0.701-0.17c-0.208-0.113-0.383-0.257-0.523-0.433s-0.241-0.38-0.303-0.612
							C50.829,10.027,50.816,9.781,50.849,9.52L50.849,9.52z"/>
						<path fill="#10293F" d="M58.802,12.358c0-0.362,0.008-0.714,0.025-1.053c0.016-0.34,0.053-0.742,0.109-1.207l-2.447,0.136
							V8.772c0.754,0,1.378-0.025,1.873-0.076c0.494-0.051,0.9-0.122,1.215-0.213c0.314-0.09,0.561-0.189,0.734-0.297
							c0.174-0.107,0.328-0.224,0.464-0.349h0.995v14.058c0,0.464-0.006,0.875-0.016,1.232c-0.012,0.356-0.051,0.734-0.119,1.13
							l2.178-0.103v1.428h-7.055v-1.037c0.529,0,0.93-0.104,1.207-0.314c0.275-0.209,0.475-0.501,0.599-0.875
							c0.124-0.374,0.194-0.821,0.212-1.343c0.016-0.521,0.024-1.093,0.024-1.717L58.802,12.358L58.802,12.358z M62.093,2.33
							c0,0.283-0.055,0.549-0.161,0.798c-0.106,0.25-0.244,0.467-0.413,0.655c-0.168,0.187-0.366,0.331-0.591,0.434
							c-0.225,0.102-0.462,0.153-0.709,0.153s-0.483-0.051-0.708-0.153c-0.227-0.103-0.426-0.247-0.6-0.434
							c-0.174-0.188-0.311-0.405-0.405-0.655C58.41,2.88,58.363,2.614,58.363,2.33c0-0.295,0.051-0.57,0.152-0.825
							c0.101-0.255,0.238-0.479,0.412-0.671c0.175-0.192,0.375-0.342,0.6-0.45c0.225-0.107,0.467-0.162,0.727-0.162
							c0.259,0,0.498,0.054,0.717,0.162s0.414,0.257,0.582,0.45c0.17,0.193,0.301,0.417,0.396,0.671
							C62.044,1.76,62.093,2.035,62.093,2.33L62.093,2.33z"/>
						<path fill="#10293F" d="M73.808,24.767c0.439,0,0.881-0.054,1.324-0.161c0.445-0.106,0.85-0.274,1.216-0.5
							c0.365-0.226,0.664-0.511,0.895-0.856s0.346-0.754,0.346-1.229c0-0.554-0.144-1.026-0.431-1.416
							c-0.286-0.39-0.664-0.734-1.131-1.034c-0.467-0.299-1.001-0.568-1.604-0.805c-0.602-0.238-1.214-0.481-1.838-0.73
							c-0.625-0.25-1.236-0.524-1.832-0.825s-1.127-0.655-1.595-1.062s-0.845-0.895-1.13-1.462
							c-0.287-0.566-0.432-1.241-0.432-2.023c0-0.487,0.09-1.022,0.271-1.606c0.18-0.583,0.495-1.13,0.945-1.64
							c0.449-0.51,1.055-0.938,1.814-1.283c0.759-0.346,1.718-0.519,2.877-0.519c0.314,0,0.649,0.023,1.005,0.068
							c0.354,0.045,0.717,0.127,1.088,0.247c0.371,0.119,0.742,0.274,1.113,0.467c0.371,0.193,0.737,0.431,1.098,0.714l-0.085-1.326
							h1.452v6.103h-1.08c-0.045-0.601-0.16-1.195-0.346-1.785c-0.187-0.589-0.457-1.119-0.811-1.589
							c-0.354-0.47-0.801-0.853-1.342-1.148c-0.541-0.294-1.182-0.441-1.924-0.441c-0.541,0-1.019,0.071-1.435,0.212
							c-0.417,0.142-0.769,0.334-1.056,0.578c-0.287,0.244-0.503,0.524-0.649,0.842c-0.146,0.317-0.218,0.652-0.218,1.003
							c0,0.566,0.143,1.054,0.43,1.461c0.287,0.408,0.666,0.771,1.139,1.088s1.014,0.604,1.621,0.858
							c0.607,0.255,1.226,0.516,1.855,0.783c0.631,0.266,1.25,0.549,1.857,0.849c0.607,0.301,1.146,0.655,1.62,1.063
							c0.472,0.408,0.853,0.884,1.139,1.428c0.287,0.544,0.431,1.19,0.431,1.938c0,0.873-0.174,1.631-0.523,2.277
							c-0.348,0.646-0.807,1.179-1.375,1.598s-1.209,0.731-1.924,0.935c-0.715,0.205-1.438,0.307-2.169,0.307
							c-1.169,0-2.199-0.156-3.088-0.468c-0.89-0.312-1.62-0.665-2.194-1.062l0.118,1.207h-1.451l-0.202-5.983h1.062
							c0.045,0.723,0.211,1.386,0.498,1.99c0.287,0.604,0.664,1.124,1.131,1.559c0.467,0.435,1.001,0.773,1.604,1.017
							C72.495,24.646,73.133,24.767,73.808,24.767L73.808,24.767z"/>
					</g>
				</g>
				<g id="Shape_1_" transform="translate(7.960199, 40.421526)">
					<g transform="translate(69.983416, 0.000000)">
						<path fill="#F8B744" stroke="#F8B744" stroke-width="0.2" d="M0.321,2.99c0.182-0.004,0.348-0.054,0.496-0.15
							s0.279-0.218,0.392-0.362c0.113-0.145,0.209-0.301,0.287-0.472c0.077-0.17,0.138-0.329,0.182-0.479h0.354
							c0,0.279,0,0.539-0.002,0.78S2.027,2.776,2.027,2.99h1.747v0.407L2.027,3.418C2.023,3.87,2.021,4.256,2.021,4.576
							s0,0.587-0.002,0.8C2.017,5.59,2.016,5.759,2.016,5.883c0,0.125-0.001,0.219-0.003,0.283S2.011,6.273,2.011,6.291v0.033
							c0,0.238,0.013,0.449,0.038,0.631c0.025,0.182,0.068,0.334,0.129,0.459c0.061,0.123,0.141,0.217,0.241,0.279
							s0.226,0.095,0.377,0.095c0.179,0,0.356-0.054,0.532-0.163c0.175-0.109,0.331-0.264,0.465-0.464l0.279,0.229
							C3.92,7.621,3.769,7.803,3.619,7.934c-0.15,0.131-0.293,0.23-0.428,0.296C3.056,8.296,2.93,8.338,2.814,8.355
							S2.595,8.38,2.508,8.38c-0.104,0-0.212-0.009-0.322-0.025s-0.218-0.05-0.324-0.1S1.656,8.137,1.563,8.046
							C1.47,7.955,1.388,7.84,1.318,7.697C1.247,7.554,1.191,7.381,1.151,7.176C1.11,6.973,1.091,6.731,1.095,6.452l0.02-3.019
							L0.321,3.439V2.99L0.321,2.99z"/>
						<path fill="#F8B744" stroke="#F8B744" stroke-width="0.2" d="M10.153,5.131l-3.65,0.061C6.499,5.594,6.53,5.959,6.594,6.285
							c0.064,0.326,0.166,0.605,0.304,0.838c0.138,0.231,0.316,0.41,0.534,0.537C7.649,7.785,7.91,7.849,8.214,7.849
							c0.162,0,0.327-0.022,0.496-0.067C8.879,7.738,9.041,7.678,9.198,7.6c0.157-0.076,0.301-0.169,0.433-0.277
							C9.763,7.215,9.873,7.1,9.961,6.977l0.253,0.209C10.072,7.404,9.907,7.588,9.72,7.739c-0.187,0.152-0.381,0.275-0.582,0.37
							C8.937,8.203,8.735,8.273,8.533,8.315C8.33,8.358,8.141,8.379,7.966,8.379c-0.358,0-0.691-0.064-1-0.193
							c-0.31-0.13-0.577-0.314-0.803-0.557C5.937,7.387,5.759,7.097,5.629,6.757C5.499,6.418,5.434,6.035,5.434,5.61
							c0-0.367,0.062-0.718,0.187-1.053s0.302-0.631,0.532-0.89S6.658,3.203,6.978,3.05c0.321-0.153,0.677-0.229,1.068-0.229
							c0.287,0,0.558,0.047,0.813,0.143c0.254,0.096,0.478,0.238,0.67,0.428c0.192,0.191,0.344,0.432,0.456,0.723
							C10.097,4.404,10.153,4.743,10.153,5.131L10.153,5.131z M8.057,3.235c-0.405,0-0.739,0.119-1.002,0.357
							c-0.264,0.24-0.437,0.627-0.521,1.162h2.643c0-0.184-0.021-0.365-0.061-0.547S9.01,3.864,8.92,3.719
							c-0.089-0.143-0.205-0.26-0.346-0.35C8.432,3.28,8.26,3.235,8.057,3.235L8.057,3.235z"/>
						<path fill="#F8B744" stroke="#F8B744" stroke-width="0.2" d="M11.677,2.99h2.137v0.312c-0.155,0.006-0.278,0.027-0.367,0.061
							c-0.09,0.034-0.143,0.088-0.16,0.16c-0.017,0.073,0.002,0.17,0.056,0.289c0.054,0.118,0.146,0.266,0.273,0.443l0.603,0.826
							c0.864-1.064,1.333-1.633,1.407-1.703l-0.713,0.041V2.99h1.701v0.312c-0.142,0.04-0.266,0.09-0.373,0.15
							c-0.106,0.059-0.208,0.132-0.304,0.219c-0.096,0.086-0.583,0.656-1.46,1.711l1.428,1.789c0.081,0.103,0.158,0.203,0.23,0.301
							c0.073,0.1,0.147,0.213,0.225,0.342l0.471-0.031v0.43h-2.005V7.899c0.084,0,0.159-0.009,0.223-0.027
							c0.064-0.02,0.11-0.049,0.139-0.092s0.035-0.096,0.021-0.16c-0.015-0.064-0.059-0.143-0.129-0.234l-1.094-1.357
							C13.281,7,12.913,7.507,12.881,7.547c-0.032,0.041-0.067,0.082-0.104,0.123c-0.037,0.041-0.081,0.088-0.131,0.143l0.795-0.031
							v0.43h-1.742V7.899c0.104-0.027,0.198-0.062,0.279-0.106c0.081-0.044,0.158-0.101,0.23-0.169
							c0.073-0.067,0.576-0.711,1.512-1.932c-0.851-1.143-1.313-1.787-1.388-1.934c-0.075-0.146-0.13-0.268-0.167-0.367
							l-0.486,0.025L11.677,2.99L11.677,2.99z"/>
						<path fill="#F8B744" stroke="#F8B744" stroke-width="0.2" d="M18.042,2.99c0.182-0.004,0.348-0.054,0.496-0.15
							s0.279-0.218,0.393-0.362c0.113-0.145,0.208-0.301,0.286-0.472c0.077-0.17,0.138-0.329,0.182-0.479h0.354
							c0,0.279,0,0.539-0.002,0.78s-0.002,0.47-0.002,0.684h1.747v0.407l-1.747,0.021c-0.004,0.452-0.005,0.838-0.005,1.157
							s0,0.587-0.002,0.8c-0.002,0.215-0.002,0.384-0.002,0.508c0,0.125-0.001,0.219-0.003,0.283s-0.002,0.106-0.002,0.125v0.033
							c0,0.238,0.013,0.449,0.038,0.631c0.025,0.182,0.068,0.334,0.129,0.459c0.061,0.123,0.141,0.217,0.241,0.279
							s0.226,0.095,0.377,0.095c0.179,0,0.356-0.054,0.532-0.163c0.175-0.109,0.331-0.264,0.465-0.464l0.279,0.229
							c-0.152,0.23-0.303,0.412-0.453,0.543c-0.15,0.131-0.293,0.23-0.428,0.296c-0.135,0.066-0.261,0.108-0.377,0.125
							c-0.117,0.017-0.219,0.025-0.307,0.025c-0.104,0-0.212-0.009-0.322-0.025s-0.218-0.05-0.324-0.1s-0.206-0.118-0.298-0.209
							s-0.175-0.206-0.246-0.35c-0.071-0.143-0.126-0.315-0.167-0.521c-0.041-0.203-0.06-0.445-0.056-0.724l0.02-3.019l-0.794,0.005
							V2.99L18.042,2.99z"/>
						<path fill="#F8B744" stroke="#F8B744" stroke-width="0.2" d="M23.789,4.244c0-0.109,0.004-0.215,0.008-0.316
							c0.006-0.103,0.016-0.223,0.033-0.362l-0.734,0.04V3.168c0.227,0,0.414-0.008,0.562-0.023c0.148-0.015,0.27-0.035,0.364-0.062
							s0.168-0.058,0.22-0.09c0.053-0.032,0.1-0.067,0.14-0.104h0.299v4.218c0,0.139-0.002,0.262-0.005,0.369
							c-0.004,0.107-0.016,0.22-0.035,0.339l0.652-0.03v0.428h-2.115V7.901c0.158,0,0.279-0.031,0.361-0.095s0.143-0.15,0.18-0.263
							s0.059-0.246,0.063-0.402s0.007-0.328,0.007-0.516V4.244L23.789,4.244z M24.777,1.235c0,0.086-0.017,0.166-0.049,0.24
							c-0.032,0.075-0.074,0.141-0.124,0.196c-0.051,0.056-0.11,0.1-0.177,0.13c-0.068,0.031-0.139,0.047-0.213,0.047
							s-0.146-0.016-0.213-0.047c-0.068-0.03-0.128-0.074-0.18-0.13c-0.053-0.056-0.093-0.121-0.121-0.196
							c-0.029-0.074-0.043-0.154-0.043-0.24c0-0.088,0.015-0.17,0.045-0.247c0.03-0.076,0.072-0.144,0.124-0.201
							s0.112-0.103,0.18-0.136c0.067-0.031,0.14-0.049,0.218-0.049s0.149,0.018,0.215,0.049c0.066,0.033,0.125,0.078,0.175,0.136
							s0.091,0.125,0.118,0.201C24.761,1.065,24.777,1.147,24.777,1.235L24.777,1.235z"/>
						<path fill="#F8B744" stroke="#F8B744" stroke-width="0.2" d="M27.476,1.684c0-0.108,0-0.215,0.002-0.316
							s0.011-0.223,0.027-0.361l-0.734,0.041V0.608c0.227,0,0.415-0.008,0.564-0.021c0.15-0.016,0.273-0.037,0.367-0.064
							c0.095-0.027,0.169-0.057,0.223-0.09c0.055-0.031,0.102-0.066,0.143-0.104h0.299l0.01,6.777c0,0.139-0.004,0.262-0.01,0.369
							c-0.008,0.107-0.021,0.22-0.041,0.339l0.653-0.03v0.428h-2.116V7.901c0.158,0,0.279-0.031,0.361-0.095
							c0.083-0.063,0.143-0.15,0.18-0.263s0.059-0.246,0.063-0.402s0.008-0.328,0.008-0.516L27.476,1.684L27.476,1.684z"/>
						<path fill="#F8B744" stroke="#F8B744" stroke-width="0.2" d="M35.369,5.131l-3.65,0.061c-0.003,0.402,0.027,0.768,0.092,1.094
							c0.063,0.326,0.165,0.605,0.303,0.838c0.139,0.231,0.317,0.41,0.535,0.537c0.217,0.125,0.479,0.188,0.781,0.188
							c0.162,0,0.328-0.022,0.496-0.067c0.17-0.044,0.332-0.104,0.489-0.182c0.157-0.076,0.301-0.169,0.433-0.277
							c0.132-0.107,0.242-0.223,0.33-0.346l0.252,0.209c-0.142,0.218-0.307,0.402-0.493,0.553c-0.187,0.152-0.382,0.275-0.582,0.37
							c-0.201,0.095-0.403,0.164-0.604,0.206c-0.203,0.043-0.393,0.064-0.568,0.064c-0.357,0-0.69-0.064-1-0.193
							c-0.309-0.13-0.576-0.314-0.802-0.557c-0.227-0.242-0.404-0.532-0.534-0.872c-0.13-0.339-0.195-0.722-0.195-1.147
							c0-0.367,0.062-0.718,0.188-1.053s0.303-0.631,0.531-0.89c0.23-0.259,0.505-0.464,0.826-0.617
							c0.32-0.153,0.676-0.229,1.068-0.229c0.287,0,0.558,0.047,0.812,0.143c0.254,0.096,0.479,0.238,0.67,0.428
							c0.193,0.191,0.345,0.432,0.456,0.723C35.313,4.404,35.369,4.743,35.369,5.131L35.369,5.131z M33.273,3.235
							c-0.405,0-0.74,0.119-1.002,0.357c-0.264,0.24-0.438,0.627-0.521,1.162h2.643c0-0.184-0.021-0.365-0.061-0.547
							c-0.041-0.182-0.105-0.344-0.195-0.488c-0.09-0.143-0.205-0.26-0.347-0.35S33.476,3.235,33.273,3.235L33.273,3.235z"/>
						<path fill="#F8B744" stroke="#F8B744" stroke-width="0.2" d="M39.117,7.967c0.131,0,0.264-0.018,0.396-0.049
							c0.134-0.033,0.256-0.082,0.365-0.15c0.109-0.067,0.199-0.153,0.269-0.257s0.104-0.226,0.104-0.368
							c0-0.166-0.044-0.309-0.13-0.426c-0.087-0.117-0.199-0.221-0.339-0.311c-0.141-0.09-0.301-0.17-0.48-0.241
							c-0.182-0.071-0.365-0.144-0.553-0.219S38.38,5.789,38.201,5.7c-0.18-0.09-0.339-0.197-0.479-0.318
							c-0.141-0.123-0.254-0.27-0.339-0.439c-0.087-0.17-0.13-0.371-0.13-0.606c0-0.146,0.027-0.307,0.082-0.481
							c0.053-0.175,0.147-0.34,0.283-0.492c0.135-0.152,0.316-0.281,0.544-0.385s0.516-0.156,0.863-0.156
							c0.095,0,0.195,0.008,0.302,0.021c0.105,0.014,0.215,0.037,0.326,0.074c0.111,0.035,0.223,0.082,0.334,0.14
							s0.221,0.13,0.329,0.214l-0.025-0.397h0.435v1.831h-0.323c-0.014-0.18-0.048-0.359-0.104-0.536
							c-0.055-0.177-0.137-0.335-0.242-0.477s-0.24-0.256-0.402-0.345c-0.162-0.088-0.354-0.133-0.578-0.133
							c-0.161,0-0.305,0.021-0.43,0.064s-0.23,0.1-0.316,0.174c-0.086,0.072-0.15,0.156-0.195,0.252
							c-0.043,0.096-0.064,0.195-0.064,0.301c0,0.17,0.042,0.316,0.129,0.439c0.086,0.121,0.199,0.23,0.341,0.326
							c0.142,0.095,0.304,0.181,0.486,0.258c0.183,0.076,0.368,0.154,0.558,0.234c0.188,0.079,0.374,0.164,0.557,0.254
							c0.182,0.091,0.344,0.197,0.486,0.319c0.142,0.122,0.256,0.265,0.342,0.429c0.086,0.162,0.129,0.356,0.129,0.581
							c0,0.261-0.053,0.489-0.157,0.683c-0.104,0.194-0.242,0.354-0.413,0.48c-0.17,0.125-0.363,0.219-0.576,0.279
							c-0.215,0.062-0.432,0.092-0.65,0.092c-0.352,0-0.66-0.047-0.928-0.14c-0.266-0.093-0.485-0.2-0.658-0.319l0.036,0.363h-0.436
							l-0.062-1.795h0.32c0.013,0.216,0.062,0.416,0.148,0.597s0.199,0.337,0.34,0.468c0.139,0.129,0.3,0.231,0.48,0.305
							C38.722,7.93,38.914,7.967,39.117,7.967L39.117,7.967z"/>
					</g>
					<path fill="none" stroke="#F8B744" stroke-width="0.75" d="M59.58,5.285H-6.96"/>
					<path fill="none" stroke="#F8B744" stroke-width="0.75" d="M190.04,5.285H123.68"/>
					<path fill="#F8B744" d="M-7.96,5.285c0,0.727,0.586,1.314,1.306,1.314c0.721,0,1.306-0.59,1.306-1.314
						c0-0.727-0.585-1.316-1.306-1.316C-7.374,3.969-7.96,4.559-7.96,5.285L-7.96,5.285z"/>
					<path fill="#F8B744" d="M189.427,5.285c0,0.727,0.587,1.314,1.306,1.314c0.723,0,1.307-0.59,1.307-1.314
						c0-0.727-0.584-1.316-1.307-1.316C190.014,3.969,189.427,4.559,189.427,5.285L189.427,5.285z"/>
				</g>
			</g>
		</g>
	</g>
</g>
</svg>
