<?xml version="1.0" encoding="utf-8"?>
<!-- Generator: Adobe Illustrator 16.0.4, SVG Export Plug-In . SVG Version: 6.00 Build 0)  -->
<!DOCTYPE svg PUBLIC "-//W3C//DTD SVG 1.1//EN" "http://www.w3.org/Graphics/SVG/1.1/DTD/svg11.dtd">
<svg version="1.1" id="Layer_1" xmlns:sketch="http://www.bohemiancoding.com/sketch/ns"
	 xmlns="http://www.w3.org/2000/svg" xmlns:xlink="http://www.w3.org/1999/xlink" x="0px" y="0px" width="135.839px"
	 height="46.064px" viewBox="-485 712.936 135.839 46.064" enable-background="new -485 712.936 135.839 46.064"
	 xml:space="preserve">
<title>Slice 1</title>
<description>Created with Sketch (http://www.bohemiancoding.com/sketch)</description>
<g>
	<path fill-rule="evenodd" clip-rule="evenodd" fill="#E85126" d="M-476.822,729.867c0,0.58,0,0.892,0,1.201
		c0,5.103,0,10.205,0,15.307c0,2.904-1.343,4.188-4.28,4.092c-2.265-0.073-3.371-0.799-3.796-2.522
		c-0.081-0.328-0.095-0.679-0.095-1.021C-485,737.83-485,728.737-485,719.644c0-2.37,1.301-3.597,3.69-3.691
		c1.722-0.067,3.014,0.537,4.202,1.772c5.839,6.076,11.733,12.1,17.61,18.141c0.174,0.179,0.371,0.334,0.725,0.65
		c0-0.492,0-0.77,0-1.047c0-5.155-0.004-10.31,0.003-15.464c0.003-1.999,0.723-3.27,2.173-3.764c0.49-0.166,1.032-0.253,1.55-0.255
		c5.049-0.019,10.101-0.114,15.146,0.019c5.002,0.131,9.044,2.371,12.086,6.311c5.784,7.491,4.54,18.595-2.744,24.623
		c-2.965,2.454-6.442,3.563-10.274,3.559c-4.81-0.006-9.621-0.045-14.431-0.054c-1.363-0.003-2.259-0.719-3.161-1.672
		c-3.506-3.701-7.09-7.328-10.643-10.983c-2.357-2.427-4.708-4.857-7.064-7.283C-476.29,730.34-476.467,730.193-476.822,729.867z
		 M-450.505,733.188c0,2.908,0.01,5.814-0.008,8.723c-0.004,0.536,0.146,0.745,0.715,0.739c3.013-0.024,6.027,0.024,9.039-0.03
		c1.754-0.032,3.381-0.573,4.781-1.673c2.822-2.214,3.714-5.238,3.492-8.659c-0.336-5.141-3.961-8.504-9.098-8.519
		c-2.643-0.007-5.287,0.038-7.929-0.022c-0.845-0.02-1.013,0.281-1.004,1.037C-450.484,727.586-450.504,730.388-450.505,733.188z"/>
	<g>
		<path fill="#E85126" d="M-415.461,727.58h-0.03v7.698h-2.161v-11.285h2.416l4.578,7.578h0.03v-7.578h2.162v11.285h-2.326
			L-415.461,727.58z"/>
		<path fill="#E85126" d="M-405.017,732.037c0.02,0.23,0.072,0.453,0.158,0.668c0.084,0.216,0.199,0.404,0.345,0.571
			c0.145,0.164,0.325,0.299,0.54,0.403c0.215,0.105,0.468,0.158,0.759,0.158c0.33,0,0.632-0.077,0.908-0.232
			s0.488-0.383,0.638-0.684l2.102,0.166c-0.261,0.791-0.723,1.389-1.389,1.793c-0.666,0.405-1.453,0.608-2.364,0.608
			c-0.581,0-1.113-0.097-1.598-0.285c-0.485-0.19-0.901-0.463-1.245-0.818c-0.346-0.355-0.616-0.78-0.811-1.276
			c-0.196-0.494-0.293-1.051-0.293-1.673c0-0.62,0.097-1.183,0.293-1.688c0.194-0.506,0.465-0.936,0.811-1.291
			c0.344-0.354,0.76-0.628,1.245-0.817c0.485-0.19,1.017-0.286,1.598-0.286c0.58,0,1.113,0.096,1.598,0.286
			c0.485,0.189,0.9,0.463,1.246,0.817c0.345,0.355,0.615,0.785,0.811,1.291c0.195,0.505,0.292,1.067,0.292,1.688v0.601H-405.017z
			 M-401.535,730.657c-0.02-0.19-0.069-0.384-0.15-0.578c-0.08-0.195-0.19-0.373-0.33-0.533c-0.14-0.159-0.311-0.29-0.511-0.391
			c-0.2-0.099-0.43-0.149-0.69-0.149c-0.281,0-0.525,0.045-0.735,0.135c-0.21,0.091-0.391,0.21-0.541,0.359
			c-0.15,0.15-0.268,0.326-0.353,0.525c-0.084,0.201-0.143,0.411-0.172,0.632H-401.535z"/>
		<path fill="#E85126" d="M-393.161,730.161h-0.03l-1.351,5.117h-2.266l-2.46-7.713h2.296l1.275,5.252h0.03l1.366-5.252h2.251
			l1.366,5.252h0.03l1.276-5.252h2.295l-2.461,7.713h-2.266L-393.161,730.161z"/>
		<path fill="#E85126" d="M-417.652,739.383h4.248c0.849,0,1.613,0.121,2.288,0.368c0.674,0.244,1.245,0.606,1.71,1.087
			s0.82,1.071,1.065,1.771s0.368,1.505,0.368,2.415c0,0.901-0.146,1.702-0.436,2.402c-0.291,0.7-0.68,1.29-1.171,1.771
			c-0.489,0.479-1.06,0.846-1.71,1.097c-0.65,0.249-1.335,0.374-2.056,0.374h-4.307V739.383z M-413.496,748.747
			c0.58,0,1.071-0.112,1.471-0.338c0.4-0.226,0.728-0.516,0.983-0.87s0.44-0.755,0.555-1.201c0.115-0.445,0.173-0.887,0.173-1.328
			c0-0.47-0.055-0.928-0.166-1.373c-0.11-0.444-0.295-0.841-0.555-1.187c-0.261-0.345-0.606-0.621-1.035-0.832
			c-0.431-0.209-0.966-0.314-1.606-0.314h-1.726v7.443H-413.496z"/>
		<path fill="#E85126" d="M-405.017,747.427c0.02,0.229,0.072,0.452,0.158,0.667c0.084,0.216,0.199,0.405,0.345,0.57
			c0.145,0.166,0.325,0.301,0.54,0.405c0.215,0.104,0.468,0.158,0.759,0.158c0.33,0,0.632-0.078,0.908-0.233
			s0.488-0.382,0.638-0.684l2.102,0.167c-0.261,0.79-0.723,1.388-1.389,1.792c-0.666,0.406-1.453,0.607-2.364,0.607
			c-0.581,0-1.113-0.095-1.598-0.284c-0.485-0.19-0.901-0.462-1.245-0.817c-0.346-0.355-0.616-0.781-0.811-1.276
			c-0.196-0.495-0.293-1.052-0.293-1.673s0.097-1.183,0.293-1.688c0.194-0.506,0.465-0.937,0.811-1.292
			c0.344-0.354,0.76-0.628,1.245-0.817c0.485-0.19,1.017-0.286,1.598-0.286c0.58,0,1.113,0.096,1.598,0.286
			c0.485,0.189,0.9,0.463,1.246,0.817c0.345,0.355,0.615,0.786,0.811,1.292c0.195,0.505,0.292,1.066,0.292,1.688v0.601H-405.017z
			 M-401.535,746.046c-0.02-0.19-0.069-0.383-0.15-0.578c-0.08-0.194-0.19-0.372-0.33-0.533c-0.14-0.159-0.311-0.29-0.511-0.39
			s-0.43-0.15-0.69-0.15c-0.281,0-0.525,0.045-0.735,0.135c-0.21,0.091-0.391,0.21-0.541,0.36c-0.15,0.149-0.268,0.325-0.353,0.524
			c-0.084,0.201-0.143,0.412-0.172,0.632H-401.535z"/>
		<path fill="#E85126" d="M-394.122,745.34c-0.02-0.32-0.14-0.572-0.36-0.758c-0.22-0.185-0.541-0.277-0.961-0.277
			c-0.29,0-0.553,0.059-0.788,0.173c-0.235,0.115-0.353,0.287-0.353,0.518s0.117,0.4,0.353,0.51c0.235,0.11,0.533,0.2,0.893,0.271
			c0.36,0.069,0.746,0.142,1.156,0.217c0.41,0.075,0.795,0.196,1.156,0.368c0.36,0.169,0.658,0.404,0.893,0.704
			c0.235,0.301,0.353,0.711,0.353,1.231c0,0.149-0.036,0.37-0.105,0.66c-0.07,0.291-0.225,0.577-0.465,0.862
			c-0.239,0.286-0.593,0.533-1.058,0.743c-0.465,0.21-1.093,0.314-1.884,0.314c-0.27,0-0.593-0.028-0.968-0.089
			s-0.735-0.181-1.08-0.36c-0.345-0.181-0.65-0.442-0.916-0.788s-0.418-0.804-0.458-1.373h2.161c0.01,0.19,0.055,0.351,0.135,0.48
			c0.08,0.13,0.183,0.238,0.308,0.322c0.125,0.085,0.265,0.147,0.42,0.188s0.312,0.061,0.473,0.061c0.141,0,0.285-0.013,0.436-0.037
			c0.15-0.025,0.287-0.069,0.413-0.128c0.125-0.06,0.228-0.14,0.307-0.241c0.081-0.1,0.12-0.229,0.12-0.389
			c0-0.212-0.115-0.366-0.345-0.466c-0.229-0.101-0.515-0.186-0.855-0.255c-0.34-0.07-0.71-0.146-1.111-0.226
			c-0.4-0.079-0.77-0.204-1.11-0.375c-0.339-0.171-0.625-0.41-0.855-0.721c-0.23-0.309-0.345-0.729-0.345-1.26
			c0-0.301,0.06-0.6,0.18-0.894c0.12-0.295,0.308-0.561,0.563-0.796c0.255-0.234,0.586-0.425,0.99-0.569
			c0.405-0.146,0.893-0.219,1.463-0.219c0.991,0,1.791,0.216,2.401,0.646c0.611,0.431,0.946,1.066,1.006,1.906L-394.122,745.34z"/>
		<path fill="#E85126" d="M-390.925,740.567c0-0.159,0.032-0.314,0.098-0.465c0.064-0.149,0.151-0.285,0.262-0.405
			c0.11-0.119,0.243-0.218,0.397-0.293s0.323-0.112,0.503-0.112c0.16,0,0.315,0.033,0.465,0.098c0.15,0.065,0.286,0.155,0.406,0.27
			c0.119,0.116,0.215,0.249,0.285,0.398c0.069,0.15,0.104,0.311,0.104,0.479c0,0.172-0.032,0.331-0.098,0.479
			c-0.065,0.151-0.155,0.287-0.27,0.407c-0.116,0.119-0.25,0.214-0.406,0.284c-0.155,0.07-0.317,0.104-0.487,0.104
			c-0.18,0-0.348-0.037-0.503-0.112s-0.287-0.17-0.397-0.284c-0.111-0.114-0.198-0.248-0.262-0.399
			C-390.893,740.868-390.925,740.718-390.925,740.567z M-390.745,742.954h2.161v7.714h-2.161V742.954z"/>
		<path fill="#E85126" d="M-381.486,742.954h2.071v7.594c0,0.579-0.1,1.096-0.3,1.546c-0.201,0.45-0.483,0.83-0.848,1.14
			c-0.366,0.312-0.803,0.546-1.313,0.706c-0.51,0.159-1.071,0.24-1.681,0.24c-1.12,0-1.991-0.235-2.611-0.706
			c-0.62-0.47-1-1.109-1.14-1.92h2.222c0.09,0.29,0.247,0.524,0.472,0.705c0.225,0.18,0.598,0.27,1.118,0.27
			c0.189,0,0.395-0.025,0.615-0.075c0.221-0.05,0.425-0.143,0.616-0.277c0.19-0.135,0.35-0.323,0.48-0.562
			c0.13-0.239,0.205-0.556,0.225-0.945l0.06-1.321l-0.03-0.029c-0.25,0.54-0.591,0.913-1.02,1.117
			c-0.431,0.205-0.921,0.309-1.471,0.309c-0.48,0-0.938-0.093-1.374-0.277c-0.435-0.186-0.817-0.451-1.147-0.796
			c-0.331-0.346-0.593-0.766-0.789-1.261c-0.195-0.496-0.292-1.058-0.292-1.688c0-0.541,0.09-1.051,0.27-1.531
			c0.181-0.48,0.434-0.902,0.758-1.269c0.325-0.365,0.713-0.653,1.164-0.863c0.45-0.209,0.951-0.315,1.5-0.315
			c0.59,0,1.093,0.133,1.509,0.398c0.414,0.265,0.717,0.607,0.908,1.028h0.029V742.954z M-381.515,746.796
			c0-0.711-0.17-1.258-0.51-1.645c-0.34-0.384-0.831-0.577-1.471-0.577c-0.29,0-0.551,0.057-0.781,0.165
			c-0.23,0.111-0.428,0.263-0.592,0.458c-0.166,0.195-0.291,0.423-0.375,0.684c-0.086,0.259-0.128,0.54-0.128,0.841
			c0,0.47,0.07,0.853,0.21,1.148c0.14,0.294,0.31,0.523,0.51,0.689c0.2,0.165,0.413,0.279,0.638,0.345
			c0.225,0.065,0.422,0.098,0.592,0.098c0.14,0,0.318-0.025,0.533-0.075c0.215-0.05,0.425-0.152,0.63-0.308
			c0.205-0.154,0.38-0.377,0.525-0.668C-381.588,747.661-381.515,747.276-381.515,746.796z"/>
		<path fill="#E85126" d="M-372.961,745.971c0-0.28-0.037-0.516-0.112-0.706c-0.075-0.189-0.178-0.342-0.309-0.457
			c-0.13-0.115-0.274-0.197-0.435-0.248c-0.16-0.05-0.325-0.074-0.495-0.074c-0.44,0-0.786,0.167-1.036,0.502
			c-0.25,0.336-0.375,0.769-0.375,1.298v4.383h-2.161v-7.714h2.071v1.006h0.03c0.32-0.471,0.67-0.791,1.05-0.96
			c0.381-0.171,0.791-0.257,1.231-0.257c0.46,0,0.86,0.071,1.2,0.211c0.341,0.14,0.623,0.333,0.848,0.577
			c0.225,0.245,0.391,0.531,0.495,0.856c0.105,0.325,0.158,0.672,0.158,1.043v5.237h-2.162V745.971z"/>
		<path fill="#E85126" d="M-367.559,747.427c0.02,0.229,0.072,0.452,0.157,0.667c0.085,0.216,0.201,0.405,0.346,0.57
			c0.145,0.166,0.325,0.301,0.541,0.405c0.214,0.104,0.467,0.158,0.758,0.158c0.33,0,0.632-0.078,0.908-0.233
			s0.488-0.382,0.638-0.684l2.102,0.167c-0.261,0.79-0.724,1.388-1.389,1.792c-0.666,0.406-1.453,0.607-2.364,0.607
			c-0.58,0-1.113-0.095-1.598-0.284c-0.485-0.19-0.9-0.462-1.246-0.817c-0.345-0.355-0.615-0.781-0.81-1.276
			c-0.196-0.495-0.293-1.052-0.293-1.673s0.097-1.183,0.293-1.688c0.195-0.506,0.465-0.937,0.81-1.292
			c0.346-0.354,0.761-0.628,1.246-0.817c0.485-0.19,1.018-0.286,1.598-0.286s1.113,0.096,1.598,0.286
			c0.486,0.189,0.901,0.463,1.246,0.817c0.345,0.355,0.615,0.786,0.811,1.292c0.195,0.505,0.292,1.066,0.292,1.688v0.601H-367.559z
			 M-364.077,746.046c-0.02-0.19-0.07-0.383-0.15-0.578c-0.08-0.194-0.19-0.372-0.33-0.533c-0.141-0.159-0.311-0.29-0.51-0.39
			c-0.201-0.1-0.431-0.15-0.69-0.15c-0.281,0-0.525,0.045-0.735,0.135c-0.21,0.091-0.39,0.21-0.541,0.36
			c-0.15,0.149-0.268,0.325-0.353,0.524c-0.085,0.201-0.143,0.412-0.172,0.632H-364.077z"/>
		<path fill="#E85126" d="M-360.926,742.954h2.071v1.485h0.03c0.201-0.55,0.493-0.971,0.878-1.261
			c0.385-0.29,0.832-0.436,1.343-0.436h0.3v2.103h-0.48c-0.281,0-0.541,0.042-0.781,0.126c-0.24,0.086-0.45,0.213-0.63,0.384
			c-0.18,0.17-0.32,0.383-0.42,0.638c-0.1,0.255-0.149,0.554-0.149,0.893v3.782h-2.161V742.954z"/>
		<path fill="#E85126" d="M-351.501,745.34c-0.02-0.32-0.14-0.572-0.36-0.758c-0.22-0.185-0.54-0.277-0.96-0.277
			c-0.29,0-0.553,0.059-0.788,0.173c-0.235,0.115-0.353,0.287-0.353,0.518s0.118,0.4,0.353,0.51c0.235,0.11,0.533,0.2,0.893,0.271
			c0.36,0.069,0.746,0.142,1.156,0.217c0.41,0.075,0.795,0.196,1.155,0.368c0.36,0.169,0.658,0.404,0.894,0.704
			c0.235,0.301,0.352,0.711,0.352,1.231c0,0.149-0.035,0.37-0.105,0.66c-0.069,0.291-0.225,0.577-0.465,0.862
			c-0.24,0.286-0.593,0.533-1.058,0.743s-1.094,0.314-1.883,0.314c-0.27,0-0.593-0.028-0.968-0.089
			c-0.375-0.061-0.735-0.181-1.08-0.36c-0.346-0.181-0.65-0.442-0.916-0.788s-0.418-0.804-0.458-1.373h2.161
			c0.01,0.19,0.055,0.351,0.136,0.48c0.079,0.13,0.182,0.238,0.307,0.322c0.125,0.085,0.266,0.147,0.42,0.188
			c0.155,0.04,0.313,0.061,0.473,0.061c0.14,0,0.285-0.013,0.436-0.037c0.149-0.025,0.287-0.069,0.412-0.128
			c0.125-0.06,0.228-0.14,0.308-0.241c0.08-0.1,0.12-0.229,0.12-0.389c0-0.212-0.116-0.366-0.345-0.466
			c-0.23-0.101-0.516-0.186-0.855-0.255c-0.34-0.07-0.711-0.146-1.11-0.226c-0.4-0.079-0.771-0.204-1.111-0.375
			c-0.34-0.171-0.625-0.41-0.855-0.721c-0.23-0.309-0.345-0.729-0.345-1.26c0-0.301,0.06-0.6,0.18-0.894
			c0.12-0.295,0.308-0.561,0.563-0.796c0.255-0.234,0.585-0.425,0.991-0.569c0.405-0.146,0.893-0.219,1.463-0.219
			c0.99,0,1.791,0.216,2.401,0.646c0.61,0.431,0.945,1.066,1.005,1.906L-351.501,745.34z"/>
	</g>
</g>
</svg>
