<?xml version="1.0" encoding="utf-8"?>
<!-- Generator: Adobe Illustrator 16.0.4, SVG Export Plug-In . SVG Version: 6.00 Build 0)  -->
<!DOCTYPE svg PUBLIC "-//W3C//DTD SVG 1.1//EN" "http://www.w3.org/Graphics/SVG/1.1/DTD/svg11.dtd">
<svg version="1.1" id="Layer_1" xmlns:sketch="http://www.bohemiancoding.com/sketch/ns"
	 xmlns="http://www.w3.org/2000/svg" xmlns:xlink="http://www.w3.org/1999/xlink" x="0px" y="0px" width="305px" height="92.129px"
	 viewBox="-485 712.936 305 92.129" enable-background="new -485 712.936 305 92.129" xml:space="preserve">
<g>
	<path fill-rule="evenodd" clip-rule="evenodd" fill="#E85126" d="M-439.059,749.741c0,1.035,0,1.591,0,2.144
		c0,9.102,0,18.201-0.001,27.301c0,5.181-2.396,7.472-7.635,7.299c-4.04-0.132-6.012-1.426-6.771-4.499
		c-0.145-0.586-0.17-1.212-0.17-1.82c-0.011-16.22-0.011-32.438-0.01-48.658c0.001-4.229,2.32-6.416,6.583-6.585
		c3.07-0.12,5.376,0.957,7.495,3.161c10.415,10.838,20.928,21.582,31.41,32.357c0.31,0.318,0.661,0.596,1.292,1.16
		c0-0.878,0-1.372,0-1.868c0-9.193-0.007-18.388,0.006-27.583c0.005-3.564,1.29-5.83,3.876-6.712c0.874-0.296,1.84-0.45,2.765-0.454
		c9.005-0.033,18.016-0.204,27.015,0.032c8.922,0.234,16.131,4.229,21.558,11.257c10.316,13.362,8.098,33.165-4.895,43.918
		c-5.289,4.378-11.49,6.357-18.325,6.349c-8.58-0.012-17.159-0.081-25.739-0.098c-2.432-0.004-4.029-1.282-5.638-2.98
		c-6.254-6.601-12.646-13.07-18.982-19.592c-4.204-4.327-8.398-8.662-12.601-12.99
		C-438.109,750.586-438.426,750.323-439.059,749.741z M-392.118,755.666c0,5.187,0.018,10.372-0.016,15.558
		c-0.007,0.956,0.26,1.328,1.276,1.319c5.374-0.044,10.75,0.043,16.122-0.055c3.128-0.057,6.03-1.022,8.527-2.983
		c5.033-3.949,6.625-9.343,6.227-15.445c-0.599-9.17-7.064-15.167-16.228-15.194c-4.714-0.013-9.43,0.067-14.142-0.04
		c-1.507-0.034-1.806,0.502-1.79,1.851C-392.082,745.672-392.118,750.67-392.118,755.666z"/>
	<g>
		<path fill="#E85126" d="M-329.613,745.663h-0.053v13.73h-3.855v-20.129h4.31l8.164,13.518h0.054v-13.518h3.855v20.129h-4.149
			L-329.613,745.663z"/>
		<path fill="#E85126" d="M-310.983,753.612c0.036,0.411,0.13,0.808,0.282,1.191c0.15,0.384,0.355,0.723,0.615,1.019
			c0.258,0.293,0.579,0.533,0.963,0.721s0.834,0.281,1.353,0.281c0.589,0,1.128-0.138,1.62-0.414c0.49-0.277,0.869-0.683,1.137-1.22
			l3.748,0.296c-0.465,1.41-1.289,2.477-2.477,3.198c-1.188,0.723-2.592,1.085-4.216,1.085c-1.036,0-1.985-0.171-2.851-0.509
			c-0.866-0.34-1.606-0.825-2.222-1.459c-0.616-0.634-1.099-1.392-1.445-2.275c-0.349-0.883-0.522-1.877-0.522-2.985
			c0-1.106,0.174-2.109,0.522-3.011c0.347-0.901,0.829-1.668,1.445-2.302c0.615-0.633,1.355-1.121,2.222-1.459
			c0.865-0.339,1.814-0.51,2.851-0.51c1.034,0,1.985,0.171,2.851,0.51c0.865,0.338,1.605,0.826,2.223,1.459
			c0.615,0.634,1.097,1.4,1.445,2.302c0.348,0.901,0.521,1.904,0.521,3.011v1.071H-310.983z M-304.773,751.15
			c-0.035-0.339-0.124-0.684-0.267-1.031c-0.144-0.348-0.34-0.665-0.589-0.95c-0.25-0.285-0.554-0.518-0.91-0.697
			c-0.357-0.177-0.768-0.267-1.231-0.267c-0.5,0-0.937,0.081-1.312,0.241c-0.375,0.161-0.696,0.374-0.964,0.642
			c-0.268,0.269-0.478,0.582-0.63,0.938c-0.15,0.358-0.254,0.732-0.308,1.125H-304.773z"/>
		<path fill="#E85126" d="M-289.837,750.266h-0.054l-2.409,9.128h-4.042l-4.389-13.758h4.095l2.275,9.368h0.054l2.436-9.368h4.015
			l2.437,9.368h0.054l2.275-9.368h4.095l-4.39,13.758h-4.042L-289.837,750.266z"/>
		<path fill="#E85126" d="M-333.521,766.714h7.576c1.516,0,2.877,0.218,4.082,0.656c1.203,0.437,2.221,1.082,3.051,1.94
			c0.83,0.856,1.463,1.909,1.9,3.158s0.656,2.686,0.656,4.309c0,1.606-0.259,3.036-0.776,4.284
			c-0.519,1.249-1.214,2.302-2.089,3.158c-0.873,0.856-1.891,1.508-3.051,1.955c-1.16,0.445-2.382,0.668-3.667,0.668h-7.683V766.714
			z M-326.107,783.417c1.035,0,1.91-0.2,2.624-0.603s1.299-0.919,1.753-1.553c0.455-0.633,0.785-1.347,0.99-2.142
			c0.205-0.794,0.309-1.583,0.309-2.369c0-0.838-0.098-1.654-0.295-2.449c-0.197-0.793-0.526-1.499-0.99-2.115
			c-0.465-0.615-1.08-1.109-1.846-1.484c-0.769-0.374-1.724-0.562-2.865-0.562h-3.078v13.277H-326.107z"/>
		<path fill="#E85126" d="M-310.983,781.062c0.036,0.41,0.13,0.808,0.282,1.19c0.15,0.385,0.355,0.724,0.615,1.018
			c0.258,0.295,0.579,0.536,0.963,0.723c0.384,0.188,0.834,0.281,1.353,0.281c0.589,0,1.128-0.138,1.62-0.415
			c0.49-0.277,0.869-0.682,1.137-1.219l3.748,0.296c-0.465,1.409-1.289,2.476-2.477,3.197c-1.188,0.724-2.592,1.084-4.216,1.084
			c-1.036,0-1.985-0.169-2.851-0.508c-0.866-0.339-1.606-0.825-2.222-1.458c-0.616-0.634-1.099-1.393-1.445-2.275
			c-0.349-0.884-0.522-1.878-0.522-2.985c0-1.106,0.174-2.109,0.522-3.011c0.347-0.901,0.829-1.669,1.445-2.303
			c0.615-0.633,1.355-1.12,2.222-1.458c0.865-0.34,1.814-0.51,2.851-0.51c1.034,0,1.985,0.17,2.851,0.51
			c0.865,0.338,1.605,0.825,2.223,1.458c0.615,0.634,1.097,1.401,1.445,2.303c0.348,0.901,0.521,1.904,0.521,3.011v1.071H-310.983z
			 M-304.773,778.599c-0.035-0.339-0.124-0.683-0.267-1.031c-0.144-0.347-0.34-0.664-0.589-0.95c-0.25-0.285-0.554-0.518-0.91-0.695
			c-0.357-0.178-0.768-0.268-1.231-0.268c-0.5,0-0.937,0.08-1.312,0.24c-0.375,0.162-0.696,0.375-0.964,0.643
			s-0.478,0.58-0.63,0.937c-0.15,0.358-0.254,0.732-0.308,1.125H-304.773z"/>
		<path fill="#E85126" d="M-291.55,777.34c-0.036-0.571-0.25-1.021-0.642-1.351c-0.394-0.33-0.965-0.496-1.714-0.496
			c-0.518,0-0.986,0.104-1.405,0.309c-0.42,0.205-0.629,0.513-0.629,0.922c0,0.411,0.209,0.715,0.629,0.911
			c0.419,0.197,0.95,0.356,1.592,0.482c0.643,0.124,1.33,0.254,2.062,0.388s1.419,0.352,2.062,0.656
			c0.642,0.303,1.173,0.722,1.593,1.258c0.419,0.535,0.629,1.267,0.629,2.194c0,0.268-0.063,0.66-0.188,1.179
			c-0.125,0.518-0.401,1.029-0.83,1.538c-0.428,0.51-1.058,0.95-1.887,1.326c-0.83,0.374-1.95,0.561-3.36,0.561
			c-0.481,0-1.057-0.052-1.726-0.159c-0.669-0.108-1.312-0.321-1.927-0.643c-0.615-0.322-1.16-0.79-1.633-1.405
			c-0.474-0.616-0.746-1.433-0.817-2.449h3.854c0.019,0.34,0.099,0.625,0.241,0.856c0.143,0.232,0.325,0.424,0.549,0.575
			c0.223,0.151,0.473,0.263,0.749,0.334c0.277,0.071,0.558,0.107,0.844,0.107c0.25,0,0.509-0.022,0.776-0.066
			c0.268-0.045,0.513-0.121,0.736-0.228c0.223-0.106,0.405-0.249,0.548-0.429c0.144-0.178,0.214-0.41,0.214-0.695
			c0-0.376-0.204-0.652-0.615-0.83c-0.41-0.179-0.919-0.331-1.525-0.455c-0.606-0.125-1.268-0.259-1.981-0.402
			c-0.713-0.141-1.373-0.364-1.98-0.669c-0.605-0.304-1.115-0.73-1.525-1.285c-0.411-0.552-0.615-1.302-0.615-2.248
			c0-0.535,0.107-1.067,0.32-1.593c0.215-0.524,0.549-0.999,1.004-1.419c0.455-0.419,1.045-0.757,1.767-1.017
			c0.723-0.259,1.593-0.389,2.61-0.389c1.767,0,3.194,0.385,4.282,1.151c1.089,0.768,1.687,1.901,1.794,3.4L-291.55,777.34z"/>
		<path fill="#E85126" d="M-285.848,768.828c0-0.285,0.057-0.562,0.174-0.83c0.115-0.268,0.271-0.509,0.468-0.722
			c0.196-0.215,0.433-0.389,0.709-0.522c0.276-0.135,0.576-0.201,0.897-0.201c0.285,0,0.562,0.059,0.83,0.174
			c0.268,0.117,0.509,0.277,0.723,0.481c0.213,0.206,0.384,0.442,0.509,0.71c0.124,0.268,0.187,0.554,0.187,0.855
			c0,0.306-0.058,0.591-0.174,0.856c-0.116,0.27-0.277,0.51-0.481,0.725c-0.206,0.213-0.446,0.383-0.724,0.508
			c-0.276,0.125-0.566,0.187-0.869,0.187c-0.321,0-0.621-0.066-0.897-0.2s-0.513-0.303-0.709-0.509
			c-0.197-0.203-0.353-0.44-0.468-0.71C-285.791,769.364-285.848,769.096-285.848,768.828z M-285.526,773.084h3.854v13.759h-3.854
			V773.084z"/>
		<path fill="#E85126" d="M-269.012,773.084h3.694v13.545c0,1.034-0.179,1.954-0.535,2.757c-0.357,0.804-0.861,1.481-1.512,2.034
			c-0.652,0.554-1.433,0.973-2.343,1.259c-0.91,0.284-1.91,0.429-2.998,0.429c-1.999,0-3.552-0.42-4.658-1.259
			s-1.784-1.98-2.034-3.425h3.963c0.16,0.516,0.44,0.936,0.842,1.257c0.401,0.32,1.066,0.481,1.995,0.481
			c0.338,0,0.704-0.046,1.097-0.134c0.394-0.089,0.759-0.255,1.098-0.496c0.339-0.24,0.624-0.575,0.857-1.003
			c0.231-0.428,0.365-0.99,0.401-1.687l0.106-2.356l-0.054-0.053c-0.446,0.964-1.053,1.629-1.819,1.994
			c-0.769,0.365-1.643,0.55-2.624,0.55c-0.856,0-1.673-0.166-2.449-0.495c-0.776-0.331-1.459-0.804-2.047-1.419
			c-0.59-0.616-1.058-1.366-1.406-2.249c-0.348-0.885-0.521-1.887-0.521-3.011c0-0.964,0.16-1.874,0.481-2.73
			c0.321-0.857,0.772-1.61,1.352-2.263c0.58-0.651,1.271-1.164,2.075-1.539c0.803-0.375,1.695-0.562,2.677-0.562
			c1.053,0,1.949,0.236,2.69,0.709c0.739,0.474,1.279,1.084,1.619,1.835h0.053V773.084z M-269.064,779.937
			c0-1.267-0.304-2.243-0.91-2.932c-0.607-0.686-1.482-1.03-2.623-1.03c-0.518,0-0.982,0.1-1.393,0.295
			c-0.41,0.196-0.763,0.469-1.057,0.816c-0.295,0.348-0.519,0.754-0.67,1.219c-0.152,0.463-0.228,0.963-0.228,1.499
			c0,0.839,0.125,1.521,0.375,2.049c0.25,0.524,0.553,0.935,0.91,1.229c0.356,0.295,0.736,0.499,1.138,0.615
			c0.401,0.117,0.753,0.175,1.057,0.175c0.25,0,0.566-0.045,0.95-0.135c0.384-0.088,0.759-0.271,1.125-0.549
			c0.365-0.275,0.678-0.672,0.937-1.19C-269.194,781.48-269.064,780.794-269.064,779.937z"/>
		<path fill="#E85126" d="M-253.808,778.465c0-0.5-0.066-0.919-0.2-1.258c-0.134-0.34-0.317-0.611-0.55-0.816
			s-0.49-0.353-0.775-0.442c-0.286-0.089-0.58-0.133-0.884-0.133c-0.785,0-1.401,0.298-1.847,0.896
			c-0.446,0.599-0.669,1.37-0.669,2.315v7.816h-3.854v-13.759h3.693v1.794h0.054c0.57-0.839,1.195-1.409,1.873-1.713
			c0.679-0.305,1.41-0.456,2.196-0.456c0.82,0,1.533,0.126,2.141,0.375c0.607,0.251,1.111,0.594,1.513,1.03s0.696,0.946,0.884,1.526
			c0.187,0.58,0.281,1.2,0.281,1.86v9.342h-3.855V778.465z"/>
		<path fill="#E85126" d="M-244.171,781.062c0.035,0.41,0.129,0.808,0.28,1.19c0.152,0.385,0.357,0.724,0.616,1.018
			c0.259,0.295,0.579,0.536,0.964,0.723c0.383,0.188,0.833,0.281,1.352,0.281c0.589,0,1.129-0.138,1.619-0.415
			c0.491-0.277,0.87-0.682,1.138-1.219l3.748,0.296c-0.465,1.409-1.29,2.476-2.477,3.197c-1.187,0.724-2.592,1.084-4.216,1.084
			c-1.035,0-1.985-0.169-2.851-0.508c-0.866-0.339-1.605-0.825-2.223-1.458c-0.615-0.634-1.097-1.393-1.444-2.275
			c-0.349-0.884-0.522-1.878-0.522-2.985c0-1.106,0.174-2.109,0.522-3.011c0.348-0.901,0.829-1.669,1.444-2.303
			c0.617-0.633,1.356-1.12,2.223-1.458c0.865-0.34,1.815-0.51,2.851-0.51c1.034,0,1.985,0.17,2.851,0.51
			c0.866,0.338,1.606,0.825,2.222,1.458c0.615,0.634,1.098,1.401,1.445,2.303c0.349,0.901,0.522,1.904,0.522,3.011v1.071H-244.171z
			 M-237.961,778.599c-0.036-0.339-0.125-0.683-0.269-1.031c-0.143-0.347-0.339-0.664-0.588-0.95
			c-0.251-0.285-0.554-0.518-0.91-0.695c-0.357-0.178-0.769-0.268-1.231-0.268c-0.5,0-0.937,0.08-1.312,0.24
			c-0.375,0.162-0.696,0.375-0.964,0.643s-0.478,0.58-0.629,0.937c-0.152,0.358-0.255,0.732-0.308,1.125H-237.961z"/>
		<path fill="#E85126" d="M-232.34,773.084h3.693v2.65h0.054c0.357-0.98,0.879-1.731,1.566-2.249
			c0.687-0.517,1.484-0.776,2.396-0.776h0.535v3.748h-0.856c-0.5,0-0.964,0.075-1.393,0.227c-0.428,0.153-0.802,0.38-1.124,0.684
			c-0.321,0.304-0.571,0.683-0.75,1.138c-0.178,0.455-0.267,0.986-0.267,1.593v6.745h-3.854V773.084z"/>
		<path fill="#E85126" d="M-215.53,777.34c-0.035-0.571-0.25-1.021-0.643-1.351s-0.963-0.496-1.713-0.496
			c-0.518,0-0.986,0.104-1.405,0.309s-0.629,0.513-0.629,0.922c0,0.411,0.21,0.715,0.629,0.911c0.419,0.197,0.95,0.356,1.593,0.482
			c0.643,0.124,1.329,0.254,2.062,0.388c0.731,0.134,1.418,0.352,2.061,0.656c0.643,0.303,1.174,0.722,1.593,1.258
			c0.419,0.535,0.629,1.267,0.629,2.194c0,0.268-0.062,0.66-0.188,1.179c-0.124,0.518-0.401,1.029-0.829,1.538
			c-0.429,0.51-1.058,0.95-1.888,1.326c-0.829,0.374-1.95,0.561-3.359,0.561c-0.481,0-1.057-0.052-1.727-0.159
			c-0.669-0.108-1.312-0.321-1.927-0.643c-0.616-0.322-1.16-0.79-1.633-1.405c-0.473-0.616-0.746-1.433-0.816-2.449h3.854
			c0.018,0.34,0.098,0.625,0.241,0.856c0.142,0.232,0.324,0.424,0.549,0.575c0.223,0.151,0.473,0.263,0.749,0.334
			s0.558,0.107,0.843,0.107c0.249,0,0.508-0.022,0.777-0.066c0.267-0.045,0.512-0.121,0.735-0.228
			c0.223-0.106,0.406-0.249,0.549-0.429c0.143-0.178,0.214-0.41,0.214-0.695c0-0.376-0.206-0.652-0.615-0.83
			c-0.411-0.179-0.92-0.331-1.526-0.455c-0.606-0.125-1.268-0.259-1.98-0.402c-0.714-0.141-1.374-0.364-1.981-0.669
			c-0.606-0.304-1.115-0.73-1.524-1.285c-0.411-0.552-0.616-1.302-0.616-2.248c0-0.535,0.106-1.067,0.321-1.593
			c0.214-0.524,0.548-0.999,1.004-1.419c0.455-0.419,1.044-0.757,1.767-1.017c0.723-0.259,1.593-0.389,2.609-0.389
			c1.767,0,3.194,0.385,4.283,1.151c1.088,0.768,1.686,1.901,1.793,3.4L-215.53,777.34z"/>
	</g>
</g>
</svg>
