<?xml version="1.0" encoding="utf-8"?>
<!-- Generator: Adobe Illustrator 16.0.4, SVG Export Plug-In . SVG Version: 6.00 Build 0)  -->
<!DOCTYPE svg PUBLIC "-//W3C//DTD SVG 1.1//EN" "http://www.w3.org/Graphics/SVG/1.1/DTD/svg11.dtd">
<svg version="1.1" id="Layer_1" xmlns="http://www.w3.org/2000/svg" xmlns:xlink="http://www.w3.org/1999/xlink" x="0px" y="0px"
	 width="35px" height="29px" viewBox="0 0 35 29" enable-background="new 0 0 35 29" xml:space="preserve">
<g id="project-page-template">
	<g id="Desktop-HD" transform="translate(-642.000000, -6859.000000)">
		<g id="Group-2" transform="translate(642.000000, 6859.000000)">
			<g id="twitter-01">
				<g id="Layer_1_1_">
					<path id="Shape" fill="#55ACEE" d="M35,3.367c-1.287,0.571-2.672,0.957-4.124,1.13c1.483-0.889,2.621-2.296,3.157-3.973
						c-1.388,0.823-2.924,1.42-4.561,1.743C28.164,0.872,26.297,0,24.232,0c-3.967,0-7.181,3.215-7.181,7.18
						c0,0.563,0.063,1.111,0.186,1.637C11.27,8.518,5.979,5.659,2.437,1.314c-0.618,1.061-0.972,2.294-0.972,3.61
						c0,2.491,1.268,4.689,3.194,5.977c-1.177-0.037-2.284-0.36-3.252-0.898c0,0.03,0,0.06,0,0.09c0,3.479,2.475,6.381,5.76,7.042
						c-0.603,0.164-1.237,0.251-1.892,0.251c-0.463,0-0.913-0.045-1.351-0.128c0.914,2.852,3.566,4.928,6.708,4.986
						c-2.458,1.926-5.554,3.074-8.918,3.074c-0.58,0-1.151-0.035-1.713-0.102c3.178,2.038,6.952,3.227,11.007,3.227
						c13.208,0,20.43-10.941,20.43-20.43c0-0.312-0.007-0.621-0.021-0.929C32.82,6.072,34.037,4.807,35,3.367L35,3.367z"/>
				</g>
			</g>
		</g>
	</g>
</g>
</svg>
