<?xml version="1.0" encoding="UTF-8" standalone="no"?>
<svg width="35px" height="29px" viewBox="0 0 35 29" version="1.1" xmlns="http://www.w3.org/2000/svg" xmlns:xlink="http://www.w3.org/1999/xlink">
    <!-- Generator: Sketch 3.8.3 (29802) - http://www.bohemiancoding.com/sketch -->
    <title>twitter-01</title>
    <desc>Created with Sketch.</desc>
    <defs></defs>
    <g id="project-page-template" stroke="none" stroke-width="1" fill="none" fill-rule="evenodd">
        <g id="Desktop-HD" transform="translate(-642.000000, -6859.000000)" fill="#FFFFFF">
            <g id="Group-2" transform="translate(642.000000, 6859.000000)">
                <g id="twitter-01">
                    <g id="Layer_1">
                        <path d="M35,3.367 C33.712175,3.9382 32.32845,4.32425 30.87595,4.497675 C32.358725,3.609025 33.496925,2.201675 34.033125,0.525 C32.645725,1.34785 31.10905,1.945475 29.47315,2.26765 C28.16345,0.872025 26.29725,0 24.232075,0 C20.266225,0 17.0513,3.2151 17.0513,7.180425 C17.0513,7.743225 17.114825,8.291325 17.23715,8.81685 C11.2693,8.517425 5.97835,5.658625 2.4367,1.31425 C1.8186,2.374925 1.4644,3.608325 1.4644,4.924325 C1.4644,7.41545 2.7321,9.613275 4.65885,10.9011 C3.4818,10.863825 2.374575,10.540775 1.406475,10.003 C1.40595,10.0331 1.405775,10.063025 1.405775,10.0933 C1.405775,13.572475 3.880975,16.474675 7.1659,17.13425 C6.563375,17.298225 5.929,17.3859 5.273975,17.3859 C4.811275,17.3859 4.361525,17.340925 3.922975,17.257275 C4.836825,20.10995 7.4886,22.185975 10.630725,22.244075 C8.1732,24.16995 5.0771,25.317775 1.7129,25.317775 C1.1333,25.317775 0.56175,25.283825 0,25.2175 C3.177825,27.255025 6.952225,28.443625 11.007325,28.443625 C24.215275,28.443625 31.4377,17.5021 31.4377,8.013075 C31.4377,7.70175 31.430875,7.392175 31.416875,7.084175 C32.819675,6.0718 34.03715,4.807075 35,3.367 L35,3.367 Z" id="Shape"></path>
                    </g>
                </g>
            </g>
        </g>
    </g>
</svg>