<?xml version="1.0" encoding="utf-8"?>
<!-- Generator: Adobe Illustrator 16.0.0, SVG Export Plug-In . SVG Version: 6.00 Build 0)  -->
<!DOCTYPE svg PUBLIC "-//W3C//DTD SVG 1.1//EN" "http://www.w3.org/Graphics/SVG/1.1/DTD/svg11.dtd">
<svg version="1.1" id="Layer_1" xmlns="http://www.w3.org/2000/svg" xmlns:xlink="http://www.w3.org/1999/xlink" x="0px" y="0px"
	 width="604.5px" height="147px" viewBox="0 0 604.5 147" enable-background="new 0 0 604.5 147" xml:space="preserve">
<g>
	<g>
		<g>
			<path fill="#10293F" d="M4.228,38.315c0-1.729,0.509-3.358,1.526-4.885s2.442-2.857,4.274-3.994
				c1.831-1.136,4.011-2.026,6.538-2.671c2.526-0.645,5.283-0.967,8.269-0.967c5.834,0,10.134,1.543,12.898,4.63
				s4.13,7.989,4.097,14.705L41.728,68.54c0,1.086-0.025,2.18-0.076,3.281c-0.051,1.104-0.161,2.366-0.33,3.791l7.378-0.407v4.376
				H33.79c-0.203-1.187-0.356-2.221-0.458-3.104c-0.102-0.882-0.187-1.814-0.254-2.799c-2.341,2.341-4.894,4.19-7.658,5.547
				c-2.765,1.355-5.69,2.035-8.777,2.035c-2.612,0-4.894-0.314-6.844-0.941c-1.951-0.628-3.57-1.501-4.859-2.621
				c-1.289-1.119-2.256-2.434-2.9-3.943c-0.645-1.509-0.967-3.129-0.967-4.859c0-2.136,0.466-4.087,1.399-5.851
				c0.933-1.764,2.188-3.333,3.766-4.707c1.577-1.373,3.417-2.561,5.521-3.562c2.103-1.001,4.333-1.823,6.691-2.468
				c2.357-0.645,4.766-1.111,7.226-1.399c2.459-0.288,4.858-0.415,7.199-0.382v-6.513c0-1.798-0.102-3.544-0.305-5.241
				c-0.204-1.695-0.654-3.238-1.349-4.631c-0.695-1.391-1.781-2.492-3.257-3.307s-3.18-1.221-5.113-1.221
				c-1.12,0-2.188,0.094-3.206,0.279c-1.018,0.188-2.019,0.501-3.002,0.941c-0.984,0.441-1.875,1.018-2.671,1.73
				c-0.798,0.712-1.45,1.561-1.959,2.543c0.509,0.578,0.855,1.214,1.043,1.908c0.186,0.696,0.279,1.366,0.279,2.01
				c0,0.408-0.085,0.875-0.254,1.4c-0.17,0.525-0.433,1.018-0.789,1.475c-0.356,0.459-0.813,0.832-1.374,1.12
				c-0.56,0.288-1.314,0.433-2.264,0.433c-1.357,0-2.435-0.5-3.231-1.502C4.626,40.953,4.228,39.74,4.228,38.315z M32.823,54.09
				c-1.595,0.068-3.248,0.212-4.961,0.432c-1.713,0.221-3.393,0.561-5.037,1.018c-1.646,0.459-3.198,1.043-4.656,1.756
				c-1.459,0.713-2.73,1.561-3.816,2.544c-1.086,0.984-1.934,2.12-2.544,3.409s-0.882,2.748-0.813,4.376
				c0.033,1.289,0.279,2.417,0.737,3.384s1.051,1.764,1.781,2.392c0.729,0.628,1.568,1.103,2.519,1.425
				c0.949,0.322,1.967,0.483,3.053,0.483c1.391,0,2.697-0.136,3.918-0.407c1.222-0.271,2.383-0.67,3.485-1.196
				c1.103-0.525,2.171-1.161,3.206-1.908c1.034-0.745,2.077-1.61,3.129-2.595V54.09z"/>
			<path fill="#10293F" d="M64.636,39.994c0-1.084,0.017-2.188,0.051-3.307c0.033-1.119,0.152-2.272,0.356-3.46l-7.378,0.407v-4.377
				c2.271,0,4.121-0.076,5.546-0.229s2.569-0.363,3.435-0.636c0.865-0.271,1.534-0.567,2.01-0.891
				c0.475-0.321,0.916-0.669,1.323-1.043h3.002c0.067,0.679,0.135,1.459,0.203,2.341c0.068,0.883,0.136,1.951,0.204,3.205
				c1.051-0.881,2.188-1.704,3.409-2.468c1.221-0.763,2.484-1.425,3.791-1.984c1.305-0.56,2.646-0.992,4.02-1.298
				c1.374-0.305,2.738-0.457,4.096-0.457c3.527,0,6.462,0.636,8.803,1.908c2.341,1.271,4.173,2.977,5.495,5.113
				c1.153-0.983,2.425-1.899,3.816-2.748c1.391-0.848,2.832-1.594,4.325-2.238c1.492-0.645,3.019-1.145,4.579-1.502
				c1.561-0.355,3.087-0.533,4.58-0.533c3.019,0,5.639,0.441,7.861,1.322c2.221,0.883,4.053,2.265,5.495,4.147
				c1.441,1.882,2.493,4.3,3.154,7.251c0.662,2.951,0.958,6.479,0.891,10.583l-0.102,19.438c0,1.391-0.018,2.62-0.051,3.688
				c-0.034,1.068-0.152,2.197-0.356,3.384l6.564-0.305v4.273h-21.27v-3.104c1.594,0,2.807-0.313,3.639-0.941
				c0.83-0.627,1.433-1.501,1.806-2.62c0.373-1.12,0.585-2.459,0.637-4.021c0.051-1.56,0.076-3.272,0.076-5.139V49.205
				c0-6.005-0.95-10.49-2.85-13.459c-1.9-2.968-4.919-4.452-9.058-4.452c-2.171,0-4.333,0.492-6.487,1.476
				c-2.154,0.984-4.028,2.205-5.622,3.664c0.712,2.34,1.068,4.867,1.068,7.581l-0.204,24.525c0,1.391-0.017,2.62-0.051,3.688
				s-0.152,2.197-0.355,3.384l6.563-0.305v4.273H90.383v-3.104c1.594,0,2.806-0.313,3.638-0.941c0.831-0.627,1.425-1.501,1.781-2.62
				c0.355-1.12,0.56-2.459,0.61-4.021c0.051-1.56,0.093-3.272,0.127-5.139l0.102-14.552c0.034-5.971-0.839-10.482-2.62-13.535
				s-4.725-4.58-8.828-4.58c-2.137,0-4.249,0.467-6.335,1.4c-2.086,0.933-3.859,2.145-5.317,3.637c0,0.814,0.008,1.688,0.025,2.621
				c0.017,0.934,0.025,1.926,0.025,2.977V68.54c0,1.391-0.018,2.62-0.051,3.688c-0.034,1.068-0.152,2.197-0.356,3.384l6.564-0.305
				v4.273h-21.27v-3.104c1.595,0,2.807-0.313,3.639-0.941c0.831-0.627,1.433-1.501,1.806-2.62c0.373-1.12,0.586-2.459,0.637-4.021
				c0.051-1.56,0.076-3.272,0.076-5.139V39.994z"/>
			<path fill="#10293F" d="M157.557,14.451c0-1.085,0.008-2.137,0.025-3.154c0.017-1.018,0.11-2.221,0.28-3.613l-7.378,0.408V3.715
				c2.271,0,4.163-0.076,5.673-0.229c1.509-0.152,2.739-0.364,3.689-0.637c0.949-0.271,1.695-0.566,2.238-0.89
				c0.543-0.322,1.018-0.669,1.425-1.044h3.002v31.09c1.934-1.934,4.231-3.451,6.896-4.554c2.662-1.103,5.639-1.653,8.93-1.653
				c3.324,0,6.419,0.619,9.286,1.857c2.866,1.238,5.359,3.002,7.479,5.291c2.119,2.29,3.782,5.072,4.986,8.346
				s1.807,6.945,1.807,11.016c0,4.443-0.756,8.446-2.265,12.008c-1.51,3.562-3.511,6.598-6.004,9.108s-5.377,4.444-8.65,5.801
				c-3.273,1.355-6.657,2.035-10.15,2.035c-1.188,0-2.442-0.094-3.766-0.28s-2.663-0.526-4.02-1.018
				c-1.357-0.491-2.681-1.145-3.969-1.959c-1.29-0.814-2.477-1.849-3.562-3.104l-2.493,4.681h-3.663L157.557,14.451z
				 M179.131,30.938c-2.307,0-4.579,0.534-6.818,1.604c-2.238,1.068-4.172,2.502-5.801,4.299v26.357
				c0,2.781,0.339,5.062,1.018,6.844c0.679,1.78,1.595,3.188,2.748,4.223c1.153,1.035,2.468,1.748,3.943,2.138
				s3.01,0.585,4.605,0.585c2.51,0,4.773-0.534,6.792-1.603c2.019-1.069,3.731-2.578,5.14-4.529c1.407-1.95,2.493-4.281,3.257-6.995
				c0.763-2.714,1.145-5.717,1.145-9.007c0-3.493-0.331-6.708-0.992-9.642c-0.661-2.935-1.653-5.453-2.977-7.557
				s-2.985-3.748-4.986-4.936C184.202,31.531,181.845,30.938,179.131,30.938z"/>
			<path fill="#10293F" d="M264.727,48.848l-36.687,0.611c-0.034,4.011,0.271,7.647,0.916,10.91c0.644,3.264,1.661,6.05,3.053,8.36
				c1.391,2.312,3.18,4.096,5.368,5.354c2.188,1.258,4.809,1.886,7.861,1.886c1.628,0,3.29-0.222,4.986-0.666
				c1.696-0.443,3.333-1.048,4.91-1.816c1.577-0.768,3.027-1.688,4.351-2.764c1.323-1.074,2.425-2.226,3.308-3.455l2.544,2.086
				c-1.425,2.172-3.078,4.012-4.961,5.521s-3.834,2.739-5.852,3.688c-2.019,0.95-4.045,1.637-6.08,2.061
				c-2.036,0.424-3.936,0.637-5.699,0.637c-3.596,0-6.945-0.646-10.05-1.934c-3.104-1.289-5.792-3.138-8.064-5.547
				c-2.273-2.408-4.062-5.309-5.368-8.7c-1.307-3.392-1.959-7.208-1.959-11.449c0-3.663,0.627-7.165,1.883-10.507
				c1.254-3.341,3.035-6.301,5.343-8.879c2.306-2.577,5.07-4.63,8.294-6.157c3.222-1.526,6.801-2.289,10.736-2.289
				c2.883,0,5.604,0.475,8.166,1.424c2.562,0.951,4.809,2.375,6.742,4.274c1.934,1.9,3.46,4.3,4.579,7.2
				C264.167,41.598,264.727,44.981,264.727,48.848z M243.661,29.92c-4.071,0-7.429,1.191-10.075,3.575
				c-2.646,2.384-4.394,6.247-5.24,11.588h26.561c0-1.825-0.204-3.642-0.61-5.452c-0.407-1.809-1.062-3.431-1.959-4.867
				c-0.899-1.438-2.062-2.604-3.486-3.5C247.426,30.368,245.696,29.92,243.661,29.92z"/>
			<path fill="#10293F" d="M306.512,31.497c-1.322-0.033-2.664,0.212-4.02,0.737c-1.357,0.527-2.689,1.299-3.995,2.316
				s-2.536,2.238-3.688,3.663c-1.154,1.425-2.188,3.002-3.104,4.731l0.102,25.595c0,1.391-0.017,2.62-0.051,3.688
				s-0.152,2.197-0.355,3.384l6.563-0.305v4.273h-21.371v-3.104c1.595,0,2.807-0.313,3.639-0.941
				c0.831-0.627,1.433-1.501,1.806-2.62c0.373-1.12,0.586-2.459,0.637-4.021c0.051-1.56,0.076-3.272,0.076-5.139V39.943
				c0-1.085,0.017-2.179,0.051-3.281c0.033-1.102,0.152-2.247,0.356-3.435l-7.378,0.306v-4.275h3.205
				c1.492,0,2.73-0.076,3.715-0.229c0.983-0.152,1.807-0.363,2.468-0.636c0.661-0.271,1.212-0.567,1.653-0.891
				c0.44-0.321,0.865-0.669,1.272-1.043h3.002c0.102,1.086,0.194,2.435,0.28,4.045c0.084,1.612,0.16,3.688,0.229,6.233
				c0.78-1.289,1.781-2.586,3.002-3.893c1.222-1.306,2.595-2.476,4.122-3.511c1.527-1.034,3.172-1.883,4.936-2.544
				c1.764-0.662,3.578-0.992,5.445-0.992c0.949,0,1.873,0.127,2.771,0.381c0.898,0.255,1.68,0.654,2.342,1.196
				c0.662,0.543,1.195,1.222,1.604,2.035c0.406,0.813,0.609,1.798,0.609,2.951c0,0.476-0.094,1.001-0.279,1.577
				c-0.188,0.578-0.492,1.119-0.916,1.629c-0.424,0.508-0.959,0.934-1.604,1.271c-0.645,0.34-1.441,0.509-2.391,0.509
				c-0.781,0-1.484-0.169-2.111-0.509c-0.629-0.338-1.154-0.771-1.578-1.297s-0.73-1.137-0.916-1.832
				C306.451,33.016,306.41,32.277,306.512,31.497z"/>
		</g>
		<g>
			<g>
				<path fill="#10293F" d="M368.562,39.994c0-1.084,0.016-2.188,0.051-3.307c0.033-1.119,0.152-2.272,0.355-3.46l-7.377,0.407
					v-4.377c2.271,0,4.121-0.076,5.545-0.229c1.426-0.152,2.57-0.363,3.436-0.636c0.865-0.271,1.535-0.567,2.01-0.891
					c0.475-0.321,0.898-0.669,1.271-1.043h3.053c0.068,0.679,0.137,1.476,0.205,2.392c0.066,0.916,0.135,1.984,0.203,3.205
					c1.051-0.916,2.213-1.764,3.484-2.544c1.273-0.78,2.613-1.441,4.021-1.984c1.406-0.542,2.84-0.967,4.299-1.272
					c1.457-0.305,2.916-0.457,4.375-0.457c3.02,0,5.912,0.594,8.676,1.78c2.766,1.188,5.199,2.893,7.303,5.114
					c2.102,2.222,3.781,4.936,5.037,8.141c1.254,3.206,1.883,6.827,1.883,10.863c0,2.951-0.332,5.733-0.992,8.346
					c-0.662,2.612-1.586,5.012-2.773,7.199c-1.188,2.188-2.604,4.147-4.248,5.877c-1.646,1.73-3.453,3.197-5.42,4.401
					s-4.062,2.128-6.283,2.773c-2.223,0.644-4.504,0.967-6.844,0.967c-4.818,0-8.973-1.138-12.467-3.409l-0.051,17.25
					c0,1.391-0.018,2.619-0.051,3.688c-0.035,1.068-0.152,2.197-0.357,3.385l6.564-0.305v4.273h-21.27v-3.104
					c1.596,0,2.807-0.314,3.639-0.941c0.832-0.629,1.426-1.502,1.781-2.621s0.561-2.459,0.611-4.02s0.092-3.273,0.127-5.139
					L368.562,39.994z M389.781,30.887c-1.223,0-2.41,0.162-3.562,0.484c-1.154,0.322-2.256,0.747-3.307,1.273
					c-1.053,0.526-2.045,1.146-2.977,1.859c-0.934,0.713-1.756,1.46-2.469,2.24c0,0.272,0.008,0.588,0.025,0.943
					s0.025,0.959,0.025,1.809c0,0.849,0,2.046,0,3.59c0,1.547-0.008,3.617-0.025,6.215c-0.018,2.6-0.033,5.833-0.051,9.704
					c-0.018,3.872-0.025,8.558-0.025,14.059c1.73,1.291,3.629,2.293,5.699,3.006c2.068,0.714,4.24,1.069,6.512,1.069
					c2.477,0,4.699-0.594,6.666-1.782s3.646-2.844,5.037-4.967s2.459-4.636,3.207-7.539c0.746-2.903,1.119-6.087,1.119-9.551
					c0-2.818-0.297-5.569-0.891-8.252s-1.527-5.077-2.799-7.183s-2.908-3.795-4.91-5.068S392.631,30.887,389.781,30.887z"/>
				<path fill="#10293F" d="M430.141,38.315c0-1.729,0.51-3.358,1.527-4.885s2.441-2.857,4.273-3.994
					c1.832-1.136,4.012-2.026,6.539-2.671c2.525-0.645,5.283-0.967,8.268-0.967c5.834,0,10.135,1.543,12.898,4.63
					c2.766,3.087,4.131,7.989,4.098,14.705l-0.104,23.406c0,1.086-0.025,2.18-0.076,3.281c-0.051,1.104-0.16,2.366-0.33,3.791
					l7.379-0.407v4.376h-14.91c-0.203-1.187-0.355-2.221-0.457-3.104c-0.102-0.882-0.188-1.814-0.254-2.799
					c-2.342,2.341-4.895,4.19-7.658,5.547c-2.766,1.355-5.691,2.035-8.777,2.035c-2.613,0-4.895-0.314-6.844-0.941
					c-1.951-0.628-3.57-1.501-4.859-2.621c-1.289-1.119-2.256-2.434-2.9-3.943c-0.645-1.509-0.967-3.129-0.967-4.859
					c0-2.136,0.465-4.087,1.398-5.851s2.189-3.333,3.766-4.707c1.578-1.373,3.418-2.561,5.521-3.562
					c2.102-1.001,4.332-1.823,6.691-2.468c2.357-0.645,4.766-1.111,7.225-1.399s4.859-0.415,7.199-0.382v-6.513
					c0-1.798-0.102-3.544-0.305-5.241c-0.203-1.695-0.654-3.238-1.348-4.631c-0.695-1.391-1.781-2.492-3.258-3.307
					c-1.475-0.814-3.18-1.221-5.113-1.221c-1.119,0-2.188,0.094-3.205,0.279c-1.018,0.188-2.02,0.501-3.002,0.941
					c-0.984,0.441-1.875,1.018-2.672,1.73c-0.797,0.712-1.449,1.561-1.959,2.543c0.51,0.578,0.855,1.214,1.043,1.908
					c0.186,0.696,0.279,1.366,0.279,2.01c0,0.408-0.084,0.875-0.254,1.4s-0.432,1.018-0.789,1.475
					c-0.355,0.459-0.812,0.832-1.373,1.12s-1.314,0.433-2.264,0.433c-1.357,0-2.436-0.5-3.232-1.502
					C430.539,40.953,430.141,39.74,430.141,38.315z M458.736,54.09c-1.594,0.068-3.248,0.212-4.961,0.432
					c-1.713,0.221-3.393,0.561-5.037,1.018c-1.646,0.459-3.197,1.043-4.656,1.756s-2.73,1.561-3.816,2.544
					c-1.086,0.984-1.934,2.12-2.543,3.409c-0.611,1.289-0.883,2.748-0.814,4.376c0.033,1.289,0.279,2.417,0.738,3.384
					c0.457,0.967,1.051,1.764,1.781,2.392c0.729,0.628,1.568,1.103,2.518,1.425s1.967,0.483,3.053,0.483
					c1.391,0,2.697-0.136,3.918-0.407c1.223-0.271,2.383-0.67,3.486-1.196c1.102-0.525,2.17-1.161,3.205-1.908
					c1.035-0.745,2.078-1.61,3.129-2.595V54.09z"/>
				<path fill="#10293F" d="M514.311,31.497c-1.322-0.033-2.664,0.212-4.02,0.737c-1.357,0.527-2.689,1.299-3.994,2.316
					c-1.307,1.018-2.537,2.238-3.689,3.663c-1.154,1.425-2.188,3.002-3.104,4.731l0.102,25.595c0,1.391-0.018,2.62-0.051,3.688
					c-0.035,1.068-0.152,2.197-0.355,3.384l6.562-0.305v4.273h-21.371v-3.104c1.596,0,2.807-0.313,3.639-0.941
					c0.832-0.627,1.434-1.501,1.807-2.62c0.373-1.12,0.586-2.459,0.637-4.021c0.051-1.56,0.076-3.272,0.076-5.139V39.943
					c0-1.085,0.016-2.179,0.051-3.281c0.033-1.102,0.152-2.247,0.355-3.435l-7.377,0.306v-4.275h3.205
					c1.492,0,2.73-0.076,3.715-0.229c0.982-0.152,1.807-0.363,2.467-0.636c0.662-0.271,1.213-0.567,1.654-0.891
					c0.439-0.321,0.865-0.669,1.271-1.043h3.002c0.102,1.086,0.195,2.435,0.281,4.045c0.084,1.612,0.16,3.688,0.229,6.233
					c0.779-1.289,1.781-2.586,3.002-3.893c1.221-1.306,2.594-2.476,4.121-3.511c1.527-1.034,3.172-1.883,4.936-2.544
					c1.764-0.662,3.578-0.992,5.445-0.992c0.949,0,1.873,0.127,2.771,0.381c0.898,0.255,1.68,0.654,2.342,1.196
					c0.662,0.543,1.195,1.222,1.604,2.035c0.406,0.813,0.609,1.798,0.609,2.951c0,0.476-0.094,1.001-0.279,1.577
					c-0.188,0.578-0.492,1.119-0.916,1.629c-0.424,0.508-0.959,0.934-1.604,1.271c-0.645,0.34-1.441,0.509-2.391,0.509
					c-0.781,0-1.484-0.169-2.111-0.509c-0.629-0.338-1.154-0.771-1.578-1.297s-0.73-1.137-0.916-1.832
					C514.25,33.016,514.209,32.277,514.311,31.497z"/>
				<path fill="#10293F" d="M538.287,39.994c0-1.084,0.025-2.137,0.076-3.154s0.16-2.221,0.33-3.612l-7.377,0.407v-4.377
					c2.271,0,4.154-0.076,5.646-0.229s2.715-0.363,3.664-0.636c0.949-0.271,1.688-0.567,2.213-0.891
					c0.525-0.321,0.992-0.669,1.4-1.043h3.002v42.08c0,1.391-0.018,2.62-0.051,3.688c-0.035,1.068-0.152,2.197-0.357,3.384
					l6.564-0.305v4.273h-21.27v-3.104c1.596,0,2.807-0.313,3.639-0.941c0.832-0.627,1.434-1.501,1.807-2.62
					c0.373-1.12,0.586-2.459,0.637-4.021c0.051-1.56,0.076-3.272,0.076-5.139V39.994z M548.209,9.975
					c0,0.848-0.162,1.645-0.484,2.391s-0.736,1.399-1.246,1.959c-0.508,0.561-1.104,0.992-1.781,1.298s-1.391,0.458-2.137,0.458
					s-1.459-0.152-2.137-0.458c-0.68-0.306-1.281-0.737-1.807-1.298c-0.525-0.56-0.934-1.213-1.221-1.959
					c-0.289-0.746-0.434-1.543-0.434-2.391c0-0.883,0.154-1.705,0.459-2.469s0.721-1.433,1.246-2.01
					c0.525-0.576,1.127-1.025,1.807-1.348c0.678-0.322,1.406-0.484,2.188-0.484s1.502,0.162,2.162,0.484
					c0.662,0.322,1.248,0.771,1.756,1.348c0.51,0.577,0.908,1.246,1.195,2.01C548.064,8.27,548.209,9.092,548.209,9.975z"/>
				<path fill="#10293F" d="M583.531,77.139c1.324,0,2.654-0.16,3.994-0.481s2.562-0.82,3.664-1.497s2.002-1.531,2.697-2.563
					s1.043-2.258,1.043-3.679c0-1.657-0.432-3.07-1.297-4.237s-2.002-2.198-3.41-3.095s-3.02-1.7-4.834-2.41
					c-1.814-0.711-3.662-1.439-5.545-2.186s-3.725-1.569-5.521-2.469c-1.799-0.898-3.4-1.959-4.809-3.18s-2.545-2.68-3.408-4.376
					c-0.865-1.696-1.299-3.714-1.299-6.056c0-1.457,0.271-3.061,0.814-4.809c0.543-1.746,1.492-3.383,2.85-4.91
					c1.355-1.525,3.18-2.807,5.471-3.841c2.289-1.034,5.18-1.552,8.674-1.552c0.949,0,1.959,0.068,3.029,0.203
					c1.068,0.136,2.162,0.382,3.281,0.738c1.119,0.355,2.238,0.822,3.357,1.398c1.119,0.578,2.223,1.29,3.309,2.137l-0.256-3.969
					h4.377v18.268h-3.256c-0.137-1.798-0.484-3.578-1.043-5.343c-0.561-1.763-1.375-3.35-2.443-4.757
					c-1.068-1.408-2.416-2.553-4.045-3.436c-1.629-0.881-3.562-1.322-5.801-1.322c-1.629,0-3.07,0.212-4.324,0.636
					c-1.256,0.425-2.316,1.001-3.182,1.729c-0.865,0.73-1.518,1.57-1.959,2.52S573,36.553,573,37.604
					c0,1.696,0.432,3.154,1.297,4.375c0.865,1.222,2.01,2.308,3.434,3.258c1.426,0.949,3.055,1.806,4.885,2.568
					c1.832,0.764,3.697,1.545,5.598,2.342s3.766,1.645,5.598,2.543c1.832,0.9,3.459,1.959,4.885,3.181
					c1.424,1.222,2.57,2.646,3.434,4.274c0.865,1.628,1.299,3.562,1.299,5.801c0,2.612-0.527,4.884-1.578,6.817
					s-2.434,3.528-4.146,4.783c-1.713,1.256-3.646,2.188-5.801,2.799s-4.334,0.916-6.539,0.916c-3.527,0-6.631-0.467-9.311-1.399
					s-4.885-1.992-6.615-3.181l0.355,3.613h-4.375l-0.611-17.911h3.207c0.135,2.164,0.635,4.15,1.5,5.958
					c0.865,1.809,2.002,3.364,3.41,4.665c1.406,1.302,3.018,2.316,4.832,3.043S581.496,77.139,583.531,77.139z"/>
			</g>
		</g>
	</g>
	<g>
		<g>
			<path fill="#59B8CE" d="M236.966,129.949c0.55-0.011,1.048-0.16,1.496-0.45c0.447-0.29,0.842-0.651,1.183-1.084
				s0.629-0.903,0.863-1.412c0.233-0.509,0.417-0.987,0.549-1.435h1.068c0,0.834-0.002,1.612-0.007,2.335
				c-0.006,0.723-0.008,1.404-0.008,2.046h5.267v1.221l-5.267,0.062c-0.011,1.354-0.016,2.509-0.016,3.465
				c0,0.957-0.002,1.756-0.008,2.396c-0.005,0.642-0.007,1.147-0.007,1.519c0,0.372-0.003,0.654-0.008,0.848
				c-0.006,0.193-0.008,0.318-0.008,0.374s0,0.089,0,0.099c0,0.713,0.038,1.342,0.114,1.886c0.076,0.545,0.206,1.002,0.39,1.374
				c0.183,0.371,0.425,0.651,0.725,0.839c0.301,0.188,0.68,0.283,1.138,0.283c0.539,0,1.073-0.163,1.603-0.489
				c0.529-0.325,0.997-0.788,1.404-1.389l0.84,0.687c-0.458,0.692-0.914,1.234-1.366,1.626c-0.453,0.392-0.883,0.688-1.29,0.886
				s-0.786,0.322-1.137,0.374c-0.352,0.051-0.659,0.076-0.924,0.076c-0.315,0-0.639-0.025-0.97-0.076
				c-0.331-0.052-0.656-0.15-0.977-0.298s-0.621-0.356-0.9-0.626c-0.28-0.27-0.527-0.618-0.741-1.046
				c-0.213-0.427-0.381-0.946-0.503-1.557s-0.179-1.333-0.168-2.168l0.061-9.036l-2.396,0.015V129.949z"/>
			<path fill="#59B8CE" d="M266.612,136.36l-11.007,0.183c-0.01,1.204,0.082,2.295,0.275,3.273s0.498,1.814,0.916,2.508
				c0.417,0.693,0.954,1.229,1.61,1.606c0.656,0.377,1.442,0.565,2.358,0.565c0.488,0,0.986-0.066,1.496-0.199
				c0.509-0.134,1-0.314,1.473-0.545c0.474-0.23,0.908-0.507,1.306-0.829c0.396-0.323,0.727-0.668,0.992-1.037l0.763,0.626
				c-0.428,0.651-0.924,1.204-1.488,1.656c-0.564,0.453-1.15,0.822-1.755,1.106c-0.606,0.285-1.214,0.491-1.824,0.618
				c-0.611,0.128-1.181,0.191-1.71,0.191c-1.079,0-2.084-0.193-3.015-0.58c-0.932-0.387-1.738-0.941-2.42-1.664
				s-1.219-1.593-1.61-2.61s-0.588-2.162-0.588-3.435c0-1.099,0.188-2.149,0.565-3.152c0.376-1.002,0.91-1.89,1.603-2.663
				c0.691-0.773,1.521-1.39,2.488-1.848s2.04-0.687,3.221-0.687c0.865,0,1.682,0.143,2.45,0.428
				c0.768,0.284,1.442,0.712,2.022,1.282c0.58,0.569,1.038,1.289,1.374,2.159S266.612,135.2,266.612,136.36z M260.292,130.682
				c-1.221,0-2.229,0.357-3.022,1.072c-0.794,0.716-1.317,1.874-1.572,3.477h7.969c0-0.548-0.062-1.093-0.184-1.636
				c-0.122-0.542-0.318-1.029-0.588-1.46s-0.618-0.781-1.045-1.05C261.422,130.816,260.902,130.682,260.292,130.682z"/>
			<path fill="#59B8CE" d="M271.208,129.949h6.442v0.931c-0.469,0.021-0.838,0.082-1.106,0.184c-0.271,0.102-0.431,0.262-0.481,0.48
				s0.005,0.507,0.168,0.862c0.163,0.356,0.438,0.799,0.824,1.328l1.816,2.473c2.605-3.185,4.02-4.885,4.244-5.098l-2.152,0.122
				v-1.282h5.129v0.931c-0.428,0.122-0.802,0.272-1.122,0.45c-0.32,0.179-0.626,0.397-0.916,0.656
				c-0.29,0.26-1.758,1.967-4.404,5.122l4.305,5.357c0.245,0.306,0.476,0.605,0.695,0.9c0.219,0.296,0.444,0.637,0.679,1.023
				l1.42-0.092v1.282h-6.045v-0.932c0.254,0,0.479-0.027,0.672-0.083c0.193-0.057,0.333-0.147,0.42-0.275
				c0.086-0.127,0.106-0.287,0.061-0.48s-0.176-0.428-0.389-0.702l-3.298-4.061c-2.127,2.91-3.238,4.427-3.335,4.549
				s-0.201,0.244-0.313,0.366c-0.111,0.122-0.244,0.265-0.396,0.428l2.396-0.092v1.282h-5.251v-0.932
				c0.315-0.081,0.596-0.188,0.84-0.32c0.244-0.132,0.476-0.3,0.694-0.504c0.219-0.203,1.737-2.132,4.557-5.785
				c-2.564-3.419-3.959-5.348-4.183-5.785c-0.225-0.438-0.392-0.804-0.504-1.099l-1.466,0.076V129.949z"/>
			<path fill="#59B8CE" d="M290.397,129.949c0.55-0.011,1.048-0.16,1.496-0.45c0.447-0.29,0.842-0.651,1.183-1.084
				s0.629-0.903,0.863-1.412c0.233-0.509,0.417-0.987,0.549-1.435h1.068c0,0.834-0.002,1.612-0.007,2.335
				c-0.006,0.723-0.008,1.404-0.008,2.046h5.267v1.221l-5.267,0.062c-0.011,1.354-0.016,2.509-0.016,3.465
				c0,0.957-0.002,1.756-0.008,2.396c-0.005,0.642-0.007,1.147-0.007,1.519c0,0.372-0.003,0.654-0.008,0.848
				c-0.006,0.193-0.008,0.318-0.008,0.374s0,0.089,0,0.099c0,0.713,0.038,1.342,0.114,1.886c0.076,0.545,0.206,1.002,0.39,1.374
				c0.183,0.371,0.425,0.651,0.725,0.839c0.301,0.188,0.68,0.283,1.138,0.283c0.539,0,1.073-0.163,1.603-0.489
				c0.529-0.325,0.997-0.788,1.404-1.389l0.84,0.687c-0.458,0.692-0.914,1.234-1.366,1.626c-0.453,0.392-0.883,0.688-1.29,0.886
				s-0.786,0.322-1.137,0.374c-0.352,0.051-0.659,0.076-0.924,0.076c-0.315,0-0.639-0.025-0.97-0.076
				c-0.331-0.052-0.656-0.15-0.977-0.298s-0.621-0.356-0.9-0.626c-0.28-0.27-0.527-0.618-0.741-1.046
				c-0.213-0.427-0.381-0.946-0.503-1.557s-0.179-1.333-0.168-2.168l0.061-9.036l-2.396,0.015V129.949z"/>
			<path fill="#59B8CE" d="M307.725,133.704c0-0.325,0.008-0.642,0.023-0.946c0.015-0.306,0.048-0.667,0.099-1.084l-2.213,0.122
				v-1.312c0.682,0,1.246-0.023,1.694-0.069c0.447-0.045,0.813-0.108,1.099-0.19c0.285-0.081,0.506-0.17,0.664-0.268
				c0.158-0.096,0.298-0.2,0.42-0.312h0.9v12.624c0,0.417-0.005,0.786-0.015,1.106c-0.011,0.321-0.046,0.659-0.107,1.016l1.97-0.092
				v1.282h-6.381v-0.932c0.479,0,0.842-0.094,1.091-0.282c0.25-0.188,0.431-0.45,0.542-0.786c0.112-0.336,0.176-0.737,0.191-1.206
				c0.015-0.468,0.022-0.981,0.022-1.541V133.704z M310.701,124.698c0,0.254-0.048,0.493-0.145,0.717
				c-0.097,0.225-0.222,0.42-0.374,0.588c-0.153,0.168-0.331,0.298-0.534,0.39c-0.204,0.091-0.418,0.137-0.642,0.137
				s-0.438-0.046-0.641-0.137c-0.204-0.092-0.385-0.222-0.542-0.39c-0.158-0.168-0.28-0.363-0.366-0.588
				c-0.087-0.224-0.13-0.463-0.13-0.717c0-0.265,0.046-0.512,0.137-0.741c0.092-0.229,0.217-0.43,0.374-0.603
				c0.158-0.173,0.339-0.308,0.542-0.404c0.204-0.097,0.423-0.146,0.656-0.146c0.234,0,0.451,0.049,0.649,0.146
				s0.374,0.231,0.526,0.404s0.272,0.374,0.358,0.603C310.658,124.187,310.701,124.434,310.701,124.698z"/>
			<path fill="#59B8CE" d="M318.839,126.041c0-0.325,0.002-0.641,0.008-0.946c0.005-0.306,0.032-0.666,0.084-1.084l-2.214,0.122
				v-1.312c0.682,0,1.249-0.023,1.702-0.068c0.453-0.046,0.821-0.109,1.106-0.191c0.285-0.081,0.509-0.17,0.672-0.267
				s0.306-0.201,0.428-0.313h0.9l0.03,20.287c0,0.417-0.01,0.786-0.03,1.106c-0.021,0.321-0.062,0.659-0.122,1.016l1.969-0.092
				v1.282h-6.38v-0.932c0.478,0,0.842-0.094,1.091-0.282c0.249-0.188,0.43-0.45,0.542-0.786s0.176-0.737,0.19-1.206
				c0.016-0.468,0.023-0.981,0.023-1.541V126.041z"/>
			<path fill="#59B8CE" d="M342.639,136.36l-11.007,0.183c-0.01,1.204,0.082,2.295,0.275,3.273s0.498,1.814,0.916,2.508
				c0.417,0.693,0.954,1.229,1.61,1.606c0.656,0.377,1.442,0.565,2.358,0.565c0.488,0,0.986-0.066,1.496-0.199
				c0.509-0.134,1-0.314,1.473-0.545c0.474-0.23,0.908-0.507,1.306-0.829c0.396-0.323,0.727-0.668,0.992-1.037l0.763,0.626
				c-0.428,0.651-0.924,1.204-1.488,1.656c-0.564,0.453-1.15,0.822-1.755,1.106c-0.606,0.285-1.214,0.491-1.824,0.618
				c-0.611,0.128-1.181,0.191-1.71,0.191c-1.079,0-2.084-0.193-3.015-0.58c-0.932-0.387-1.738-0.941-2.42-1.664
				s-1.219-1.593-1.61-2.61s-0.588-2.162-0.588-3.435c0-1.099,0.188-2.149,0.565-3.152c0.376-1.002,0.91-1.89,1.603-2.663
				c0.691-0.773,1.521-1.39,2.488-1.848s2.04-0.687,3.221-0.687c0.865,0,1.682,0.143,2.45,0.428
				c0.768,0.284,1.442,0.712,2.022,1.282c0.58,0.569,1.038,1.289,1.374,2.159S342.639,135.2,342.639,136.36z M336.318,130.682
				c-1.221,0-2.229,0.357-3.022,1.072c-0.794,0.716-1.317,1.874-1.572,3.477h7.969c0-0.548-0.062-1.093-0.184-1.636
				c-0.122-0.542-0.318-1.029-0.588-1.46s-0.618-0.781-1.045-1.05C337.448,130.816,336.929,130.682,336.318,130.682z"/>
			<path fill="#59B8CE" d="M353.937,144.848c0.397,0,0.796-0.049,1.198-0.145c0.402-0.097,0.769-0.246,1.1-0.449
				c0.33-0.203,0.6-0.46,0.809-0.77s0.313-0.677,0.313-1.104c0-0.497-0.13-0.921-0.39-1.271c-0.26-0.351-0.601-0.66-1.022-0.929
				c-0.423-0.27-0.906-0.51-1.45-0.724c-0.545-0.213-1.1-0.432-1.664-0.655s-1.117-0.471-1.656-0.74
				c-0.54-0.27-1.021-0.588-1.442-0.954c-0.423-0.366-0.764-0.804-1.022-1.313c-0.26-0.509-0.39-1.114-0.39-1.816
				c0-0.438,0.081-0.918,0.244-1.442c0.163-0.523,0.447-1.015,0.854-1.473s0.954-0.842,1.642-1.152
				c0.687-0.311,1.554-0.466,2.603-0.466c0.284,0,0.588,0.021,0.908,0.061c0.32,0.041,0.648,0.115,0.984,0.222
				s0.672,0.247,1.008,0.42s0.666,0.387,0.992,0.641l-0.076-1.19h1.312v5.48h-0.977c-0.041-0.539-0.146-1.074-0.313-1.604
				c-0.168-0.528-0.412-1.005-0.732-1.427s-0.726-0.766-1.214-1.03s-1.068-0.397-1.74-0.397c-0.488,0-0.921,0.064-1.298,0.191
				c-0.376,0.127-0.694,0.3-0.953,0.519c-0.26,0.219-0.456,0.471-0.588,0.756c-0.133,0.285-0.198,0.585-0.198,0.9
				c0,0.509,0.129,0.946,0.389,1.313c0.26,0.366,0.604,0.691,1.03,0.977c0.428,0.285,0.916,0.542,1.466,0.771
				c0.55,0.229,1.109,0.464,1.679,0.702c0.57,0.239,1.13,0.494,1.68,0.764c0.549,0.27,1.038,0.588,1.465,0.954
				c0.428,0.366,0.771,0.794,1.03,1.282c0.26,0.488,0.39,1.068,0.39,1.74c0,0.783-0.158,1.465-0.474,2.045s-0.729,1.059-1.244,1.436
				c-0.514,0.376-1.094,0.656-1.739,0.839c-0.646,0.184-1.301,0.275-1.962,0.275c-1.059,0-1.99-0.141-2.794-0.42
				c-0.804-0.28-1.465-0.598-1.984-0.954l0.107,1.084h-1.313l-0.183-5.373h0.962c0.04,0.648,0.19,1.245,0.45,1.787
				c0.26,0.543,0.601,1.009,1.022,1.399s0.905,0.695,1.45,0.913C352.748,144.738,353.326,144.848,353.937,144.848z"/>
		</g>
		
			<line fill="none" stroke="#59B8CE" stroke-width="1.5" stroke-miterlimit="10" x1="204.634" y1="137.669" x2="28.121" y2="137.669"/>
		
			<line fill="none" stroke="#59B8CE" stroke-width="1.5" stroke-miterlimit="10" x1="574.405" y1="137.669" x2="397.897" y2="137.669"/>
		<path fill="#59B8CE" d="M25.173,137.673c0,2.174,1.768,3.938,3.938,3.938c2.175,0,3.938-1.765,3.938-3.938
			c0-2.175-1.764-3.938-3.938-3.938C26.94,133.734,25.173,135.498,25.173,137.673z"/>
		<path fill="#59B8CE" d="M571.451,137.673c0,2.174,1.768,3.938,3.938,3.938c2.176,0,3.938-1.765,3.938-3.938
			c0-2.175-1.763-3.938-3.938-3.938C573.219,133.734,571.451,135.498,571.451,137.673z"/>
	</g>
</g>
</svg>
