<?xml version="1.0" encoding="utf-8"?>
<!-- Generator: Adobe Illustrator 16.0.4, SVG Export Plug-In . SVG Version: 6.00 Build 0)  -->
<!DOCTYPE svg PUBLIC "-//W3C//DTD SVG 1.1//EN" "http://www.w3.org/Graphics/SVG/1.1/DTD/svg11.dtd">
<svg version="1.1" id="Layer_1" xmlns="http://www.w3.org/2000/svg" xmlns:xlink="http://www.w3.org/1999/xlink" x="0px" y="0px"
	 width="200px" height="199.996px" viewBox="0 0 200 199.996" enable-background="new 0 0 200 199.996" xml:space="preserve">
<path fill="#125688" d="M161.349,0H38.651C17.338,0,0,17.334,0,38.648v40.827v81.873c0,21.314,17.338,38.648,38.651,38.648h122.701
	c21.313,0,38.647-17.334,38.647-38.648V79.471V38.644C199.996,17.331,182.661,0,161.349,0z M172.435,23.047l4.42-0.016v4.4v29.5
	l-33.786,0.11l-0.114-33.896L172.435,23.047z M71.453,79.471C77.859,70.606,88.252,64.795,100,64.795s22.141,5.811,28.539,14.675
	c4.168,5.783,6.666,12.859,6.666,20.525c0,19.41-15.807,35.197-35.209,35.197c-19.411,0-35.201-15.787-35.201-35.197
	C64.799,92.33,67.289,85.254,71.453,79.471z M180.511,161.344c0,10.574-8.597,19.162-19.162,19.162H38.651
	c-10.569,0-19.166-8.588-19.166-19.162V79.471H49.34c-2.58,6.343-4.026,13.269-4.026,20.525c0,30.146,24.528,54.689,54.687,54.689
	s54.687-24.543,54.687-54.689c0-7.257-1.458-14.183-4.034-20.525h29.858V161.344z"/>
</svg>
