<?xml version="1.0" encoding="utf-8"?>
<!-- Generator: Adobe Illustrator 16.0.4, SVG Export Plug-In . SVG Version: 6.00 Build 0)  -->
<!DOCTYPE svg PUBLIC "-//W3C//DTD SVG 1.1//EN" "http://www.w3.org/Graphics/SVG/1.1/DTD/svg11.dtd">
<svg version="1.1" id="Layer_1" xmlns="http://www.w3.org/2000/svg" xmlns:xlink="http://www.w3.org/1999/xlink" x="0px" y="0px"
	 width="200px" height="199.996px" viewBox="0 0 200 199.996" enable-background="new 0 0 200 199.996" xml:space="preserve">
<g>
	<g>
		<g>
			<path fill="#0078B5" d="M185.184,0.004H14.751C6.613,0.004,0,6.459,0,14.413v171.154c0,7.964,6.613,14.431,14.751,14.431h170.433
				c8.154,0,14.816-6.467,14.816-14.431V14.413C200,6.459,193.338,0.004,185.184,0.004z M59.33,170.42H29.638V74.982H59.33V170.42z
				 M44.492,61.932c-9.532,0-17.209-7.706-17.209-17.203c0-9.483,7.677-17.192,17.209-17.192c9.488,0,17.192,7.709,17.192,17.192
				C61.685,54.226,53.98,61.932,44.492,61.932z M170.411,170.42h-29.638v-46.407c0-11.067-0.212-25.309-15.413-25.309
				c-15.44,0-17.795,12.055-17.795,24.506v47.21H77.938V74.982h28.434v13.04h0.406c3.955-7.505,13.64-15.416,28.07-15.416
				c30.013,0,35.562,19.761,35.562,45.466V170.42z"/>
		</g>
	</g>
</g>
</svg>
