<?xml version="1.0" encoding="utf-8"?>
<!-- Generator: Adobe Illustrator 16.0.4, SVG Export Plug-In . SVG Version: 6.00 Build 0)  -->
<!DOCTYPE svg PUBLIC "-//W3C//DTD SVG 1.1//EN" "http://www.w3.org/Graphics/SVG/1.1/DTD/svg11.dtd">
<svg version="1.1" id="Layer_1" xmlns="http://www.w3.org/2000/svg" xmlns:xlink="http://www.w3.org/1999/xlink" x="0px" y="0px"
	 width="907px" height="218.188px" viewBox="0 0 907 218.188" enable-background="new 0 0 907 218.188" xml:space="preserve">
<g>
	<g>
		<defs>
			<rect id="SVGID_1_" width="907" height="218.188"/>
		</defs>
		<clipPath id="SVGID_2_">
			<use xlink:href="#SVGID_1_"  overflow="visible"/>
		</clipPath>
		<path clip-path="url(#SVGID_2_)" fill="#FFFFFF" d="M47.821,79.916c-2.393,0.105-4.875,0.32-7.448,0.654
			c-2.578,0.336-5.099,0.847-7.568,1.532c-2.475,0.695-4.812,1.565-7.003,2.633c-2.189,1.07-4.102,2.347-5.737,3.831
			c-1.624,1.475-2.9,3.184-3.822,5.123c-0.918,1.931-1.325,4.134-1.217,6.575c0.048,1.939,0.414,3.631,1.1,5.084
			c0.695,1.451,1.585,2.656,2.682,3.591c1.094,0.948,2.354,1.659,3.783,2.146c1.431,0.486,2.958,0.727,4.593,0.727
			c2.09,0,4.053-0.207,5.885-0.615c1.835-0.399,3.586-1.004,5.234-1.795c1.66-0.791,3.273-1.739,4.824-2.874
			c1.551-1.116,3.12-2.417,4.704-3.892L47.821,79.916z M4.852,56.217c0-2.602,0.767-5.051,2.294-7.342
			c1.529-2.297,3.67-4.3,6.424-6.008c2.753-1.708,6.032-3.048,9.824-4.005c3.798-0.974,7.939-1.462,12.427-1.462
			c8.766,0,15.229,2.323,19.384,6.958c4.156,4.637,6.208,12.01,6.16,22.104l-0.156,35.175c0,1.636-0.032,3.279-0.116,4.931
			c-0.072,1.66-0.233,3.56-0.49,5.698l11.092-0.614v6.583H49.278c-0.305-1.787-0.531-3.344-0.686-4.668
			c-0.156-1.325-0.28-2.722-0.384-4.197c-3.515,3.511-7.357,6.287-11.506,8.331c-4.156,2.033-8.554,3.057-13.199,3.057
			c-3.922,0-7.354-0.471-10.277-1.414c-2.933-0.942-5.367-2.258-7.306-3.941c-1.936-1.684-3.391-3.655-4.353-5.921
			c-0.974-2.275-1.457-4.708-1.457-7.301c0-3.216,0.694-6.136,2.099-8.793c1.409-2.65,3.288-5.012,5.666-7.078
			c2.37-2.059,5.132-3.848,8.291-5.354c3.164-1.502,6.515-2.737,10.058-3.712c3.54-0.965,7.164-1.667,10.861-2.098
			c3.694-0.431,7.297-0.623,10.82-0.575v-9.783c0-2.706-0.154-5.33-0.459-7.876c-0.311-2.552-0.981-4.874-2.027-6.965
			c-1.044-2.09-2.68-3.742-4.895-4.962c-2.222-1.23-4.779-1.844-7.688-1.844c-1.684,0-3.283,0.151-4.812,0.422
			c-1.535,0.28-3.04,0.759-4.52,1.422c-1.467,0.653-2.809,1.523-4.009,2.591c-1.202,1.07-2.184,2.347-2.941,3.823
			c0.758,0.869,1.28,1.828,1.568,2.864c0.276,1.046,0.415,2.059,0.415,3.024c0,0.607-0.127,1.317-0.384,2.106
			c-0.25,0.784-0.646,1.525-1.186,2.21c-0.529,0.687-1.215,1.253-2.066,1.685c-0.842,0.438-1.97,0.653-3.398,0.653
			c-2.044,0-3.663-0.749-4.855-2.258C5.445,60.176,4.852,58.355,4.852,56.217"/>
		<path clip-path="url(#SVGID_2_)" fill="#FFFFFF" d="M95.64,58.739c0-1.628,0.024-3.289,0.072-4.973s0.229-3.415,0.539-5.202
			l-11.088,0.614v-6.583c3.416,0,6.191-0.111,8.334-0.344c2.143-0.222,3.859-0.542,5.164-0.95c1.301-0.414,2.306-0.854,3.016-1.34
			c0.719-0.486,1.38-1.005,1.996-1.571h4.507c0.099,1.02,0.204,2.194,0.303,3.519c0.108,1.325,0.204,2.937,0.312,4.812
			c1.576-1.317,3.283-2.554,5.123-3.703c1.831-1.149,3.734-2.147,5.693-2.977c1.962-0.846,3.982-1.499,6.041-1.954
			c2.066-0.456,4.118-0.688,6.161-0.688c5.294,0,9.707,0.959,13.23,2.874c3.512,1.898,6.268,4.468,8.259,7.675
			c1.735-1.475,3.646-2.848,5.729-4.125c2.09-1.277,4.257-2.393,6.503-3.367c2.239-0.974,4.536-1.723,6.883-2.258
			c2.341-0.526,4.64-0.798,6.878-0.798c4.544,0,8.482,0.664,11.814,1.987c3.343,1.325,6.096,3.4,8.263,6.233
			c2.167,2.832,3.743,6.462,4.74,10.892c0.997,4.437,1.437,9.743,1.34,15.912l-0.154,29.213c0,2.09-0.024,3.933-0.076,5.537
			c-0.048,1.613-0.229,3.304-0.539,5.091l9.87-0.455v6.407h-31.975v-4.661c2.402,0,4.226-0.469,5.475-1.412
			c1.245-0.941,2.151-2.258,2.714-3.935c0.565-1.691,0.886-3.702,0.958-6.047c0.082-2.347,0.113-4.916,0.113-7.717V72.576
			c0-9.017-1.432-15.76-4.279-20.221c-2.861-4.461-7.397-6.695-13.614-6.695c-3.264,0-6.515,0.743-9.75,2.22
			c-3.235,1.475-6.054,3.319-8.446,5.505c1.068,3.519,1.6,7.318,1.6,11.402l-0.305,36.851c0,2.09-0.024,3.933-0.08,5.546
			c-0.048,1.604-0.227,3.304-0.529,5.083l9.863-0.455v6.423h-31.968v-4.668c2.402,0,4.226-0.479,5.476-1.414
			c1.247-0.948,2.142-2.257,2.673-3.942c0.538-1.684,0.842-3.694,0.914-6.047c0.084-2.347,0.147-4.916,0.195-7.717l0.155-21.872
			c0.049-8.978-1.263-15.752-3.936-20.341c-2.682-4.587-7.102-6.886-13.271-6.886c-3.213,0-6.389,0.71-9.521,2.107
			c-3.136,1.405-5.801,3.223-7.992,5.466c0,1.22,0.009,2.538,0.032,3.933c0.036,1.406,0.045,2.897,0.045,4.476v40.307
			c0,2.09-0.024,3.933-0.077,5.546c-0.056,1.604-0.227,3.304-0.539,5.083l9.863-0.455v6.423H86.38v-4.668
			c2.401,0,4.224-0.479,5.474-1.414c1.253-0.948,2.15-2.257,2.713-3.942c0.558-1.684,0.887-3.694,0.957-6.047
			c0.072-2.347,0.116-4.916,0.116-7.717V58.739z"/>
		<path clip-path="url(#SVGID_2_)" fill="#FFFFFF" d="M267.713,45.125c-3.467,0-6.883,0.806-10.245,2.41
			c-3.367,1.611-6.268,3.766-8.721,6.464v39.61c0,4.173,0.506,7.612,1.526,10.286c1.023,2.672,2.406,4.787,4.138,6.343
			c1.731,1.563,3.706,2.633,5.921,3.215c2.214,0.591,4.529,0.887,6.924,0.887c3.773,0,7.174-0.807,10.205-2.41
			c3.041-1.613,5.605-3.879,7.729-6.808c2.11-2.935,3.741-6.439,4.896-10.516c1.144-4.079,1.715-8.595,1.715-13.542
			c0-5.243-0.499-10.07-1.483-14.482c-0.998-4.413-2.486-8.196-4.48-11.364c-1.985-3.159-4.485-5.625-7.495-7.413
			C275.339,46.011,271.792,45.125,267.713,45.125 M235.289,20.349c0-1.637,0.009-3.208,0.043-4.74
			c0.024-1.524,0.164-3.343,0.414-5.435l-11.087,0.615V4.214c3.417,0,6.262-0.12,8.53-0.344c2.263-0.231,4.11-0.549,5.543-0.958
			c1.427-0.407,2.548-0.854,3.363-1.34c0.809-0.488,1.527-1.007,2.143-1.573h4.509v46.737c2.911-2.913,6.359-5.195,10.359-6.854
			c4.007-1.652,8.475-2.482,13.429-2.482c4.988,0,9.644,0.934,13.956,2.794c4.304,1.859,8.046,4.515,11.234,7.956
			c3.188,3.438,5.688,7.62,7.493,12.543c1.815,4.916,2.721,10.43,2.721,16.549c0,6.681-1.138,12.688-3.408,18.042
			c-2.27,5.363-5.277,9.92-9.02,13.694c-3.752,3.766-8.082,6.679-13,8.722c-4.92,2.033-10.01,3.057-15.256,3.057
			c-1.787,0-3.667-0.136-5.663-0.416c-1.986-0.288-4.005-0.798-6.041-1.541c-2.042-0.732-4.024-1.715-5.963-2.935
			c-1.936-1.229-3.726-2.787-5.351-4.669l-3.75,7.039h-5.507L235.289,20.349z"/>
		<path clip-path="url(#SVGID_2_)" fill="#FFFFFF" d="M364.695,43.601c-6.113,0-11.164,1.787-15.141,5.371
			c-3.977,3.583-6.605,9.384-7.873,17.412H381.6c0-2.737-0.312-5.466-0.917-8.188c-0.612-2.72-1.601-5.153-2.95-7.316
			c-1.347-2.163-3.095-3.911-5.239-5.258C370.356,44.271,367.759,43.601,364.695,43.601 M396.359,72.042l-55.142,0.917
			c-0.051,6.032,0.408,11.499,1.382,16.397c0.961,4.908,2.489,9.098,4.584,12.568c2.089,3.471,4.779,6.152,8.071,8.043
			c3.283,1.891,7.226,2.834,11.805,2.834c2.455,0,4.956-0.336,7.503-1c2.542-0.669,5.009-1.571,7.379-2.728
			c2.371-1.157,4.545-2.539,6.537-4.158c1.986-1.612,3.647-3.343,4.967-5.188l3.826,3.136c-2.143,3.258-4.625,6.034-7.453,8.292
			c-2.836,2.273-5.761,4.117-8.803,5.546c-3.026,1.428-6.075,2.465-9.132,3.103c-3.057,0.639-5.917,0.951-8.566,0.951
			c-5.406,0-10.442-0.966-15.105-2.905c-4.667-1.939-8.702-4.716-12.115-8.34c-3.42-3.615-6.107-7.98-8.069-13.07
			c-1.959-5.1-2.94-10.836-2.94-17.212c0-5.507,0.938-10.765,2.824-15.793c1.893-5.018,4.562-9.471,8.037-13.341
			c3.463-3.87,7.612-6.958,12.458-9.25c4.846-2.297,10.224-3.439,16.142-3.439c4.327,0,8.421,0.711,12.271,2.14
			c3.847,1.427,7.224,3.567,10.132,6.424c2.898,2.848,5.199,6.463,6.883,10.82C395.516,61.148,396.359,66.231,396.359,72.042"/>
		<path clip-path="url(#SVGID_2_)" fill="#FFFFFF" d="M459.152,45.963c-1.985-0.047-4.003,0.319-6.035,1.108
			c-2.043,0.791-4.045,1.948-6.008,3.48c-1.958,1.532-3.816,3.367-5.54,5.507c-1.743,2.137-3.294,4.507-4.667,7.109l0.147,38.47
			c0,2.09-0.024,3.94-0.072,5.537c-0.052,1.613-0.23,3.304-0.529,5.091l9.862-0.455v6.416h-32.121v-4.67
			c2.392,0,4.215-0.462,5.465-1.412c1.248-0.941,2.158-2.258,2.722-3.935c0.556-1.691,0.874-3.702,0.958-6.04
			c0.072-2.347,0.11-4.923,0.11-7.725V58.658c0-1.628,0.024-3.271,0.075-4.932c0.048-1.658,0.229-3.375,0.54-5.162l-11.089,0.455
			v-6.416h4.812c2.246,0,4.101-0.119,5.582-0.342c1.477-0.231,2.721-0.551,3.711-0.959c0.993-0.406,1.818-0.854,2.481-1.34
			c0.662-0.486,1.3-1.005,1.91-1.571h4.513c0.155,1.635,0.295,3.663,0.424,6.08c0.123,2.426,0.239,5.546,0.343,9.376
			c1.169-1.94,2.681-3.895,4.512-5.858c1.84-1.955,3.907-3.726,6.192-5.274c2.299-1.556,4.771-2.825,7.431-3.822
			c2.643-0.998,5.374-1.493,8.178-1.493c1.42,0,2.821,0.192,4.166,0.575c1.351,0.384,2.526,0.981,3.517,1.796
			c0.996,0.822,1.798,1.835,2.416,3.057c0.606,1.229,0.909,2.704,0.909,4.436c0,0.709-0.138,1.508-0.42,2.371
			c-0.276,0.869-0.732,1.684-1.371,2.441c-0.64,0.773-1.444,1.412-2.41,1.915c-0.973,0.52-2.167,0.767-3.595,0.767
			c-1.177,0-2.23-0.247-3.171-0.767c-0.945-0.502-1.731-1.157-2.378-1.946c-0.64-0.791-1.095-1.716-1.372-2.753
			C459.061,48.245,458.998,47.136,459.152,45.963"/>
		<path clip-path="url(#SVGID_2_)" fill="#FFFFFF" d="M584.302,45.053c-1.846,0-3.628,0.239-5.36,0.726
			c-1.723,0.479-3.385,1.118-4.969,1.907c-1.576,0.798-3.073,1.724-4.479,2.802c-1.395,1.068-2.641,2.193-3.709,3.359
			c0,0.414,0.018,0.886,0.042,1.42s0.03,1.445,0.03,2.722v5.385c0,2.331-0.006,5.442-0.03,9.353
			c-0.032,3.901-0.048,8.761-0.081,14.577c-0.023,5.825-0.033,12.856-0.033,21.132c2.6,1.939,5.45,3.447,8.562,4.515
			c3.105,1.079,6.365,1.613,9.786,1.613c3.722,0,7.064-0.902,10.021-2.682c2.962-1.787,5.474-4.278,7.568-7.469
			c2.092-3.185,3.697-6.966,4.82-11.323c1.119-4.365,1.684-9.151,1.684-14.363c0-4.23-0.45-8.363-1.339-12.4
			c-0.9-4.03-2.299-7.63-4.214-10.798c-1.908-3.16-4.369-5.697-7.376-7.612C592.219,46.003,588.581,45.053,584.302,45.053
			 M552.41,58.739c0-1.628,0.026-3.289,0.074-4.973c0.049-1.684,0.229-3.415,0.528-5.202l-11.079,0.614v-6.583
			c3.408,0,6.193-0.111,8.327-0.344c2.149-0.222,3.862-0.542,5.171-0.95c1.303-0.414,2.308-0.854,3.016-1.34
			c0.718-0.486,1.359-1.005,1.912-1.571h4.592c0.102,1.02,0.204,2.227,0.312,3.598c0.086,1.38,0.194,2.977,0.303,4.819
			c1.575-1.38,3.322-2.657,5.225-3.831c1.918-1.173,3.938-2.162,6.05-2.976c2.106-0.822,4.268-1.46,6.465-1.915
			c2.19-0.456,4.381-0.688,6.565-0.688c4.544,0,8.896,0.893,13.043,2.673c4.162,1.789,7.814,4.35,10.978,7.693
			c3.16,3.335,5.685,7.414,7.575,12.226c1.879,4.826,2.826,10.27,2.826,16.326c0,4.435-0.498,8.626-1.488,12.544
			c-0.996,3.935-2.389,7.533-4.171,10.82c-1.786,3.295-3.913,6.231-6.38,8.833c-2.477,2.601-5.198,4.803-8.146,6.614
			c-2.956,1.811-6.104,3.201-9.444,4.166c-3.343,0.966-6.768,1.453-10.29,1.453c-7.235,0-13.481-1.708-18.732-5.115l-0.075,25.918
			c0,2.09-0.033,3.941-0.084,5.546c-0.049,1.604-0.219,3.295-0.531,5.083l9.864-0.456v6.425h-31.967v-4.67
			c2.395,0,4.216-0.47,5.465-1.412c1.254-0.949,2.146-2.266,2.683-3.942c0.531-1.685,0.84-3.703,0.912-6.041
			c0.078-2.346,0.139-4.923,0.192-7.724L552.41,58.739z"/>
		<path clip-path="url(#SVGID_2_)" fill="#FFFFFF" d="M687.934,79.916c-2.4,0.105-4.883,0.32-7.455,0.654
			c-2.586,0.336-5.102,0.847-7.568,1.532c-2.473,0.695-4.808,1.565-7.004,2.633c-2.191,1.07-4.1,2.347-5.738,3.831
			c-1.621,1.475-2.899,3.184-3.812,5.123c-0.918,1.931-1.332,4.134-1.225,6.575c0.048,1.939,0.415,3.631,1.107,5.084
			c0.688,1.451,1.576,2.656,2.674,3.591c1.093,0.948,2.362,1.659,3.788,2.146c1.434,0.486,2.953,0.727,4.585,0.727
			c2.092,0,4.055-0.207,5.895-0.615c1.837-0.399,3.577-1.004,5.233-1.795c1.662-0.791,3.266-1.739,4.826-2.874
			c1.542-1.116,3.108-2.417,4.693-3.892V79.916z M644.955,56.217c0-2.602,0.766-5.051,2.297-7.342c1.523-2.297,3.67-4.3,6.422-6.008
			c2.755-1.708,6.029-3.048,9.831-4.005c3.79-0.974,7.932-1.462,12.419-1.462c8.769,0,15.229,2.323,19.393,6.958
			c4.15,4.637,6.199,12.01,6.151,22.104l-0.155,35.175c0,1.636-0.03,3.279-0.108,4.923c-0.078,1.667-0.243,3.567-0.498,5.705
			l11.092-0.614v6.583h-22.405c-0.312-1.787-0.541-3.344-0.685-4.668c-0.159-1.325-0.291-2.722-0.385-4.206
			c-3.522,3.521-7.364,6.296-11.518,8.34c-4.147,2.033-8.547,3.057-13.187,3.057c-3.926,0-7.355-0.471-10.287-1.414
			c-2.936-0.95-5.36-2.258-7.299-3.941c-1.933-1.684-3.392-3.655-4.352-5.921c-0.976-2.275-1.459-4.708-1.459-7.301
			c0-3.216,0.696-6.144,2.092-8.793c1.408-2.658,3.299-5.012,5.676-7.078c2.367-2.059,5.128-3.848,8.288-5.354
			c3.163-1.502,6.516-2.737,10.06-3.712c3.538-0.972,7.16-1.667,10.852-2.098c3.703-0.431,7.305-0.63,10.828-0.582v-9.776
			c0-2.706-0.153-5.33-0.456-7.876c-0.312-2.552-0.99-4.874-2.035-6.965c-1.038-2.09-2.674-3.742-4.897-4.962
			c-2.215-1.23-4.777-1.844-7.688-1.844c-1.675,0-3.283,0.144-4.813,0.414c-1.525,0.288-3.031,0.767-4.508,1.421
			c-1.477,0.662-2.821,1.532-4.021,2.601c-1.194,1.07-2.173,2.347-2.941,3.816c0.769,0.876,1.285,1.835,1.57,2.872
			c0.288,1.046,0.417,2.051,0.417,3.024c0,0.607-0.12,1.317-0.378,2.099c-0.259,0.791-0.654,1.532-1.191,2.218
			c-0.531,0.687-1.219,1.253-2.059,1.685c-0.844,0.438-1.979,0.645-3.4,0.645c-2.044,0-3.668-0.749-4.862-2.25
			C645.553,60.176,644.955,58.355,644.955,56.217"/>
		<path clip-path="url(#SVGID_2_)" fill="#FFFFFF" d="M771.452,45.963c-1.986-0.047-4,0.319-6.035,1.108
			c-2.044,0.791-4.045,1.948-6.011,3.48c-1.957,1.532-3.812,3.367-5.534,5.507c-1.734,2.137-3.295,4.507-4.669,7.109l0.155,38.47
			c0,2.09-0.03,3.94-0.078,5.537c-0.048,1.613-0.222,3.304-0.534,5.091l9.861-0.455v6.416h-32.119v-4.67
			c2.403,0,4.225-0.462,5.474-1.412c1.254-0.941,2.157-2.258,2.716-3.935c0.561-1.691,0.879-3.702,0.954-6.04
			c0.084-2.347,0.114-4.923,0.114-7.725V58.658c0-1.628,0.036-3.271,0.084-4.932c0.048-1.658,0.229-3.375,0.528-5.162l-11.086,0.455
			v-6.416h4.819c2.239,0,4.1-0.119,5.582-0.342c1.479-0.231,2.713-0.551,3.709-0.959c0.997-0.406,1.819-0.854,2.485-1.34
			c0.66-0.486,1.296-1.005,1.915-1.571h4.507c0.156,1.635,0.294,3.663,0.427,6.08c0.119,2.426,0.233,5.546,0.342,9.376
			c1.164-1.94,2.671-3.895,4.508-5.858c1.842-1.955,3.901-3.726,6.193-5.274c2.29-1.556,4.764-2.825,7.419-3.822
			c2.653-0.998,5.378-1.493,8.181-1.493c1.429,0,2.821,0.192,4.172,0.575c1.344,0.384,2.521,0.981,3.518,1.796
			c0.99,0.822,1.791,1.835,2.409,3.057c0.615,1.229,0.919,2.704,0.919,4.436c0,0.709-0.147,1.508-0.421,2.371
			c-0.282,0.869-0.741,1.684-1.377,2.441c-0.643,0.773-1.44,1.412-2.413,1.915c-0.973,0.52-2.167,0.767-3.596,0.767
			c-1.176,0-2.229-0.247-3.172-0.767c-0.945-0.502-1.729-1.157-2.367-1.946c-0.637-0.791-1.093-1.716-1.381-2.753
			C771.368,48.245,771.299,47.136,771.452,45.963"/>
		<path clip-path="url(#SVGID_2_)" fill="#FFFFFF" d="M822.398,13.622c0,1.277-0.24,2.473-0.724,3.591
			c-0.483,1.124-1.102,2.106-1.87,2.944c-0.768,0.846-1.662,1.493-2.677,1.948c-1.021,0.47-2.098,0.694-3.214,0.694
			c-1.119,0-2.191-0.225-3.214-0.694c-1.021-0.455-1.93-1.102-2.714-1.948c-0.792-0.837-1.413-1.82-1.836-2.944
			c-0.436-1.118-0.654-2.314-0.654-3.591c0-1.333,0.229-2.562,0.684-3.711c0.463-1.149,1.09-2.155,1.879-3.023
			c0.787-0.863,1.693-1.541,2.713-2.02c1.021-0.486,2.113-0.735,3.287-0.735c1.176,0,2.266,0.249,3.256,0.735
			c0.984,0.479,1.879,1.157,2.635,2.02c0.774,0.869,1.365,1.874,1.795,3.023C822.182,11.061,822.398,12.29,822.398,13.622
			 M807.488,58.739c0-1.628,0.043-3.217,0.117-4.74c0.072-1.534,0.237-3.345,0.495-5.426l-11.085,0.605v-6.583
			c3.414,0,6.235-0.111,8.48-0.344c2.244-0.222,4.084-0.542,5.504-0.95c1.435-0.414,2.542-0.854,3.328-1.34
			c0.795-0.486,1.498-1.005,2.109-1.563h4.511v63.239c0,2.09-0.033,3.933-0.075,5.537c-0.057,1.613-0.228,3.313-0.54,5.091
			l9.861-0.455v6.407h-31.967v-4.661c2.401,0,4.22-0.469,5.471-1.404c1.252-0.948,2.158-2.257,2.722-3.942
			c0.564-1.684,0.883-3.702,0.955-6.047c0.078-2.347,0.113-4.916,0.113-7.717V58.739z"/>
		<path clip-path="url(#SVGID_2_)" fill="#FFFFFF" d="M875.486,114.565c1.992,0,3.988-0.24,6.008-0.719
			c2.011-0.486,3.848-1.237,5.504-2.251c1.65-1.021,3.01-2.305,4.045-3.853c1.048-1.556,1.57-3.392,1.57-5.53
			c0-2.491-0.646-4.614-1.951-6.368c-1.299-1.748-3.01-3.304-5.123-4.653c-2.112-1.348-4.537-2.562-7.265-3.623
			c-2.722-1.07-5.501-2.162-8.334-3.28c-2.83-1.133-5.601-2.362-8.295-3.709c-2.707-1.356-5.117-2.953-7.229-4.781
			c-2.122-1.843-3.826-4.029-5.117-6.583c-1.309-2.546-1.963-5.577-1.963-9.096c0-2.195,0.412-4.605,1.225-7.239
			c0.819-2.617,2.239-5.075,4.283-7.374c2.031-2.29,4.78-4.221,8.231-5.768c3.439-1.558,7.772-2.34,13.03-2.34
			c1.429,0,2.941,0.105,4.55,0.311c1.605,0.209,3.247,0.575,4.928,1.111c1.687,0.534,3.367,1.236,5.054,2.09
			c1.681,0.877,3.337,1.94,4.967,3.215l-0.385-5.969h6.576v27.458h-4.893c-0.207-2.696-0.72-5.378-1.561-8.026
			c-0.843-2.649-2.07-5.043-3.679-7.149c-1.603-2.116-3.632-3.839-6.08-5.164c-2.44-1.325-5.348-1.994-8.715-1.994
			c-2.449,0-4.61,0.318-6.497,0.965c-1.888,0.638-3.476,1.508-4.781,2.602c-1.296,1.092-2.28,2.353-2.94,3.781
			c-0.673,1.43-1.003,2.929-1.003,4.517c0,2.546,0.654,4.74,1.957,6.567c1.303,1.844,3.025,3.479,5.164,4.899
			c2.141,1.429,4.592,2.72,7.338,3.862c2.755,1.149,5.559,2.321,8.415,3.511c2.863,1.205,5.666,2.482,8.418,3.831
			c2.752,1.356,5.198,2.944,7.338,4.779s3.865,3.975,5.167,6.424c1.294,2.449,1.951,5.354,1.951,8.713
			c0,3.935-0.799,7.35-2.371,10.246c-1.584,2.913-3.661,5.308-6.236,7.19c-2.568,1.891-5.474,3.288-8.709,4.213
			c-3.247,0.91-6.521,1.373-9.828,1.373c-5.303,0-9.973-0.704-14-2.099c-4.027-1.404-7.346-2.994-9.936-4.781l0.53,5.426h-6.572
			l-0.918-26.922h4.819c0.204,3.256,0.955,6.241,2.257,8.961c1.288,2.72,3.005,5.058,5.12,7.006c2.109,1.955,4.541,3.487,7.256,4.58
			C869.541,114.013,872.432,114.565,875.486,114.565"/>
		<path clip-path="url(#SVGID_2_)" fill="#F47E64" d="M354.631,193.93c0.827-0.017,1.577-0.239,2.248-0.678
			c0.671-0.431,1.268-0.981,1.784-1.628c0.507-0.654,0.937-1.356,1.287-2.122c0.355-0.759,0.63-1.485,0.825-2.154h1.613
			c0,1.253,0,2.425-0.009,3.509c-0.016,1.086-0.016,2.108-0.016,3.073h7.915v1.835l-7.915,0.096
			c-0.017,2.033-0.028,3.765-0.028,5.202s0,2.641-0.008,3.607c-0.007,0.957-0.016,1.723-0.016,2.275c0,0.565,0,0.989-0.008,1.284
			c-0.008,0.287-0.017,0.471-0.017,0.558v0.152c0,1.068,0.069,2.018,0.173,2.833c0.113,0.822,0.312,1.508,0.59,2.074
			c0.275,0.551,0.636,0.968,1.094,1.254c0.451,0.287,1.02,0.421,1.707,0.421c0.811,0,1.611-0.238,2.41-0.735
			c0.795-0.484,1.498-1.179,2.109-2.081l1.26,1.029c-0.688,1.037-1.375,1.859-2.053,2.441c-0.679,0.591-1.324,1.029-1.935,1.334
			c-0.615,0.294-1.186,0.486-1.708,0.566c-0.535,0.07-0.99,0.111-1.393,0.111c-0.471,0-0.963-0.041-1.46-0.111
			c-0.491-0.08-0.981-0.231-1.466-0.446c-0.481-0.225-0.929-0.545-1.354-0.942c-0.416-0.408-0.791-0.934-1.109-1.58
			c-0.319-0.639-0.574-1.421-0.762-2.339c-0.182-0.909-0.269-1.994-0.253-3.254l0.095-13.583l-3.603,0.024V193.93z"/>
		<path clip-path="url(#SVGID_2_)" fill="#F47E64" d="M389.695,195.031c-1.84,0-3.353,0.534-4.544,1.612
			c-1.192,1.078-1.979,2.816-2.363,5.219h11.972c0-0.813-0.089-1.628-0.271-2.45c-0.187-0.813-0.48-1.548-0.889-2.194
			c-0.401-0.646-0.926-1.183-1.571-1.58C391.387,195.229,390.609,195.031,389.695,195.031 M399.188,203.562l-16.539,0.279
			c-0.015,1.802,0.123,3.447,0.41,4.923c0.292,1.468,0.752,2.722,1.382,3.766c0.62,1.045,1.429,1.843,2.419,2.41
			c0.98,0.565,2.165,0.846,3.538,0.846c0.735,0,1.482-0.094,2.254-0.305c0.758-0.19,1.495-0.46,2.207-0.813
			c0.719-0.342,1.371-0.759,1.966-1.244c0.6-0.48,1.089-1.005,1.49-1.558l1.143,0.934c-0.638,0.981-1.38,1.82-2.23,2.498
			c-0.848,0.68-1.732,1.229-2.639,1.661c-0.907,0.422-1.821,0.734-2.739,0.917c-0.922,0.2-1.78,0.294-2.572,0.294
			c-1.616,0-3.129-0.294-4.538-0.869c-1.395-0.583-2.604-1.412-3.634-2.506c-1.021-1.085-1.832-2.393-2.417-3.918
			c-0.592-1.532-0.884-3.256-0.884-5.163c0-1.652,0.285-3.231,0.853-4.739c0.561-1.51,1.363-2.84,2.408-3.999
			c1.036-1.157,2.286-2.09,3.734-2.777c1.453-0.695,3.073-1.037,4.844-1.037c1.301,0,2.527,0.208,3.687,0.647
			c1.152,0.423,2.165,1.07,3.034,1.924c0.872,0.854,1.558,1.938,2.066,3.249C398.936,200.289,399.188,201.823,399.188,203.562"/>
		<path clip-path="url(#SVGID_2_)" fill="#F47E64" d="M406.096,193.93h9.685v1.397c-0.706,0.031-1.261,0.127-1.667,0.279
			c-0.404,0.151-0.646,0.397-0.718,0.719c-0.076,0.325,0.008,0.765,0.251,1.299c0.246,0.527,0.654,1.196,1.231,1.994l2.731,3.72
			c3.921-4.788,6.047-7.342,6.383-7.669l-3.236,0.192v-1.931h7.713v1.397c-0.646,0.192-1.21,0.407-1.691,0.677
			c-0.484,0.273-0.938,0.599-1.375,0.989c-0.438,0.384-2.645,2.955-6.617,7.702l6.471,8.043c0.366,0.463,0.711,0.909,1.037,1.349
			c0.336,0.455,0.67,0.958,1.021,1.54l2.135-0.144v1.931h-9.076v-1.396c0.375,0,0.717-0.048,1.002-0.127
			c0.295-0.094,0.497-0.225,0.629-0.416c0.134-0.19,0.165-0.431,0.1-0.727c-0.075-0.286-0.271-0.638-0.59-1.053l-4.959-6.104
			c-3.195,4.373-4.859,6.664-5.006,6.839c-0.15,0.183-0.305,0.366-0.469,0.551c-0.171,0.183-0.365,0.397-0.596,0.645l3.598-0.144
			v1.931h-7.889v-1.396c0.475-0.127,0.895-0.286,1.26-0.48c0.367-0.207,0.719-0.46,1.045-0.765c0.328-0.303,2.606-3.199,6.849-8.688
			c-3.858-5.139-5.95-8.044-6.284-8.699c-0.342-0.663-0.596-1.206-0.76-1.652l-2.207,0.119V193.93z"/>
		<path clip-path="url(#SVGID_2_)" fill="#F47E64" d="M434.936,193.93c0.825-0.017,1.577-0.239,2.248-0.678
			c0.668-0.431,1.268-0.981,1.782-1.628c0.506-0.654,0.938-1.356,1.288-2.122c0.353-0.759,0.631-1.485,0.834-2.154h1.601
			c0,1.253,0,2.425-0.009,3.509c-0.015,1.086-0.015,2.108-0.015,3.073h7.919v1.835l-7.919,0.096
			c-0.017,2.033-0.024,3.765-0.024,5.202s0,2.641-0.009,3.607c-0.008,0.957-0.015,1.723-0.015,2.275c0,0.565,0,0.989-0.008,1.284
			c-0.009,0.287-0.017,0.471-0.017,0.558v0.152c0,1.068,0.063,2.018,0.171,2.833c0.115,0.822,0.311,1.508,0.586,2.074
			c0.28,0.551,0.639,0.968,1.098,1.254c0.445,0.287,1.021,0.421,1.708,0.421c0.81,0,1.608-0.238,2.408-0.735
			c0.795-0.484,1.497-1.179,2.108-2.081l1.26,1.029c-0.684,1.037-1.371,1.859-2.049,2.441c-0.68,0.591-1.327,1.029-1.939,1.334
			c-0.611,0.294-1.187,0.486-1.709,0.566c-0.531,0.07-0.984,0.111-1.388,0.111c-0.475,0-0.962-0.041-1.46-0.111
			c-0.49-0.08-0.981-0.231-1.465-0.446c-0.482-0.225-0.94-0.545-1.357-0.942c-0.414-0.408-0.794-0.934-1.112-1.58
			c-0.315-0.639-0.57-1.421-0.759-2.339c-0.179-0.909-0.271-1.994-0.251-3.254l0.096-13.583l-3.603,0.024V193.93z"/>
		<path clip-path="url(#SVGID_2_)" fill="#F47E64" d="M465.449,186.046c0,0.374-0.066,0.734-0.217,1.068
			c-0.144,0.345-0.333,0.639-0.559,0.885c-0.233,0.249-0.5,0.449-0.804,0.584c-0.312,0.135-0.63,0.214-0.973,0.214
			c-0.337,0-0.655-0.08-0.954-0.214c-0.312-0.135-0.582-0.335-0.817-0.584c-0.242-0.246-0.428-0.54-0.548-0.885
			c-0.131-0.334-0.198-0.695-0.198-1.068c0-0.407,0.067-0.783,0.207-1.125c0.136-0.344,0.325-0.646,0.562-0.901
			c0.234-0.257,0.506-0.472,0.811-0.606c0.311-0.151,0.634-0.224,0.984-0.224c0.355,0,0.677,0.072,0.974,0.224
			c0.294,0.143,0.564,0.35,0.793,0.606c0.228,0.255,0.408,0.558,0.54,0.901C465.389,185.272,465.449,185.64,465.449,186.046
			 M460.977,199.57c0-0.484,0.016-0.965,0.032-1.419c0.024-0.455,0.075-1.004,0.148-1.628l-3.328,0.183v-1.97
			c1.029,0,1.88-0.039,2.551-0.104c0.668-0.063,1.22-0.167,1.652-0.288c0.434-0.12,0.759-0.255,0.996-0.397
			c0.235-0.152,0.45-0.303,0.64-0.48h1.349v18.977c0,0.63-0.009,1.188-0.03,1.667c-0.015,0.479-0.072,0.991-0.15,1.531l2.953-0.143
			v1.922h-9.59v-1.396c0.727,0,1.267-0.143,1.641-0.431c0.377-0.271,0.654-0.677,0.817-1.173c0.164-0.512,0.263-1.109,0.287-1.811
			c0.024-0.703,0.032-1.484,0.032-2.323V199.57z"/>
		<path clip-path="url(#SVGID_2_)" fill="#F47E64" d="M477.678,188.056c0-0.485,0-0.965,0.01-1.418
			c0.012-0.464,0.051-0.998,0.131-1.628l-3.324,0.183v-1.972c1.032,0,1.872-0.031,2.56-0.094c0.675-0.08,1.233-0.168,1.653-0.29
			c0.426-0.126,0.769-0.254,1.015-0.414c0.246-0.135,0.459-0.287,0.646-0.464h1.35l0.039,30.492c0,0.623-0.015,1.181-0.039,1.659
			c-0.032,0.479-0.086,0.991-0.18,1.523l2.956-0.135v1.922h-9.591v-1.403c0.72,0,1.27-0.135,1.645-0.416
			c0.372-0.279,0.645-0.677,0.816-1.188c0.162-0.504,0.258-1.101,0.281-1.811c0.024-0.702,0.024-1.469,0.024-2.315L477.678,188.056z
			"/>
		<path clip-path="url(#SVGID_2_)" fill="#F47E64" d="M503.958,195.031c-1.849,0-3.361,0.534-4.547,1.612
			c-1.194,1.078-1.986,2.816-2.37,5.219h11.985c0-0.813-0.093-1.628-0.284-2.45c-0.181-0.813-0.475-1.548-0.883-2.194
			c-0.402-0.646-0.931-1.183-1.566-1.58C505.647,195.229,504.87,195.031,503.958,195.031 M513.447,203.562l-16.535,0.279
			c-0.019,1.802,0.119,3.447,0.407,4.923c0.285,1.468,0.751,2.722,1.381,3.766c0.618,1.045,1.429,1.843,2.413,2.41
			c0.987,0.565,2.172,0.846,3.547,0.846c0.732,0,1.474-0.094,2.245-0.305c0.765-0.19,1.503-0.46,2.215-0.813
			c0.717-0.342,1.362-0.759,1.966-1.244c0.597-0.48,1.089-1.005,1.488-1.558l1.152,0.934c-0.654,0.981-1.396,1.82-2.236,2.498
			c-0.852,0.68-1.734,1.229-2.644,1.661c-0.903,0.422-1.821,0.734-2.737,0.917c-0.921,0.2-1.779,0.294-2.571,0.294
			c-1.614,0-3.128-0.294-4.526-0.869c-1.407-0.583-2.616-1.412-3.648-2.506c-1.021-1.085-1.831-2.393-2.416-3.918
			c-0.592-1.532-0.879-3.256-0.879-5.163c0-1.652,0.281-3.231,0.846-4.739c0.564-1.51,1.365-2.84,2.413-3.999
			c1.026-1.157,2.277-2.09,3.733-2.777c1.452-0.695,3.072-1.037,4.844-1.037c1.299,0,2.526,0.208,3.679,0.647
			c1.159,0.423,2.167,1.07,3.037,1.924c0.876,0.854,1.561,1.938,2.071,3.249C513.195,200.289,513.447,201.823,513.447,203.562"/>
		<path clip-path="url(#SVGID_2_)" fill="#F47E64" d="M530.434,216.321c0.594,0,1.2-0.072,1.794-0.224
			c0.606-0.143,1.159-0.366,1.659-0.67c0.499-0.311,0.898-0.695,1.216-1.157c0.312-0.463,0.468-1.013,0.468-1.659
			c0-0.743-0.197-1.381-0.588-1.907c-0.39-0.534-0.9-0.989-1.536-1.405c-0.64-0.407-1.356-0.767-2.176-1.084
			c-0.813-0.318-1.657-0.656-2.5-0.989c-0.847-0.334-1.681-0.704-2.491-1.101c-0.81-0.408-1.536-0.885-2.166-1.438
			c-0.637-0.551-1.152-1.211-1.537-1.97c-0.39-0.767-0.579-1.676-0.579-2.729c0-0.662,0.117-1.381,0.36-2.162
			c0.246-0.791,0.669-1.531,1.284-2.218c0.609-0.695,1.438-1.27,2.464-1.732c1.039-0.463,2.347-0.702,3.914-0.702
			c0.438,0,0.882,0.032,1.368,0.095c0.479,0.055,0.972,0.175,1.479,0.336c0.507,0.161,1.005,0.366,1.51,0.63
			c0.516,0.264,1.008,0.582,1.494,0.965l-0.114-1.787h1.969v8.236h-1.471c-0.06-0.806-0.222-1.621-0.462-2.412
			c-0.252-0.789-0.624-1.515-1.104-2.146c-0.474-0.63-1.089-1.149-1.821-1.548c-0.727-0.399-1.605-0.599-2.617-0.599
			c-0.735,0-1.384,0.104-1.953,0.287c-0.562,0.201-1.039,0.449-1.429,0.782c-0.396,0.329-0.685,0.704-0.883,1.144
			c-0.204,0.421-0.294,0.87-0.294,1.347c0,0.767,0.189,1.421,0.579,1.963c0.394,0.56,0.903,1.055,1.552,1.484
			c0.639,0.423,1.375,0.807,2.197,1.149c0.828,0.353,1.668,0.703,2.526,1.061c0.858,0.353,1.698,0.734,2.526,1.151
			c0.826,0.405,1.561,0.878,2.209,1.427c0.643,0.55,1.158,1.197,1.543,1.933c0.39,0.732,0.585,1.603,0.585,2.609
			c0,1.179-0.234,2.208-0.718,3.071c-0.468,0.878-1.092,1.595-1.863,2.168c-0.774,0.56-1.653,0.975-2.613,1.254
			c-0.973,0.279-1.957,0.407-2.953,0.407c-1.591,0-2.989-0.208-4.189-0.622c-1.216-0.424-2.203-0.901-2.983-1.438l0.156,1.628
			h-1.969l-0.279-8.067h1.443c0.061,0.965,0.288,1.867,0.679,2.682c0.396,0.813,0.903,1.514,1.536,2.105
			c0.63,0.583,1.356,1.037,2.176,1.373C528.642,216.162,529.515,216.321,530.434,216.321"/>
	</g>
	<rect x="4.437" y="204.416" fill="#F47E64" width="301.609" height="2.242"/>
	<rect x="596.498" y="204.416" fill="#F47E64" width="303.102" height="2.242"/>
	<g>
		<defs>
			<rect id="SVGID_3_" width="907" height="218.188"/>
		</defs>
		<clipPath id="SVGID_4_">
			<use xlink:href="#SVGID_3_"  overflow="visible"/>
		</clipPath>
		<path clip-path="url(#SVGID_4_)" fill="#F47E64" d="M0,205.54c0,3.265,2.657,5.914,5.917,5.914c3.268,0,5.925-2.656,5.925-5.914
			c0-3.271-2.657-5.921-5.925-5.921C2.657,199.619,0,202.269,0,205.54"/>
		<path clip-path="url(#SVGID_4_)" fill="#F47E64" d="M895.164,205.54c0,3.265,2.656,5.914,5.915,5.914
			c3.277,0,5.921-2.656,5.921-5.914c0-3.271-2.652-5.921-5.921-5.921C897.82,199.619,895.164,202.269,895.164,205.54"/>
	</g>
</g>
</svg>
