<?xml version="1.0" encoding="utf-8"?>
<!-- Generator: Adobe Illustrator 16.0.4, SVG Export Plug-In . SVG Version: 6.00 Build 0)  -->
<!DOCTYPE svg PUBLIC "-//W3C//DTD SVG 1.1//EN" "http://www.w3.org/Graphics/SVG/1.1/DTD/svg11.dtd">
<svg version="1.1" id="Layer_1" xmlns="http://www.w3.org/2000/svg" xmlns:xlink="http://www.w3.org/1999/xlink" x="0px" y="0px"
	 width="200px" height="162.535px" viewBox="0 0 200 162.535" enable-background="new 0 0 200 162.535" xml:space="preserve">
<path fill="#55ACEE" d="M200,19.24c-7.359,3.264-15.266,5.47-23.566,6.461c8.473-5.078,14.977-13.12,18.041-22.701
	c-7.928,4.702-16.709,8.117-26.057,9.958C160.934,4.983,150.27,0,138.469,0c-22.662,0-41.033,18.372-41.033,41.031
	c0,3.216,0.363,6.348,1.062,9.351C64.396,48.671,34.162,32.335,13.924,7.51c-3.532,6.061-5.556,13.109-5.556,20.629
	c0,14.235,7.244,26.794,18.254,34.153c-6.726-0.213-13.053-2.059-18.585-5.132c-0.003,0.172-0.004,0.343-0.004,0.516
	c0,19.881,14.144,36.465,32.915,40.234c-3.443,0.937-7.068,1.438-10.811,1.438c-2.644,0-5.214-0.257-7.72-0.735
	c5.222,16.301,20.375,28.164,38.33,28.496c-14.043,11.005-31.735,17.564-50.959,17.564c-3.312,0-6.578-0.194-9.788-0.573
	c18.159,11.643,39.727,18.435,62.899,18.435c75.474,0,116.745-62.523,116.745-116.746c0-1.779-0.039-3.548-0.119-5.308
	C187.541,34.696,194.498,27.469,200,19.24z"/>
</svg>
